<?xml version="1.0" encoding="UTF-8" standalone="no"?>
<!DOCTYPE svg PUBLIC "-//W3C//DTD SVG 1.1//EN"
 "http://www.w3.org/Graphics/SVG/1.1/DTD/svg11.dtd">
<!-- Generated by graphviz version 2.38.0 (20140413.2041)
 -->
<!-- Title: G Pages: 1 -->
<svg width="878pt" height="1476pt"
 viewBox="0.00 0.00 877.76 1476.00" xmlns="http://www.w3.org/2000/svg" xmlns:xlink="http://www.w3.org/1999/xlink">
<g id="graph0" class="graph" transform="scale(1 1) rotate(0) translate(4 1472)">
<title>G</title>
<polygon fill="white" stroke="none" points="-4,4 -4,-1472 873.761,-1472 873.761,4 -4,4"/>
<g id="clust1" class="cluster"><title>cluster_Global</title>
<path fill="none" stroke="gray" d="M20,-206C20,-206 849.761,-206 849.761,-206 855.761,-206 861.761,-212 861.761,-218 861.761,-218 861.761,-1448 861.761,-1448 861.761,-1454 855.761,-1460 849.761,-1460 849.761,-1460 20,-1460 20,-1460 14,-1460 8,-1454 8,-1448 8,-1448 8,-218 8,-218 8,-212 14,-206 20,-206"/>
<text text-anchor="middle" x="434.881" y="-1447.2" font-family="Times New Roman,serif" font-size="11.00" fill="gray">Global</text>
</g>
<g id="clust2" class="cluster"><title>cluster_\utilities</title>
<path fill="none" stroke="gray" d="M28,-214C28,-214 841.761,-214 841.761,-214 847.761,-214 853.761,-220 853.761,-226 853.761,-226 853.761,-1420 853.761,-1420 853.761,-1426 847.761,-1432 841.761,-1432 841.761,-1432 28,-1432 28,-1432 22,-1432 16,-1426 16,-1420 16,-1420 16,-226 16,-226 16,-220 22,-214 28,-214"/>
<text text-anchor="middle" x="434.881" y="-1419.2" font-family="Times New Roman,serif" font-size="11.00" fill="gray">utilities</text>
</g>
<g id="clust13" class="cluster"><title>cluster_\utilities\interfaces</title>
<path fill="none" stroke="gray" d="M36,-500C36,-500 162,-500 162,-500 168,-500 174,-506 174,-512 174,-512 174,-596 174,-596 174,-602 168,-608 162,-608 162,-608 36,-608 36,-608 30,-608 24,-602 24,-596 24,-596 24,-512 24,-512 24,-506 30,-500 36,-500"/>
<text text-anchor="middle" x="99" y="-595.2" font-family="Times New Roman,serif" font-size="11.00" fill="gray">interfaces</text>
</g>
<g id="clust14" class="cluster"><title>cluster_\utilities\interfaces\logger</title>
<path fill="none" stroke="gray" d="M44,-508C44,-508 154,-508 154,-508 160,-508 166,-514 166,-520 166,-520 166,-568 166,-568 166,-574 160,-580 154,-580 154,-580 44,-580 44,-580 38,-580 32,-574 32,-568 32,-568 32,-520 32,-520 32,-514 38,-508 44,-508"/>
<text text-anchor="middle" x="99" y="-567.2" font-family="Times New Roman,serif" font-size="11.00" fill="gray">logger</text>
</g>
<g id="clust12" class="cluster"><title>cluster_\utilities\traits</title>
<path fill="none" stroke="gray" d="M683.761,-1278C683.761,-1278 833.761,-1278 833.761,-1278 839.761,-1278 845.761,-1284 845.761,-1290 845.761,-1290 845.761,-1392 845.761,-1392 845.761,-1398 839.761,-1404 833.761,-1404 833.761,-1404 683.761,-1404 683.761,-1404 677.761,-1404 671.761,-1398 671.761,-1392 671.761,-1392 671.761,-1290 671.761,-1290 671.761,-1284 677.761,-1278 683.761,-1278"/>
<text text-anchor="middle" x="758.761" y="-1391.2" font-family="Times New Roman,serif" font-size="11.00" fill="gray">traits</text>
</g>
<g id="clust15" class="cluster"><title>cluster_\utilities\abstracts</title>
<path fill="none" stroke="gray" d="M365.627,-325C365.627,-325 484.627,-325 484.627,-325 490.627,-325 496.627,-331 496.627,-337 496.627,-337 496.627,-555 496.627,-555 496.627,-561 490.627,-567 484.627,-567 484.627,-567 365.627,-567 365.627,-567 359.627,-567 353.627,-561 353.627,-555 353.627,-555 353.627,-337 353.627,-337 353.627,-331 359.627,-325 365.627,-325"/>
<text text-anchor="middle" x="425.127" y="-554.2" font-family="Times New Roman,serif" font-size="11.00" fill="gray">abstracts</text>
</g>
<g id="clust16" class="cluster"><title>cluster_\utilities\abstracts\logger</title>
<path fill="none" stroke="gray" d="M373.627,-467C373.627,-467 476.627,-467 476.627,-467 482.627,-467 488.627,-473 488.627,-479 488.627,-479 488.627,-527 488.627,-527 488.627,-533 482.627,-539 476.627,-539 476.627,-539 373.627,-539 373.627,-539 367.627,-539 361.627,-533 361.627,-527 361.627,-527 361.627,-479 361.627,-479 361.627,-473 367.627,-467 373.627,-467"/>
<text text-anchor="middle" x="425.127" y="-526.2" font-family="Times New Roman,serif" font-size="11.00" fill="gray">logger</text>
</g>
<g id="clust17" class="cluster"><title>cluster_\utilities\abstracts\designPatterns</title>
<path fill="none" stroke="gray" d="M387.127,-333C387.127,-333 463.127,-333 463.127,-333 469.127,-333 475.127,-339 475.127,-345 475.127,-345 475.127,-447 475.127,-447 475.127,-453 469.127,-459 463.127,-459 463.127,-459 387.127,-459 387.127,-459 381.127,-459 375.127,-453 375.127,-447 375.127,-447 375.127,-345 375.127,-345 375.127,-339 381.127,-333 387.127,-333"/>
<text text-anchor="middle" x="425.127" y="-446.2" font-family="Times New Roman,serif" font-size="11.00" fill="gray">designPatterns</text>
</g>
<g id="clust3" class="cluster"><title>cluster_\utilities\classes</title>
<path fill="none" stroke="gray" d="M689.261,-222C689.261,-222 828.261,-222 828.261,-222 834.261,-222 840.261,-228 840.261,-234 840.261,-234 840.261,-1258 840.261,-1258 840.261,-1264 834.261,-1270 828.261,-1270 828.261,-1270 689.261,-1270 689.261,-1270 683.261,-1270 677.261,-1264 677.261,-1258 677.261,-1258 677.261,-234 677.261,-234 677.261,-228 683.261,-222 689.261,-222"/>
<text text-anchor="middle" x="758.761" y="-1257.2" font-family="Times New Roman,serif" font-size="11.00" fill="gray">classes</text>
</g>
<g id="clust6" class="cluster"><title>cluster_\utilities\classes\exception</title>
<path fill="none" stroke="gray" d="M700.261,-1170C700.261,-1170 817.261,-1170 817.261,-1170 823.261,-1170 829.261,-1176 829.261,-1182 829.261,-1182 829.261,-1230 829.261,-1230 829.261,-1236 823.261,-1242 817.261,-1242 817.261,-1242 700.261,-1242 700.261,-1242 694.261,-1242 688.261,-1236 688.261,-1230 688.261,-1230 688.261,-1182 688.261,-1182 688.261,-1176 694.261,-1170 700.261,-1170"/>
<text text-anchor="middle" x="758.761" y="-1229.2" font-family="Times New Roman,serif" font-size="11.00" fill="gray">exception</text>
</g>
<g id="clust7" class="cluster"><title>cluster_\utilities\classes\debugger</title>
<path fill="none" stroke="gray" d="M722.761,-1000C722.761,-1000 794.761,-1000 794.761,-1000 800.761,-1000 806.761,-1006 806.761,-1012 806.761,-1012 806.761,-1150 806.761,-1150 806.761,-1156 800.761,-1162 794.761,-1162 794.761,-1162 722.761,-1162 722.761,-1162 716.761,-1162 710.761,-1156 710.761,-1150 710.761,-1150 710.761,-1012 710.761,-1012 710.761,-1006 716.761,-1000 722.761,-1000"/>
<text text-anchor="middle" x="758.761" y="-1149.2" font-family="Times New Roman,serif" font-size="11.00" fill="gray">debugger</text>
</g>
<g id="clust8" class="cluster"><title>cluster_\utilities\classes\debugger\FirePHP</title>
<path fill="none" stroke="gray" d="M730.761,-1008C730.761,-1008 786.761,-1008 786.761,-1008 792.761,-1008 798.761,-1014 798.761,-1020 798.761,-1020 798.761,-1122 798.761,-1122 798.761,-1128 792.761,-1134 786.761,-1134 786.761,-1134 730.761,-1134 730.761,-1134 724.761,-1134 718.761,-1128 718.761,-1122 718.761,-1122 718.761,-1020 718.761,-1020 718.761,-1014 724.761,-1008 730.761,-1008"/>
<text text-anchor="middle" x="758.761" y="-1121.2" font-family="Times New Roman,serif" font-size="11.00" fill="gray">FirePHP</text>
</g>
<g id="clust9" class="cluster"><title>cluster_\utilities\classes\entities</title>
<path fill="none" stroke="gray" d="M735.761,-920C735.761,-920 781.761,-920 781.761,-920 787.761,-920 793.761,-926 793.761,-932 793.761,-932 793.761,-980 793.761,-980 793.761,-986 787.761,-992 781.761,-992 781.761,-992 735.761,-992 735.761,-992 729.761,-992 723.761,-986 723.761,-980 723.761,-980 723.761,-932 723.761,-932 723.761,-926 729.761,-920 735.761,-920"/>
<text text-anchor="middle" x="758.761" y="-979.2" font-family="Times New Roman,serif" font-size="11.00" fill="gray">entities</text>
</g>
<g id="clust11" class="cluster"><title>cluster_\utilities\classes\ini</title>
<path fill="none" stroke="gray" d="M720.761,-840C720.761,-840 796.761,-840 796.761,-840 802.761,-840 808.761,-846 808.761,-852 808.761,-852 808.761,-900 808.761,-900 808.761,-906 802.761,-912 796.761,-912 796.761,-912 720.761,-912 720.761,-912 714.761,-912 708.761,-906 708.761,-900 708.761,-900 708.761,-852 708.761,-852 708.761,-846 714.761,-840 720.761,-840"/>
<text text-anchor="middle" x="758.761" y="-899.2" font-family="Times New Roman,serif" font-size="11.00" fill="gray">ini</text>
</g>
<g id="clust4" class="cluster"><title>cluster_\utilities\classes\entitiesManager</title>
<path fill="none" stroke="gray" d="M697.261,-384C697.261,-384 820.261,-384 820.261,-384 826.261,-384 832.261,-390 832.261,-396 832.261,-396 832.261,-444 832.261,-444 832.261,-450 826.261,-456 820.261,-456 820.261,-456 697.261,-456 697.261,-456 691.261,-456 685.261,-450 685.261,-444 685.261,-444 685.261,-396 685.261,-396 685.261,-390 691.261,-384 697.261,-384"/>
<text text-anchor="middle" x="758.761" y="-443.2" font-family="Times New Roman,serif" font-size="11.00" fill="gray">entitiesManager</text>
</g>
<g id="clust5" class="cluster"><title>cluster_\utilities\classes\logger</title>
<path fill="none" stroke="gray" d="M710.761,-544C710.761,-544 806.761,-544 806.761,-544 812.761,-544 818.761,-550 818.761,-556 818.761,-556 818.761,-820 818.761,-820 818.761,-826 812.761,-832 806.761,-832 806.761,-832 710.761,-832 710.761,-832 704.761,-832 698.761,-826 698.761,-820 698.761,-820 698.761,-556 698.761,-556 698.761,-550 704.761,-544 710.761,-544"/>
<text text-anchor="middle" x="758.761" y="-819.2" font-family="Times New Roman,serif" font-size="11.00" fill="gray">logger</text>
</g>
<g id="clust10" class="cluster"><title>cluster_\utilities\classes\entitiesCollection</title>
<path fill="none" stroke="gray" d="M707.261,-464C707.261,-464 810.261,-464 810.261,-464 816.261,-464 822.261,-470 822.261,-476 822.261,-476 822.261,-524 822.261,-524 822.261,-530 816.261,-536 810.261,-536 810.261,-536 707.261,-536 707.261,-536 701.261,-536 695.261,-530 695.261,-524 695.261,-524 695.261,-476 695.261,-476 695.261,-470 701.261,-464 707.261,-464"/>
<text text-anchor="middle" x="758.761" y="-523.2" font-family="Times New Roman,serif" font-size="11.00" fill="gray">entitiesCollection</text>
</g>
<!-- \\utilities\\classes\\entitiesManager\\UserEntityManager -->
<g id="node1" class="node"><title>\\utilities\\classes\\entitiesManager\\UserEntityManager</title>
<polygon fill="none" stroke="black" points="824.261,-428 693.261,-428 693.261,-392 824.261,-392 824.261,-428"/>
<text text-anchor="middle" x="758.761" y="-407.2" font-family="Courier,monospace" font-size="11.00">UserEntityManager</text>
</g>
<!-- \\utilities\\abstracts\\designPatterns\\EntityManager -->
<g id="node22" class="node"><title>\\utilities\\abstracts\\designPatterns\\EntityManager</title>
<ellipse fill="none" stroke="black" cx="425.127" cy="-126" rx="182.768" ry="18"/>
<text text-anchor="middle" x="425.127" y="-122.3" font-family="Times New Roman,serif" font-size="14.00" fill="gray">\utilities\abstracts\designPatterns\EntityManager</text>
</g>
<!-- \\utilities\\classes\\entitiesManager\\UserEntityManager&#45;&gt;\\utilities\\abstracts\\designPatterns\\EntityManager -->
<g id="edge1" class="edge"><title>\\utilities\\classes\\entitiesManager\\UserEntityManager&#45;&gt;\\utilities\\abstracts\\designPatterns\\EntityManager</title>
<path fill="none" stroke="black" d="M693.134,-401.609C685.215,-398.354 677.801,-393.947 671.761,-388 594.629,-312.05 688.696,-224.884 607.761,-153 602.19,-148.051 596.121,-143.781 589.693,-140.107"/>
<polygon fill="none" stroke="black" points="591.207,-136.95 580.717,-135.459 587.987,-143.166 591.207,-136.95"/>
</g>
<!-- \\utilities\\classes\\logger\\LoggerManager -->
<g id="node2" class="node"><title>\\utilities\\classes\\logger\\LoggerManager</title>
<polygon fill="none" stroke="black" points="810.761,-804 706.761,-804 706.761,-768 810.761,-768 810.761,-804"/>
<text text-anchor="middle" x="758.761" y="-783.2" font-family="Courier,monospace" font-size="11.00">LoggerManager</text>
</g>
<!-- \\utilities\\classes\\logger\\LogLevel -->
<g id="node3" class="node"><title>\\utilities\\classes\\logger\\LogLevel</title>
<polygon fill="none" stroke="black" points="794.261,-750 723.261,-750 723.261,-714 794.261,-714 794.261,-750"/>
<text text-anchor="middle" x="758.761" y="-729.2" font-family="Courier,monospace" font-size="11.00">LogLevel</text>
</g>
<!-- \\utilities\\classes\\logger\\ConsoleLogger -->
<g id="node4" class="node"><title>\\utilities\\classes\\logger\\ConsoleLogger</title>
<polygon fill="none" stroke="black" points="810.761,-696 706.761,-696 706.761,-660 810.761,-660 810.761,-696"/>
<text text-anchor="middle" x="758.761" y="-675.2" font-family="Courier,monospace" font-size="11.00">ConsoleLogger</text>
</g>
<!-- \\utilities\\interfaces\\logger\\LoggerInterface -->
<g id="node18" class="node"><title>\\utilities\\interfaces\\logger\\LoggerInterface</title>
<polygon fill="none" stroke="black" points="158,-552 40,-552 40,-516 158,-516 158,-552"/>
<text text-anchor="middle" x="99" y="-531.2" font-family="Courier,monospace" font-size="11.00">LoggerInterface</text>
</g>
<!-- \\utilities\\classes\\logger\\ConsoleLogger&#45;&gt;\\utilities\\interfaces\\logger\\LoggerInterface -->
<g id="edge3" class="edge"><title>\\utilities\\classes\\logger\\ConsoleLogger&#45;&gt;\\utilities\\interfaces\\logger\\LoggerInterface</title>
<path fill="none" stroke="black" stroke-dasharray="1,5" d="M706.757,-668.824C641.752,-657.329 525.842,-637.507 426.127,-624"/>
</g>
<!-- \\utilities\\classes\\logger\\ConsoleColors -->
<g id="node5" class="node"><title>\\utilities\\classes\\logger\\ConsoleColors</title>
<polygon fill="none" stroke="black" points="810.761,-642 706.761,-642 706.761,-606 810.761,-606 810.761,-642"/>
<text text-anchor="middle" x="758.761" y="-621.2" font-family="Courier,monospace" font-size="11.00">ConsoleColors</text>
</g>
<!-- \\utilities\\classes\\logger\\FileLogger -->
<g id="node6" class="node"><title>\\utilities\\classes\\logger\\FileLogger</title>
<polygon fill="none" stroke="black" points="800.761,-588 716.761,-588 716.761,-552 800.761,-552 800.761,-588"/>
<text text-anchor="middle" x="758.761" y="-567.2" font-family="Courier,monospace" font-size="11.00">FileLogger</text>
</g>
<!-- \\utilities\\classes\\logger\\FileLogger&#45;&gt;\\utilities\\interfaces\\logger\\LoggerInterface -->
<g id="edge8" class="edge"><title>\\utilities\\classes\\logger\\FileLogger&#45;&gt;\\utilities\\interfaces\\logger\\LoggerInterface</title>
<path fill="none" stroke="black" stroke-dasharray="1,5" d="M716.645,-579.778C640.832,-597.294 481.693,-631.526 426.127,-624"/>
<path fill="none" stroke="black" stroke-dasharray="1,5" d="M424.127,-624C329.034,-611.119 222.48,-577.696 158.353,-555.407"/>
<polygon fill="none" stroke="black" points="159.415,-552.07 148.82,-552.067 157.1,-558.677 159.415,-552.07"/>
</g>
<!-- \\utilities\\abstracts\\logger\\AbstractLogger -->
<g id="node19" class="node"><title>\\utilities\\abstracts\\logger\\AbstractLogger</title>
<polygon fill="none" stroke="black" points="480.627,-511 369.627,-511 369.627,-475 480.627,-475 480.627,-511"/>
<text text-anchor="start" x="391.127" y="-496.2" font-family="Courier,monospace" font-size="11.00">«abstract»</text>
<text text-anchor="start" x="377.627" y="-484.2" font-family="Courier,monospace" font-size="11.00">AbstractLogger</text>
</g>
<!-- \\utilities\\classes\\logger\\FileLogger&#45;&gt;\\utilities\\abstracts\\logger\\AbstractLogger -->
<g id="edge7" class="edge"><title>\\utilities\\classes\\logger\\FileLogger&#45;&gt;\\utilities\\abstracts\\logger\\AbstractLogger</title>
<path fill="none" stroke="black" d="M716.43,-560.404C659.782,-547.251 557.454,-523.492 490.662,-507.984"/>
<polygon fill="none" stroke="black" points="491.2,-504.516 480.668,-505.663 489.617,-511.334 491.2,-504.516"/>
</g>
<!-- \\utilities\\classes\\exception\\ExceptionManager -->
<g id="node7" class="node"><title>\\utilities\\classes\\exception\\ExceptionManager</title>
<polygon fill="none" stroke="black" points="821.261,-1214 696.261,-1214 696.261,-1178 821.261,-1178 821.261,-1214"/>
<text text-anchor="middle" x="758.761" y="-1193.2" font-family="Courier,monospace" font-size="11.00">ExceptionManager</text>
</g>
<!-- \\Exception -->
<g id="node23" class="node"><title>\\Exception</title>
<ellipse fill="none" stroke="black" cx="425.127" cy="-180" rx="50.0912" ry="18"/>
<text text-anchor="middle" x="425.127" y="-176.3" font-family="Times New Roman,serif" font-size="14.00" fill="gray">\Exception</text>
</g>
<!-- \\utilities\\classes\\exception\\ExceptionManager&#45;&gt;\\Exception -->
<g id="edge2" class="edge"><title>\\utilities\\classes\\exception\\ExceptionManager&#45;&gt;\\Exception</title>
<path fill="none" stroke="black" d="M715.941,-1177.87C699.342,-1168.46 681.836,-1155.27 671.761,-1138 489.988,-826.475 774.751,-648.693 607.761,-329 576.028,-268.248 507.689,-223.051 464.477,-199.165"/>
<polygon fill="none" stroke="black" points="466.121,-196.075 455.66,-194.394 462.789,-202.231 466.121,-196.075"/>
</g>
<!-- \\utilities\\classes\\debugger\\FirePHP\\FB -->
<g id="node8" class="node"><title>\\utilities\\classes\\debugger\\FirePHP\\FB</title>
<polygon fill="none" stroke="black" points="785.761,-1106 731.761,-1106 731.761,-1070 785.761,-1070 785.761,-1106"/>
<text text-anchor="middle" x="758.761" y="-1085.2" font-family="Courier,monospace" font-size="11.00">FB</text>
</g>
<!-- \\utilities\\classes\\debugger\\FirePHP\\FirePHP -->
<g id="node9" class="node"><title>\\utilities\\classes\\debugger\\FirePHP\\FirePHP</title>
<polygon fill="none" stroke="black" points="790.761,-1052 726.761,-1052 726.761,-1016 790.761,-1016 790.761,-1052"/>
<text text-anchor="middle" x="758.761" y="-1031.2" font-family="Courier,monospace" font-size="11.00">FirePHP</text>
</g>
<!-- \\utilities\\classes\\entities\\User -->
<g id="node10" class="node"><title>\\utilities\\classes\\entities\\User</title>
<polygon fill="none" stroke="black" points="785.761,-964 731.761,-964 731.761,-928 785.761,-928 785.761,-964"/>
<text text-anchor="middle" x="758.761" y="-943.2" font-family="Courier,monospace" font-size="11.00">User</text>
</g>
<!-- \\utilities\\abstracts\\designPatterns\\Entity -->
<g id="node21" class="node"><title>\\utilities\\abstracts\\designPatterns\\Entity</title>
<polygon fill="none" stroke="black" points="467.127,-431 383.127,-431 383.127,-395 467.127,-395 467.127,-431"/>
<text text-anchor="start" x="391.127" y="-416.2" font-family="Courier,monospace" font-size="11.00">«abstract»</text>
<text text-anchor="start" x="404.627" y="-404.2" font-family="Courier,monospace" font-size="11.00">Entity</text>
</g>
<!-- \\utilities\\classes\\entities\\User&#45;&gt;\\utilities\\abstracts\\designPatterns\\Entity -->
<g id="edge4" class="edge"><title>\\utilities\\classes\\entities\\User&#45;&gt;\\utilities\\abstracts\\designPatterns\\Entity</title>
<path fill="none" stroke="black" d="M731.487,-943.963C711.974,-940.988 686.316,-933.716 671.761,-916 542.685,-758.89 742.028,-615.698 607.761,-463 575.507,-426.318 519.071,-415.419 477.644,-412.704"/>
<polygon fill="none" stroke="black" points="477.626,-409.198 467.459,-412.179 477.265,-416.189 477.626,-409.198"/>
</g>
<!-- \\utilities\\classes\\entitiesCollection\\UserCollection -->
<g id="node11" class="node"><title>\\utilities\\classes\\entitiesCollection\\UserCollection</title>
<polygon fill="none" stroke="black" points="814.261,-508 703.261,-508 703.261,-472 814.261,-472 814.261,-508"/>
<text text-anchor="middle" x="758.761" y="-487.2" font-family="Courier,monospace" font-size="11.00">UserCollection</text>
</g>
<!-- \\utilities\\abstracts\\designPatterns\\Collection -->
<g id="node20" class="node"><title>\\utilities\\abstracts\\designPatterns\\Collection</title>
<polygon fill="none" stroke="black" points="467.127,-377 383.127,-377 383.127,-341 467.127,-341 467.127,-377"/>
<text text-anchor="start" x="391.127" y="-362.2" font-family="Courier,monospace" font-size="11.00">«abstract»</text>
<text text-anchor="start" x="391.127" y="-350.2" font-family="Courier,monospace" font-size="11.00">Collection</text>
</g>
<!-- \\utilities\\classes\\entitiesCollection\\UserCollection&#45;&gt;\\utilities\\abstracts\\designPatterns\\Collection -->
<g id="edge5" class="edge"><title>\\utilities\\classes\\entitiesCollection\\UserCollection&#45;&gt;\\utilities\\abstracts\\designPatterns\\Collection</title>
<path fill="none" stroke="black" d="M702.939,-475.699C692.102,-471.569 681.179,-466.397 671.761,-460 635.792,-435.567 645.866,-406.948 607.761,-386 567.797,-364.03 515.782,-358.182 477.662,-357.299"/>
<polygon fill="none" stroke="black" points="477.342,-353.795 467.3,-357.173 477.256,-360.795 477.342,-353.795"/>
</g>
<!-- \\utilities\\classes\\ini\\IniManager -->
<g id="node12" class="node"><title>\\utilities\\classes\\ini\\IniManager</title>
<polygon fill="none" stroke="black" points="800.761,-884 716.761,-884 716.761,-848 800.761,-848 800.761,-884"/>
<text text-anchor="middle" x="758.761" y="-863.2" font-family="Courier,monospace" font-size="11.00">IniManager</text>
</g>
<!-- \\utilities\\classes\\Benchmark -->
<g id="node13" class="node"><title>\\utilities\\classes\\Benchmark</title>
<polygon fill="none" stroke="black" points="797.261,-374 720.261,-374 720.261,-338 797.261,-338 797.261,-374"/>
<text text-anchor="middle" x="758.761" y="-353.2" font-family="Courier,monospace" font-size="11.00">Benchmark</text>
</g>
<!-- \\utilities\\classes\\DataBase -->
<g id="node14" class="node"><title>\\utilities\\classes\\DataBase</title>
<polygon fill="none" stroke="black" points="794.261,-320 723.261,-320 723.261,-284 794.261,-284 794.261,-320"/>
<text text-anchor="middle" x="758.761" y="-299.2" font-family="Courier,monospace" font-size="11.00">DataBase</text>
</g>
<!-- \\utilities\\classes\\Console -->
<g id="node15" class="node"><title>\\utilities\\classes\\Console</title>
<polygon fill="none" stroke="black" points="790.761,-266 726.761,-266 726.761,-230 790.761,-230 790.761,-266"/>
<text text-anchor="middle" x="758.761" y="-245.2" font-family="Courier,monospace" font-size="11.00">Console</text>
</g>
<!-- \\utilities\\traits\\FiltersTrait -->
<g id="node16" class="node"><title>\\utilities\\traits\\FiltersTrait</title>
<polygon fill="none" stroke="black" points="807.761,-1376 709.761,-1376 709.761,-1340 807.761,-1340 807.761,-1376"/>
<text text-anchor="middle" x="758.761" y="-1355.2" font-family="Courier,monospace" font-size="11.00">FiltersTrait</text>
</g>
<!-- \\utilities\\traits\\BeautifullIndentTrait -->
<g id="node17" class="node"><title>\\utilities\\traits\\BeautifullIndentTrait</title>
<polygon fill="none" stroke="black" points="837.761,-1322 679.761,-1322 679.761,-1286 837.761,-1286 837.761,-1322"/>
<text text-anchor="middle" x="758.761" y="-1301.2" font-family="Courier,monospace" font-size="11.00">BeautifullIndentTrait</text>
</g>
<!-- \\utilities\\abstracts\\logger\\AbstractLogger&#45;&gt;\\utilities\\interfaces\\logger\\LoggerInterface -->
<g id="edge6" class="edge"><title>\\utilities\\abstracts\\logger\\AbstractLogger&#45;&gt;\\utilities\\interfaces\\logger\\LoggerInterface</title>
<path fill="none" stroke="black" stroke-dasharray="1,5" d="M369.51,-499.909C314.081,-506.92 228.132,-517.792 168.248,-525.367"/>
<polygon fill="none" stroke="black" points="167.61,-521.92 158.128,-526.647 168.488,-528.865 167.61,-521.92"/>
</g>
<!-- \\Iterator -->
<g id="node24" class="node"><title>\\Iterator</title>
<ellipse fill="none" stroke="black" cx="99" cy="-18" rx="39.7935" ry="18"/>
<text text-anchor="middle" x="99" y="-14.3" font-family="Times New Roman,serif" font-size="14.00" fill="gray">\Iterator</text>
</g>
<!-- \\utilities\\abstracts\\designPatterns\\Collection&#45;&gt;\\Iterator -->
<g id="edge9" class="edge"><title>\\utilities\\abstracts\\designPatterns\\Collection&#45;&gt;\\Iterator</title>
<path fill="none" stroke="black" stroke-dasharray="1,5" d="M394.611,-340.79C355.246,-315.204 285.537,-265.176 242.494,-207 195.999,-144.16 230.644,-98.8719 174,-45 166.115,-37.5008 155.982,-32.0549 145.761,-28.1105"/>
<polygon fill="none" stroke="black" points="146.6,-24.6981 136.005,-24.7707 144.333,-31.3208 146.6,-24.6981"/>
</g>
<!-- \\ArrayAccess -->
<g id="node25" class="node"><title>\\ArrayAccess</title>
<ellipse fill="none" stroke="black" cx="99" cy="-180" rx="60.3893" ry="18"/>
<text text-anchor="middle" x="99" y="-176.3" font-family="Times New Roman,serif" font-size="14.00" fill="gray">\ArrayAccess</text>
</g>
<!-- \\utilities\\abstracts\\designPatterns\\Collection&#45;&gt;\\ArrayAccess -->
<g id="edge10" class="edge"><title>\\utilities\\abstracts\\designPatterns\\Collection&#45;&gt;\\ArrayAccess</title>
<path fill="none" stroke="black" stroke-dasharray="1,5" d="M391.265,-340.851C330.672,-307.389 201.704,-236.166 137.678,-200.808"/>
<polygon fill="none" stroke="black" points="139.164,-197.63 128.719,-195.86 135.78,-203.758 139.164,-197.63"/>
</g>
<!-- \\Countable -->
<g id="node26" class="node"><title>\\Countable</title>
<ellipse fill="none" stroke="black" cx="99" cy="-126" rx="50.0912" ry="18"/>
<text text-anchor="middle" x="99" y="-122.3" font-family="Times New Roman,serif" font-size="14.00" fill="gray">\Countable</text>
</g>
<!-- \\utilities\\abstracts\\designPatterns\\Collection&#45;&gt;\\Countable -->
<g id="edge11" class="edge"><title>\\utilities\\abstracts\\designPatterns\\Collection&#45;&gt;\\Countable</title>
<path fill="none" stroke="black" stroke-dasharray="1,5" d="M402.384,-340.755C343.885,-291.715 186.698,-160.26 174,-153 165.892,-148.364 156.843,-144.28 147.933,-140.783"/>
<polygon fill="none" stroke="black" points="148.962,-137.432 138.369,-137.221 146.519,-143.991 148.962,-137.432"/>
</g>
<!-- \\SeekableIterator -->
<g id="node27" class="node"><title>\\SeekableIterator</title>
<ellipse fill="none" stroke="black" cx="99" cy="-72" rx="71.4873" ry="18"/>
<text text-anchor="middle" x="99" y="-68.3" font-family="Times New Roman,serif" font-size="14.00" fill="gray">\SeekableIterator</text>
</g>
<!-- \\utilities\\abstracts\\designPatterns\\Collection&#45;&gt;\\SeekableIterator -->
<g id="edge12" class="edge"><title>\\utilities\\abstracts\\designPatterns\\Collection&#45;&gt;\\SeekableIterator</title>
<path fill="none" stroke="black" stroke-dasharray="1,5" d="M397.567,-340.82C360.089,-314.321 290.868,-262.2 242.494,-207 205.032,-164.253 218.278,-134.64 174,-99 169.359,-95.2645 164.155,-92.0185 158.714,-89.2035"/>
<polygon fill="none" stroke="black" points="159.933,-85.9104 149.39,-84.8628 156.978,-92.2564 159.933,-85.9104"/>
</g>
</g>
</svg>
