<?xml version="1.0" encoding="UTF-8" standalone="no"?>
<!DOCTYPE svg PUBLIC "-//W3C//DTD SVG 1.1//EN"
 "http://www.w3.org/Graphics/SVG/1.1/DTD/svg11.dtd">
<!-- Generated by graphviz version 2.38.0 (20140413.2041)
 -->
<!-- Title: G Pages: 1 -->
<svg width="607pt" height="1342pt"
 viewBox="0.00 0.00 607.49 1342.00" xmlns="http://www.w3.org/2000/svg" xmlns:xlink="http://www.w3.org/1999/xlink">
<g id="graph0" class="graph" transform="scale(1 1) rotate(0) translate(4 1338)">
<title>G</title>
<polygon fill="white" stroke="none" points="-4,4 -4,-1338 603.494,-1338 603.494,4 -4,4"/>
<g id="clust1" class="cluster"><title>cluster_Global</title>
<path fill="none" stroke="gray" d="M20,-206C20,-206 579.494,-206 579.494,-206 585.494,-206 591.494,-212 591.494,-218 591.494,-218 591.494,-1314 591.494,-1314 591.494,-1320 585.494,-1326 579.494,-1326 579.494,-1326 20,-1326 20,-1326 14,-1326 8,-1320 8,-1314 8,-1314 8,-218 8,-218 8,-212 14,-206 20,-206"/>
<text text-anchor="middle" x="299.747" y="-1313.2" font-family="Times New Roman,serif" font-size="11.00" fill="gray">Global</text>
</g>
<g id="clust2" class="cluster"><title>cluster_\classes</title>
<path fill="none" stroke="gray" d="M426.994,-394C426.994,-394 565.994,-394 565.994,-394 571.994,-394 577.994,-400 577.994,-406 577.994,-406 577.994,-1286 577.994,-1286 577.994,-1292 571.994,-1298 565.994,-1298 565.994,-1298 426.994,-1298 426.994,-1298 420.994,-1298 414.994,-1292 414.994,-1286 414.994,-1286 414.994,-406 414.994,-406 414.994,-400 420.994,-394 426.994,-394"/>
<text text-anchor="middle" x="496.494" y="-1285.2" font-family="Times New Roman,serif" font-size="11.00" fill="gray">classes</text>
</g>
<g id="clust3" class="cluster"><title>cluster_\classes\entitiesManager</title>
<path fill="none" stroke="gray" d="M434.994,-796C434.994,-796 557.994,-796 557.994,-796 563.994,-796 569.994,-802 569.994,-808 569.994,-808 569.994,-856 569.994,-856 569.994,-862 563.994,-868 557.994,-868 557.994,-868 434.994,-868 434.994,-868 428.994,-868 422.994,-862 422.994,-856 422.994,-856 422.994,-808 422.994,-808 422.994,-802 428.994,-796 434.994,-796"/>
<text text-anchor="middle" x="496.494" y="-855.2" font-family="Times New Roman,serif" font-size="11.00" fill="gray">entitiesManager</text>
</g>
<g id="clust4" class="cluster"><title>cluster_\classes\logger</title>
<path fill="none" stroke="gray" d="M448.494,-1036C448.494,-1036 544.494,-1036 544.494,-1036 550.494,-1036 556.494,-1042 556.494,-1048 556.494,-1048 556.494,-1258 556.494,-1258 556.494,-1264 550.494,-1270 544.494,-1270 544.494,-1270 448.494,-1270 448.494,-1270 442.494,-1270 436.494,-1264 436.494,-1258 436.494,-1258 436.494,-1048 436.494,-1048 436.494,-1042 442.494,-1036 448.494,-1036"/>
<text text-anchor="middle" x="496.494" y="-1257.2" font-family="Times New Roman,serif" font-size="11.00" fill="gray">logger</text>
</g>
<g id="clust5" class="cluster"><title>cluster_\classes\exception</title>
<path fill="none" stroke="gray" d="M437.994,-716C437.994,-716 554.994,-716 554.994,-716 560.994,-716 566.994,-722 566.994,-728 566.994,-728 566.994,-776 566.994,-776 566.994,-782 560.994,-788 554.994,-788 554.994,-788 437.994,-788 437.994,-788 431.994,-788 425.994,-782 425.994,-776 425.994,-776 425.994,-728 425.994,-728 425.994,-722 431.994,-716 437.994,-716"/>
<text text-anchor="middle" x="496.494" y="-775.2" font-family="Times New Roman,serif" font-size="11.00" fill="gray">exception</text>
</g>
<g id="clust6" class="cluster"><title>cluster_\classes\entities</title>
<path fill="none" stroke="gray" d="M473.494,-876C473.494,-876 519.494,-876 519.494,-876 525.494,-876 531.494,-882 531.494,-888 531.494,-888 531.494,-936 531.494,-936 531.494,-942 525.494,-948 519.494,-948 519.494,-948 473.494,-948 473.494,-948 467.494,-948 461.494,-942 461.494,-936 461.494,-936 461.494,-888 461.494,-888 461.494,-882 467.494,-876 473.494,-876"/>
<text text-anchor="middle" x="496.494" y="-935.2" font-family="Times New Roman,serif" font-size="11.00" fill="gray">entities</text>
</g>
<g id="clust7" class="cluster"><title>cluster_\classes\entitiesCollection</title>
<path fill="none" stroke="gray" d="M444.994,-956C444.994,-956 547.994,-956 547.994,-956 553.994,-956 559.994,-962 559.994,-968 559.994,-968 559.994,-1016 559.994,-1016 559.994,-1022 553.994,-1028 547.994,-1028 547.994,-1028 444.994,-1028 444.994,-1028 438.994,-1028 432.994,-1022 432.994,-1016 432.994,-1016 432.994,-968 432.994,-968 432.994,-962 438.994,-956 444.994,-956"/>
<text text-anchor="middle" x="496.494" y="-1015.2" font-family="Times New Roman,serif" font-size="11.00" fill="gray">entitiesCollection</text>
</g>
<g id="clust8" class="cluster"><title>cluster_\classes\ini</title>
<path fill="none" stroke="gray" d="M458.494,-636C458.494,-636 534.494,-636 534.494,-636 540.494,-636 546.494,-642 546.494,-648 546.494,-648 546.494,-696 546.494,-696 546.494,-702 540.494,-708 534.494,-708 534.494,-708 458.494,-708 458.494,-708 452.494,-708 446.494,-702 446.494,-696 446.494,-696 446.494,-648 446.494,-648 446.494,-642 452.494,-636 458.494,-636"/>
<text text-anchor="middle" x="496.494" y="-695.2" font-family="Times New Roman,serif" font-size="11.00" fill="gray">ini</text>
</g>
<g id="clust9" class="cluster"><title>cluster_\classes\console</title>
<path fill="none" stroke="gray" d="M448.494,-502C448.494,-502 544.494,-502 544.494,-502 550.494,-502 556.494,-508 556.494,-514 556.494,-514 556.494,-616 556.494,-616 556.494,-622 550.494,-628 544.494,-628 544.494,-628 448.494,-628 448.494,-628 442.494,-628 436.494,-622 436.494,-616 436.494,-616 436.494,-514 436.494,-514 436.494,-508 442.494,-502 448.494,-502"/>
<text text-anchor="middle" x="496.494" y="-615.2" font-family="Times New Roman,serif" font-size="11.00" fill="gray">console</text>
</g>
<g id="clust10" class="cluster"><title>cluster_\traits</title>
<path fill="none" stroke="gray" d="M421.494,-260C421.494,-260 571.494,-260 571.494,-260 577.494,-260 583.494,-266 583.494,-272 583.494,-272 583.494,-374 583.494,-374 583.494,-380 577.494,-386 571.494,-386 571.494,-386 421.494,-386 421.494,-386 415.494,-386 409.494,-380 409.494,-374 409.494,-374 409.494,-272 409.494,-272 409.494,-266 415.494,-260 421.494,-260"/>
<text text-anchor="middle" x="496.494" y="-373.2" font-family="Times New Roman,serif" font-size="11.00" fill="gray">traits</text>
</g>
<g id="clust11" class="cluster"><title>cluster_\interfaces</title>
<path fill="none" stroke="gray" d="M28,-1023C28,-1023 154,-1023 154,-1023 160,-1023 166,-1029 166,-1035 166,-1035 166,-1119 166,-1119 166,-1125 160,-1131 154,-1131 154,-1131 28,-1131 28,-1131 22,-1131 16,-1125 16,-1119 16,-1119 16,-1035 16,-1035 16,-1029 22,-1023 28,-1023"/>
<text text-anchor="middle" x="91" y="-1118.2" font-family="Times New Roman,serif" font-size="11.00" fill="gray">interfaces</text>
</g>
<g id="clust12" class="cluster"><title>cluster_\interfaces\logger</title>
<path fill="none" stroke="gray" d="M36,-1031C36,-1031 146,-1031 146,-1031 152,-1031 158,-1037 158,-1043 158,-1043 158,-1091 158,-1091 158,-1097 152,-1103 146,-1103 146,-1103 36,-1103 36,-1103 30,-1103 24,-1097 24,-1091 24,-1091 24,-1043 24,-1043 24,-1037 30,-1031 36,-1031"/>
<text text-anchor="middle" x="91" y="-1090.2" font-family="Times New Roman,serif" font-size="11.00" fill="gray">logger</text>
</g>
<g id="clust13" class="cluster"><title>cluster_\abstracts</title>
<path fill="none" stroke="gray" d="M230.494,-794C230.494,-794 349.494,-794 349.494,-794 355.494,-794 361.494,-800 361.494,-806 361.494,-806 361.494,-1078 361.494,-1078 361.494,-1084 355.494,-1090 349.494,-1090 349.494,-1090 230.494,-1090 230.494,-1090 224.494,-1090 218.494,-1084 218.494,-1078 218.494,-1078 218.494,-806 218.494,-806 218.494,-800 224.494,-794 230.494,-794"/>
<text text-anchor="middle" x="289.994" y="-1077.2" font-family="Times New Roman,serif" font-size="11.00" fill="gray">abstracts</text>
</g>
<g id="clust15" class="cluster"><title>cluster_\abstracts\designPatterns</title>
<path fill="none" stroke="gray" d="M241.994,-802C241.994,-802 337.994,-802 337.994,-802 343.994,-802 349.994,-808 349.994,-814 349.994,-814 349.994,-970 349.994,-970 349.994,-976 343.994,-982 337.994,-982 337.994,-982 241.994,-982 241.994,-982 235.994,-982 229.994,-976 229.994,-970 229.994,-970 229.994,-814 229.994,-814 229.994,-808 235.994,-802 241.994,-802"/>
<text text-anchor="middle" x="289.994" y="-969.2" font-family="Times New Roman,serif" font-size="11.00" fill="gray">designPatterns</text>
</g>
<g id="clust14" class="cluster"><title>cluster_\abstracts\logger</title>
<path fill="none" stroke="gray" d="M238.494,-990C238.494,-990 341.494,-990 341.494,-990 347.494,-990 353.494,-996 353.494,-1002 353.494,-1002 353.494,-1050 353.494,-1050 353.494,-1056 347.494,-1062 341.494,-1062 341.494,-1062 238.494,-1062 238.494,-1062 232.494,-1062 226.494,-1056 226.494,-1050 226.494,-1050 226.494,-1002 226.494,-1002 226.494,-996 232.494,-990 238.494,-990"/>
<text text-anchor="middle" x="289.994" y="-1049.2" font-family="Times New Roman,serif" font-size="11.00" fill="gray">logger</text>
</g>
<!-- \\classes\\entitiesManager\\UserEntityManager -->
<g id="node1" class="node"><title>\\classes\\entitiesManager\\UserEntityManager</title>
<polygon fill="none" stroke="black" points="561.994,-840 430.994,-840 430.994,-804 561.994,-804 561.994,-840"/>
<text text-anchor="middle" x="496.494" y="-819.2" font-family="Courier,monospace" font-size="11.00">UserEntityManager</text>
</g>
<!-- \\abstracts\\designPatterns\\EntityManager -->
<g id="node20" class="node"><title>\\abstracts\\designPatterns\\EntityManager</title>
<polygon fill="none" stroke="black" points="341.994,-846 237.994,-846 237.994,-810 341.994,-810 341.994,-846"/>
<text text-anchor="start" x="255.994" y="-831.2" font-family="Courier,monospace" font-size="11.00">«abstract»</text>
<text text-anchor="start" x="245.994" y="-819.2" font-family="Courier,monospace" font-size="11.00">EntityManager</text>
</g>
<!-- \\classes\\entitiesManager\\UserEntityManager&#45;&gt;\\abstracts\\designPatterns\\EntityManager -->
<g id="edge1" class="edge"><title>\\classes\\entitiesManager\\UserEntityManager&#45;&gt;\\abstracts\\designPatterns\\EntityManager</title>
<path fill="none" stroke="black" d="M430.789,-823.898C405.591,-824.638 376.862,-825.481 352.028,-826.209"/>
<polygon fill="none" stroke="black" points="351.897,-822.711 342.004,-826.503 352.103,-829.708 351.897,-822.711"/>
</g>
<!-- \\classes\\logger\\LoggerManager -->
<g id="node2" class="node"><title>\\classes\\logger\\LoggerManager</title>
<polygon fill="none" stroke="black" points="548.494,-1242 444.494,-1242 444.494,-1206 548.494,-1206 548.494,-1242"/>
<text text-anchor="middle" x="496.494" y="-1221.2" font-family="Courier,monospace" font-size="11.00">LoggerManager</text>
</g>
<!-- \\classes\\logger\\LogLevel -->
<g id="node3" class="node"><title>\\classes\\logger\\LogLevel</title>
<polygon fill="none" stroke="black" points="531.994,-1188 460.994,-1188 460.994,-1152 531.994,-1152 531.994,-1188"/>
<text text-anchor="middle" x="496.494" y="-1167.2" font-family="Courier,monospace" font-size="11.00">LogLevel</text>
</g>
<!-- \\classes\\logger\\ConsoleLogger -->
<g id="node4" class="node"><title>\\classes\\logger\\ConsoleLogger</title>
<polygon fill="none" stroke="black" points="548.494,-1080 444.494,-1080 444.494,-1044 548.494,-1044 548.494,-1080"/>
<text text-anchor="middle" x="496.494" y="-1059.2" font-family="Courier,monospace" font-size="11.00">ConsoleLogger</text>
</g>
<!-- \\interfaces\\logger\\LoggerInterface -->
<g id="node16" class="node"><title>\\interfaces\\logger\\LoggerInterface</title>
<polygon fill="none" stroke="black" points="150,-1075 32,-1075 32,-1039 150,-1039 150,-1075"/>
<text text-anchor="middle" x="91" y="-1054.2" font-family="Courier,monospace" font-size="11.00">LoggerInterface</text>
</g>
<!-- \\classes\\logger\\ConsoleLogger&#45;&gt;\\interfaces\\logger\\LoggerInterface -->
<g id="edge4" class="edge"><title>\\classes\\logger\\ConsoleLogger&#45;&gt;\\interfaces\\logger\\LoggerInterface</title>
<path fill="none" stroke="black" stroke-dasharray="1,5" d="M444.469,-1077.75C394.054,-1092.62 320.349,-1112.34 290.994,-1110"/>
<path fill="none" stroke="black" stroke-dasharray="1,5" d="M288.994,-1110C240.825,-1106.16 188.045,-1091.36 149.251,-1078.37"/>
<polygon fill="none" stroke="black" points="150.295,-1075.03 139.701,-1075.12 148.037,-1081.66 150.295,-1075.03"/>
</g>
<!-- \\abstracts\\logger\\AbstractLogger -->
<g id="node17" class="node"><title>\\abstracts\\logger\\AbstractLogger</title>
<polygon fill="none" stroke="black" points="345.494,-1034 234.494,-1034 234.494,-998 345.494,-998 345.494,-1034"/>
<text text-anchor="start" x="255.994" y="-1019.2" font-family="Courier,monospace" font-size="11.00">«abstract»</text>
<text text-anchor="start" x="242.494" y="-1007.2" font-family="Courier,monospace" font-size="11.00">AbstractLogger</text>
</g>
<!-- \\classes\\logger\\ConsoleLogger&#45;&gt;\\abstracts\\logger\\AbstractLogger -->
<g id="edge3" class="edge"><title>\\classes\\logger\\ConsoleLogger&#45;&gt;\\abstracts\\logger\\AbstractLogger</title>
<path fill="none" stroke="black" d="M444.417,-1050.51C417.537,-1044.46 384.3,-1036.99 355.642,-1030.54"/>
<polygon fill="none" stroke="black" points="356.238,-1027.09 345.714,-1028.31 354.702,-1033.92 356.238,-1027.09"/>
</g>
<!-- \\classes\\logger\\FileLogger -->
<g id="node5" class="node"><title>\\classes\\logger\\FileLogger</title>
<polygon fill="none" stroke="black" points="538.494,-1134 454.494,-1134 454.494,-1098 538.494,-1098 538.494,-1134"/>
<text text-anchor="middle" x="496.494" y="-1113.2" font-family="Courier,monospace" font-size="11.00">FileLogger</text>
</g>
<!-- \\classes\\logger\\FileLogger&#45;&gt;\\interfaces\\logger\\LoggerInterface -->
<g id="edge9" class="edge"><title>\\classes\\logger\\FileLogger&#45;&gt;\\interfaces\\logger\\LoggerInterface</title>
<path fill="none" stroke="black" stroke-dasharray="1,5" d="M454.3,-1116C412.954,-1115.72 347.467,-1114.5 290.994,-1110"/>
</g>
<!-- \\classes\\logger\\FileLogger&#45;&gt;\\abstracts\\logger\\AbstractLogger -->
<g id="edge8" class="edge"><title>\\classes\\logger\\FileLogger&#45;&gt;\\abstracts\\logger\\AbstractLogger</title>
<path fill="none" stroke="black" d="M454.469,-1105.38C439.967,-1101.04 423.73,-1095.5 409.494,-1089 379.476,-1075.3 347.765,-1055.44 324.708,-1039.9"/>
<polygon fill="none" stroke="black" points="326.55,-1036.92 316.317,-1034.17 322.605,-1042.7 326.55,-1036.92"/>
</g>
<!-- \\classes\\exception\\ExceptionManager -->
<g id="node6" class="node"><title>\\classes\\exception\\ExceptionManager</title>
<polygon fill="none" stroke="black" points="558.994,-760 433.994,-760 433.994,-724 558.994,-724 558.994,-760"/>
<text text-anchor="middle" x="496.494" y="-739.2" font-family="Courier,monospace" font-size="11.00">ExceptionManager</text>
</g>
<!-- \\Exception -->
<g id="node22" class="node"><title>\\Exception</title>
<ellipse fill="none" stroke="black" cx="289.994" cy="-180" rx="50.0912" ry="18"/>
<text text-anchor="middle" x="289.994" y="-176.3" font-family="Times New Roman,serif" font-size="14.00" fill="gray">\Exception</text>
</g>
<!-- \\classes\\exception\\ExceptionManager&#45;&gt;\\Exception -->
<g id="edge2" class="edge"><title>\\classes\\exception\\ExceptionManager&#45;&gt;\\Exception</title>
<path fill="none" stroke="black" d="M433.847,-729.246C424.687,-725.039 416.116,-719.442 409.494,-712 341.286,-635.347 303.6,-306.771 293.672,-208.116"/>
<polygon fill="none" stroke="black" points="297.141,-207.622 292.673,-198.015 290.175,-208.312 297.141,-207.622"/>
</g>
<!-- \\classes\\entities\\User -->
<g id="node7" class="node"><title>\\classes\\entities\\User</title>
<polygon fill="none" stroke="black" points="523.494,-920 469.494,-920 469.494,-884 523.494,-884 523.494,-920"/>
<text text-anchor="middle" x="496.494" y="-899.2" font-family="Courier,monospace" font-size="11.00">User</text>
</g>
<!-- \\abstracts\\designPatterns\\Entity -->
<g id="node19" class="node"><title>\\abstracts\\designPatterns\\Entity</title>
<polygon fill="none" stroke="black" points="331.994,-900 247.994,-900 247.994,-864 331.994,-864 331.994,-900"/>
<text text-anchor="start" x="255.994" y="-885.2" font-family="Courier,monospace" font-size="11.00">«abstract»</text>
<text text-anchor="start" x="269.494" y="-873.2" font-family="Courier,monospace" font-size="11.00">Entity</text>
</g>
<!-- \\classes\\entities\\User&#45;&gt;\\abstracts\\designPatterns\\Entity -->
<g id="edge5" class="edge"><title>\\classes\\entities\\User&#45;&gt;\\abstracts\\designPatterns\\Entity</title>
<path fill="none" stroke="black" d="M469.178,-899.426C437.223,-896.301 382.602,-890.959 342.238,-887.012"/>
<polygon fill="none" stroke="black" points="342.338,-883.505 332.045,-886.015 341.657,-890.472 342.338,-883.505"/>
</g>
<!-- \\classes\\entitiesCollection\\UserCollection -->
<g id="node8" class="node"><title>\\classes\\entitiesCollection\\UserCollection</title>
<polygon fill="none" stroke="black" points="551.994,-1000 440.994,-1000 440.994,-964 551.994,-964 551.994,-1000"/>
<text text-anchor="middle" x="496.494" y="-979.2" font-family="Courier,monospace" font-size="11.00">UserCollection</text>
</g>
<!-- \\abstracts\\designPatterns\\Collection -->
<g id="node18" class="node"><title>\\abstracts\\designPatterns\\Collection</title>
<polygon fill="none" stroke="black" points="331.994,-954 247.994,-954 247.994,-918 331.994,-918 331.994,-954"/>
<text text-anchor="start" x="255.994" y="-939.2" font-family="Courier,monospace" font-size="11.00">«abstract»</text>
<text text-anchor="start" x="255.994" y="-927.2" font-family="Courier,monospace" font-size="11.00">Collection</text>
</g>
<!-- \\classes\\entitiesCollection\\UserCollection&#45;&gt;\\abstracts\\designPatterns\\Collection -->
<g id="edge6" class="edge"><title>\\classes\\entitiesCollection\\UserCollection&#45;&gt;\\abstracts\\designPatterns\\Collection</title>
<path fill="none" stroke="black" d="M440.96,-969.733C410.238,-962.823 372.108,-954.246 341.985,-947.47"/>
<polygon fill="none" stroke="black" points="342.623,-944.026 332.098,-945.246 341.086,-950.855 342.623,-944.026"/>
</g>
<!-- \\classes\\ini\\IniManager -->
<g id="node9" class="node"><title>\\classes\\ini\\IniManager</title>
<polygon fill="none" stroke="black" points="538.494,-680 454.494,-680 454.494,-644 538.494,-644 538.494,-680"/>
<text text-anchor="middle" x="496.494" y="-659.2" font-family="Courier,monospace" font-size="11.00">IniManager</text>
</g>
<!-- \\classes\\console\\Console -->
<g id="node10" class="node"><title>\\classes\\console\\Console</title>
<polygon fill="none" stroke="black" points="528.494,-600 464.494,-600 464.494,-564 528.494,-564 528.494,-600"/>
<text text-anchor="middle" x="496.494" y="-579.2" font-family="Courier,monospace" font-size="11.00">Console</text>
</g>
<!-- \\classes\\console\\ConsoleColors -->
<g id="node11" class="node"><title>\\classes\\console\\ConsoleColors</title>
<polygon fill="none" stroke="black" points="548.494,-546 444.494,-546 444.494,-510 548.494,-510 548.494,-546"/>
<text text-anchor="middle" x="496.494" y="-525.2" font-family="Courier,monospace" font-size="11.00">ConsoleColors</text>
</g>
<!-- \\classes\\Benchmark -->
<g id="node12" class="node"><title>\\classes\\Benchmark</title>
<polygon fill="none" stroke="black" points="534.994,-492 457.994,-492 457.994,-456 534.994,-456 534.994,-492"/>
<text text-anchor="middle" x="496.494" y="-471.2" font-family="Courier,monospace" font-size="11.00">Benchmark</text>
</g>
<!-- \\classes\\DataBase -->
<g id="node13" class="node"><title>\\classes\\DataBase</title>
<polygon fill="none" stroke="black" points="531.994,-438 460.994,-438 460.994,-402 531.994,-402 531.994,-438"/>
<text text-anchor="middle" x="496.494" y="-417.2" font-family="Courier,monospace" font-size="11.00">DataBase</text>
</g>
<!-- \\traits\\FiltersTrait -->
<g id="node14" class="node"><title>\\traits\\FiltersTrait</title>
<polygon fill="none" stroke="black" points="545.494,-358 447.494,-358 447.494,-322 545.494,-322 545.494,-358"/>
<text text-anchor="middle" x="496.494" y="-337.2" font-family="Courier,monospace" font-size="11.00">FiltersTrait</text>
</g>
<!-- \\traits\\BeautifullIndentTrait -->
<g id="node15" class="node"><title>\\traits\\BeautifullIndentTrait</title>
<polygon fill="none" stroke="black" points="575.494,-304 417.494,-304 417.494,-268 575.494,-268 575.494,-304"/>
<text text-anchor="middle" x="496.494" y="-283.2" font-family="Courier,monospace" font-size="11.00">BeautifullIndentTrait</text>
</g>
<!-- \\abstracts\\logger\\AbstractLogger&#45;&gt;\\interfaces\\logger\\LoggerInterface -->
<g id="edge7" class="edge"><title>\\abstracts\\logger\\AbstractLogger&#45;&gt;\\interfaces\\logger\\LoggerInterface</title>
<path fill="none" stroke="black" stroke-dasharray="1,5" d="M234.382,-1027.37C211.364,-1032.16 184.327,-1037.78 160.033,-1042.84"/>
<polygon fill="none" stroke="black" points="159.242,-1039.43 150.165,-1044.89 160.668,-1046.28 159.242,-1039.43"/>
</g>
<!-- \\Iterator -->
<g id="node23" class="node"><title>\\Iterator</title>
<ellipse fill="none" stroke="black" cx="91" cy="-72" rx="39.7935" ry="18"/>
<text text-anchor="middle" x="91" y="-68.3" font-family="Times New Roman,serif" font-size="14.00" fill="gray">\Iterator</text>
</g>
<!-- \\abstracts\\designPatterns\\Collection&#45;&gt;\\Iterator -->
<g id="edge10" class="edge"><title>\\abstracts\\designPatterns\\Collection&#45;&gt;\\Iterator</title>
<path fill="none" stroke="black" stroke-dasharray="1,5" d="M247.701,-928.777C236.52,-924.79 225.567,-918.603 218.494,-909 111.515,-763.771 274.129,-243.375 166,-99 159.347,-90.1166 149.475,-84.1521 139.094,-80.1486"/>
<polygon fill="none" stroke="black" points="140.088,-76.7911 129.495,-76.9957 137.903,-83.4415 140.088,-76.7911"/>
</g>
<!-- \\ArrayAccess -->
<g id="node24" class="node"><title>\\ArrayAccess</title>
<ellipse fill="none" stroke="black" cx="91" cy="-18" rx="60.3893" ry="18"/>
<text text-anchor="middle" x="91" y="-14.3" font-family="Times New Roman,serif" font-size="14.00" fill="gray">\ArrayAccess</text>
</g>
<!-- \\abstracts\\designPatterns\\Collection&#45;&gt;\\ArrayAccess -->
<g id="edge11" class="edge"><title>\\abstracts\\designPatterns\\Collection&#45;&gt;\\ArrayAccess</title>
<path fill="none" stroke="black" stroke-dasharray="1,5" d="M247.677,-928.795C236.495,-924.809 225.548,-918.617 218.494,-909 104.724,-753.898 280.998,-199.193 166,-45 162.137,-39.8202 157.179,-35.6327 151.662,-32.2476"/>
<polygon fill="none" stroke="black" points="153.099,-29.0503 142.609,-27.5615 149.881,-35.2668 153.099,-29.0503"/>
</g>
<!-- \\Countable -->
<g id="node25" class="node"><title>\\Countable</title>
<ellipse fill="none" stroke="black" cx="91" cy="-180" rx="50.0912" ry="18"/>
<text text-anchor="middle" x="91" y="-176.3" font-family="Times New Roman,serif" font-size="14.00" fill="gray">\Countable</text>
</g>
<!-- \\abstracts\\designPatterns\\Collection&#45;&gt;\\Countable -->
<g id="edge12" class="edge"><title>\\abstracts\\designPatterns\\Collection&#45;&gt;\\Countable</title>
<path fill="none" stroke="black" stroke-dasharray="1,5" d="M247.961,-928.155C236.926,-924.151 225.988,-918.109 218.494,-909 127.682,-798.617 99.1646,-329.206 93.2631,-208.429"/>
<polygon fill="none" stroke="black" points="96.7458,-207.981 92.7753,-198.158 89.7537,-208.313 96.7458,-207.981"/>
</g>
<!-- \\SeekableIterator -->
<g id="node26" class="node"><title>\\SeekableIterator</title>
<ellipse fill="none" stroke="black" cx="91" cy="-126" rx="71.4873" ry="18"/>
<text text-anchor="middle" x="91" y="-122.3" font-family="Times New Roman,serif" font-size="14.00" fill="gray">\SeekableIterator</text>
</g>
<!-- \\abstracts\\designPatterns\\Collection&#45;&gt;\\SeekableIterator -->
<g id="edge13" class="edge"><title>\\abstracts\\designPatterns\\Collection&#45;&gt;\\SeekableIterator</title>
<path fill="none" stroke="black" stroke-dasharray="1,5" d="M247.728,-928.757C236.549,-924.769 225.589,-918.587 218.494,-909 118.304,-773.641 267.262,-287.559 166,-153 163.022,-149.042 159.405,-145.664 155.39,-142.781"/>
<polygon fill="none" stroke="black" points="157.039,-139.688 146.666,-137.529 153.429,-145.685 157.039,-139.688"/>
</g>
<!-- \\API -->
<g id="node21" class="node"><title>\\API</title>
<polygon fill="none" stroke="black" points="538.494,-250 454.494,-250 454.494,-214 538.494,-214 538.494,-250"/>
<text text-anchor="start" x="462.494" y="-235.2" font-family="Courier,monospace" font-size="11.00">«abstract»</text>
<text text-anchor="start" x="485.994" y="-223.2" font-family="Courier,monospace" font-size="11.00">API</text>
</g>
</g>
</svg>
