<?xml version="1.0" encoding="UTF-8" standalone="no"?>
<!DOCTYPE svg PUBLIC "-//W3C//DTD SVG 1.1//EN"
 "http://www.w3.org/Graphics/SVG/1.1/DTD/svg11.dtd">
<!-- Generated by graphviz version 2.38.0 (20140413.2041)
 -->
<!-- Title: G Pages: 1 -->
<svg width="607pt" height="1296pt"
 viewBox="0.00 0.00 607.49 1296.00" xmlns="http://www.w3.org/2000/svg" xmlns:xlink="http://www.w3.org/1999/xlink">
<g id="graph0" class="graph" transform="scale(1 1) rotate(0) translate(4 1292)">
<title>G</title>
<polygon fill="white" stroke="none" points="-4,4 -4,-1292 603.494,-1292 603.494,4 -4,4"/>
<g id="clust1" class="cluster"><title>cluster_Global</title>
<path fill="none" stroke="gray" d="M20,-206C20,-206 579.494,-206 579.494,-206 585.494,-206 591.494,-212 591.494,-218 591.494,-218 591.494,-1268 591.494,-1268 591.494,-1274 585.494,-1280 579.494,-1280 579.494,-1280 20,-1280 20,-1280 14,-1280 8,-1274 8,-1268 8,-1268 8,-218 8,-218 8,-212 14,-206 20,-206"/>
<text text-anchor="middle" x="299.747" y="-1267.2" font-family="Times New Roman,serif" font-size="11.00" fill="gray">Global</text>
</g>
<g id="clust11" class="cluster"><title>cluster_\interfaces</title>
<path fill="none" stroke="gray" d="M28,-834C28,-834 154,-834 154,-834 160,-834 166,-840 166,-846 166,-846 166,-930 166,-930 166,-936 160,-942 154,-942 154,-942 28,-942 28,-942 22,-942 16,-936 16,-930 16,-930 16,-846 16,-846 16,-840 22,-834 28,-834"/>
<text text-anchor="middle" x="91" y="-929.2" font-family="Times New Roman,serif" font-size="11.00" fill="gray">interfaces</text>
</g>
<g id="clust12" class="cluster"><title>cluster_\interfaces\logger</title>
<path fill="none" stroke="gray" d="M36,-842C36,-842 146,-842 146,-842 152,-842 158,-848 158,-854 158,-854 158,-902 158,-902 158,-908 152,-914 146,-914 146,-914 36,-914 36,-914 30,-914 24,-908 24,-902 24,-902 24,-854 24,-854 24,-848 30,-842 36,-842"/>
<text text-anchor="middle" x="91" y="-901.2" font-family="Times New Roman,serif" font-size="11.00" fill="gray">logger</text>
</g>
<g id="clust13" class="cluster"><title>cluster_\abstracts</title>
<path fill="none" stroke="gray" d="M230.494,-559C230.494,-559 349.494,-559 349.494,-559 355.494,-559 361.494,-565 361.494,-571 361.494,-571 361.494,-889 361.494,-889 361.494,-895 355.494,-901 349.494,-901 349.494,-901 230.494,-901 230.494,-901 224.494,-901 218.494,-895 218.494,-889 218.494,-889 218.494,-571 218.494,-571 218.494,-565 224.494,-559 230.494,-559"/>
<text text-anchor="middle" x="289.994" y="-888.2" font-family="Times New Roman,serif" font-size="11.00" fill="gray">abstracts</text>
</g>
<g id="clust15" class="cluster"><title>cluster_\abstracts\designPatterns</title>
<path fill="none" stroke="gray" d="M241.994,-613C241.994,-613 337.994,-613 337.994,-613 343.994,-613 349.994,-619 349.994,-625 349.994,-625 349.994,-781 349.994,-781 349.994,-787 343.994,-793 337.994,-793 337.994,-793 241.994,-793 241.994,-793 235.994,-793 229.994,-787 229.994,-781 229.994,-781 229.994,-625 229.994,-625 229.994,-619 235.994,-613 241.994,-613"/>
<text text-anchor="middle" x="289.994" y="-780.2" font-family="Times New Roman,serif" font-size="11.00" fill="gray">designPatterns</text>
</g>
<g id="clust14" class="cluster"><title>cluster_\abstracts\logger</title>
<path fill="none" stroke="gray" d="M238.494,-801C238.494,-801 341.494,-801 341.494,-801 347.494,-801 353.494,-807 353.494,-813 353.494,-813 353.494,-861 353.494,-861 353.494,-867 347.494,-873 341.494,-873 341.494,-873 238.494,-873 238.494,-873 232.494,-873 226.494,-867 226.494,-861 226.494,-861 226.494,-813 226.494,-813 226.494,-807 232.494,-801 238.494,-801"/>
<text text-anchor="middle" x="289.994" y="-860.2" font-family="Times New Roman,serif" font-size="11.00" fill="gray">logger</text>
</g>
<g id="clust2" class="cluster"><title>cluster_\classes</title>
<path fill="none" stroke="gray" d="M426.994,-348C426.994,-348 565.994,-348 565.994,-348 571.994,-348 577.994,-354 577.994,-360 577.994,-360 577.994,-1240 577.994,-1240 577.994,-1246 571.994,-1252 565.994,-1252 565.994,-1252 426.994,-1252 426.994,-1252 420.994,-1252 414.994,-1246 414.994,-1240 414.994,-1240 414.994,-360 414.994,-360 414.994,-354 420.994,-348 426.994,-348"/>
<text text-anchor="middle" x="496.494" y="-1239.2" font-family="Times New Roman,serif" font-size="11.00" fill="gray">classes</text>
</g>
<g id="clust8" class="cluster"><title>cluster_\classes\entitiesCollection</title>
<path fill="none" stroke="gray" d="M444.994,-1152C444.994,-1152 547.994,-1152 547.994,-1152 553.994,-1152 559.994,-1158 559.994,-1164 559.994,-1164 559.994,-1212 559.994,-1212 559.994,-1218 553.994,-1224 547.994,-1224 547.994,-1224 444.994,-1224 444.994,-1224 438.994,-1224 432.994,-1218 432.994,-1212 432.994,-1212 432.994,-1164 432.994,-1164 432.994,-1158 438.994,-1152 444.994,-1152"/>
<text text-anchor="middle" x="496.494" y="-1211.2" font-family="Times New Roman,serif" font-size="11.00" fill="gray">entitiesCollection</text>
</g>
<g id="clust9" class="cluster"><title>cluster_\classes\ini</title>
<path fill="none" stroke="gray" d="M458.494,-1072C458.494,-1072 534.494,-1072 534.494,-1072 540.494,-1072 546.494,-1078 546.494,-1084 546.494,-1084 546.494,-1132 546.494,-1132 546.494,-1138 540.494,-1144 534.494,-1144 534.494,-1144 458.494,-1144 458.494,-1144 452.494,-1144 446.494,-1138 446.494,-1132 446.494,-1132 446.494,-1084 446.494,-1084 446.494,-1078 452.494,-1072 458.494,-1072"/>
<text text-anchor="middle" x="496.494" y="-1131.2" font-family="Times New Roman,serif" font-size="11.00" fill="gray">ini</text>
</g>
<g id="clust7" class="cluster"><title>cluster_\classes\entities</title>
<path fill="none" stroke="gray" d="M473.494,-750C473.494,-750 519.494,-750 519.494,-750 525.494,-750 531.494,-756 531.494,-762 531.494,-762 531.494,-810 531.494,-810 531.494,-816 525.494,-822 519.494,-822 519.494,-822 473.494,-822 473.494,-822 467.494,-822 461.494,-816 461.494,-810 461.494,-810 461.494,-762 461.494,-762 461.494,-756 467.494,-750 473.494,-750"/>
<text text-anchor="middle" x="496.494" y="-809.2" font-family="Times New Roman,serif" font-size="11.00" fill="gray">entities</text>
</g>
<g id="clust3" class="cluster"><title>cluster_\classes\entitiesManager</title>
<path fill="none" stroke="gray" d="M434.994,-670C434.994,-670 557.994,-670 557.994,-670 563.994,-670 569.994,-676 569.994,-682 569.994,-682 569.994,-730 569.994,-730 569.994,-736 563.994,-742 557.994,-742 557.994,-742 434.994,-742 434.994,-742 428.994,-742 422.994,-736 422.994,-730 422.994,-730 422.994,-682 422.994,-682 422.994,-676 428.994,-670 434.994,-670"/>
<text text-anchor="middle" x="496.494" y="-729.2" font-family="Times New Roman,serif" font-size="11.00" fill="gray">entitiesManager</text>
</g>
<g id="clust4" class="cluster"><title>cluster_\classes\logger</title>
<path fill="none" stroke="gray" d="M448.494,-830C448.494,-830 544.494,-830 544.494,-830 550.494,-830 556.494,-836 556.494,-842 556.494,-842 556.494,-1052 556.494,-1052 556.494,-1058 550.494,-1064 544.494,-1064 544.494,-1064 448.494,-1064 448.494,-1064 442.494,-1064 436.494,-1058 436.494,-1052 436.494,-1052 436.494,-842 436.494,-842 436.494,-836 442.494,-830 448.494,-830"/>
<text text-anchor="middle" x="496.494" y="-1051.2" font-family="Times New Roman,serif" font-size="11.00" fill="gray">logger</text>
</g>
<g id="clust5" class="cluster"><title>cluster_\classes\exception</title>
<path fill="none" stroke="gray" d="M437.994,-590C437.994,-590 554.994,-590 554.994,-590 560.994,-590 566.994,-596 566.994,-602 566.994,-602 566.994,-650 566.994,-650 566.994,-656 560.994,-662 554.994,-662 554.994,-662 437.994,-662 437.994,-662 431.994,-662 425.994,-656 425.994,-650 425.994,-650 425.994,-602 425.994,-602 425.994,-596 431.994,-590 437.994,-590"/>
<text text-anchor="middle" x="496.494" y="-649.2" font-family="Times New Roman,serif" font-size="11.00" fill="gray">exception</text>
</g>
<g id="clust6" class="cluster"><title>cluster_\classes\console</title>
<path fill="none" stroke="gray" d="M448.494,-456C448.494,-456 544.494,-456 544.494,-456 550.494,-456 556.494,-462 556.494,-468 556.494,-468 556.494,-570 556.494,-570 556.494,-576 550.494,-582 544.494,-582 544.494,-582 448.494,-582 448.494,-582 442.494,-582 436.494,-576 436.494,-570 436.494,-570 436.494,-468 436.494,-468 436.494,-462 442.494,-456 448.494,-456"/>
<text text-anchor="middle" x="496.494" y="-569.2" font-family="Times New Roman,serif" font-size="11.00" fill="gray">console</text>
</g>
<g id="clust10" class="cluster"><title>cluster_\traits</title>
<path fill="none" stroke="gray" d="M421.494,-214C421.494,-214 571.494,-214 571.494,-214 577.494,-214 583.494,-220 583.494,-226 583.494,-226 583.494,-328 583.494,-328 583.494,-334 577.494,-340 571.494,-340 571.494,-340 421.494,-340 421.494,-340 415.494,-340 409.494,-334 409.494,-328 409.494,-328 409.494,-226 409.494,-226 409.494,-220 415.494,-214 421.494,-214"/>
<text text-anchor="middle" x="496.494" y="-327.2" font-family="Times New Roman,serif" font-size="11.00" fill="gray">traits</text>
</g>
<!-- \\classes\\entitiesManager\\UserEntityManager -->
<g id="node1" class="node"><title>\\classes\\entitiesManager\\UserEntityManager</title>
<polygon fill="none" stroke="black" points="561.994,-714 430.994,-714 430.994,-678 561.994,-678 561.994,-714"/>
<text text-anchor="middle" x="496.494" y="-693.2" font-family="Courier,monospace" font-size="11.00">UserEntityManager</text>
</g>
<!-- \\abstracts\\designPatterns\\EntityManager -->
<g id="node20" class="node"><title>\\abstracts\\designPatterns\\EntityManager</title>
<polygon fill="none" stroke="black" points="341.994,-657 237.994,-657 237.994,-621 341.994,-621 341.994,-657"/>
<text text-anchor="start" x="255.994" y="-642.2" font-family="Courier,monospace" font-size="11.00">«abstract»</text>
<text text-anchor="start" x="245.994" y="-630.2" font-family="Courier,monospace" font-size="11.00">EntityManager</text>
</g>
<!-- \\classes\\entitiesManager\\UserEntityManager&#45;&gt;\\abstracts\\designPatterns\\EntityManager -->
<g id="edge1" class="edge"><title>\\classes\\entitiesManager\\UserEntityManager&#45;&gt;\\abstracts\\designPatterns\\EntityManager</title>
<path fill="none" stroke="black" d="M430.789,-677.965C405.479,-670.91 376.606,-662.863 351.697,-655.92"/>
<polygon fill="none" stroke="black" points="352.577,-652.532 342.004,-653.218 350.697,-659.275 352.577,-652.532"/>
</g>
<!-- \\classes\\logger\\LoggerManager -->
<g id="node2" class="node"><title>\\classes\\logger\\LoggerManager</title>
<polygon fill="none" stroke="black" points="548.494,-1036 444.494,-1036 444.494,-1000 548.494,-1000 548.494,-1036"/>
<text text-anchor="middle" x="496.494" y="-1015.2" font-family="Courier,monospace" font-size="11.00">LoggerManager</text>
</g>
<!-- \\classes\\logger\\LogLevel -->
<g id="node3" class="node"><title>\\classes\\logger\\LogLevel</title>
<polygon fill="none" stroke="black" points="531.994,-982 460.994,-982 460.994,-946 531.994,-946 531.994,-982"/>
<text text-anchor="middle" x="496.494" y="-961.2" font-family="Courier,monospace" font-size="11.00">LogLevel</text>
</g>
<!-- \\classes\\logger\\ConsoleLogger -->
<g id="node4" class="node"><title>\\classes\\logger\\ConsoleLogger</title>
<polygon fill="none" stroke="black" points="548.494,-874 444.494,-874 444.494,-838 548.494,-838 548.494,-874"/>
<text text-anchor="middle" x="496.494" y="-853.2" font-family="Courier,monospace" font-size="11.00">ConsoleLogger</text>
</g>
<!-- \\interfaces\\logger\\LoggerInterface -->
<g id="node16" class="node"><title>\\interfaces\\logger\\LoggerInterface</title>
<polygon fill="none" stroke="black" points="150,-886 32,-886 32,-850 150,-850 150,-886"/>
<text text-anchor="middle" x="91" y="-865.2" font-family="Courier,monospace" font-size="11.00">LoggerInterface</text>
</g>
<!-- \\classes\\logger\\ConsoleLogger&#45;&gt;\\interfaces\\logger\\LoggerInterface -->
<g id="edge4" class="edge"><title>\\classes\\logger\\ConsoleLogger&#45;&gt;\\interfaces\\logger\\LoggerInterface</title>
<path fill="none" stroke="black" stroke-dasharray="1,5" d="M444.084,-871.259C388.671,-887.436 306.313,-910.598 290.994,-910"/>
<path fill="none" stroke="black" stroke-dasharray="1,5" d="M288.994,-910C245.531,-908.304 197.797,-898.341 160.204,-888.545"/>
<polygon fill="none" stroke="black" points="160.943,-885.12 150.379,-885.928 159.142,-891.884 160.943,-885.12"/>
</g>
<!-- \\abstracts\\logger\\AbstractLogger -->
<g id="node17" class="node"><title>\\abstracts\\logger\\AbstractLogger</title>
<polygon fill="none" stroke="black" points="345.494,-845 234.494,-845 234.494,-809 345.494,-809 345.494,-845"/>
<text text-anchor="start" x="255.994" y="-830.2" font-family="Courier,monospace" font-size="11.00">«abstract»</text>
<text text-anchor="start" x="242.494" y="-818.2" font-family="Courier,monospace" font-size="11.00">AbstractLogger</text>
</g>
<!-- \\classes\\logger\\ConsoleLogger&#45;&gt;\\abstracts\\logger\\AbstractLogger -->
<g id="edge3" class="edge"><title>\\classes\\logger\\ConsoleLogger&#45;&gt;\\abstracts\\logger\\AbstractLogger</title>
<path fill="none" stroke="black" d="M444.417,-848.757C417.537,-844.945 384.3,-840.232 355.642,-836.168"/>
<polygon fill="none" stroke="black" points="356.106,-832.699 345.714,-834.76 355.124,-839.629 356.106,-832.699"/>
</g>
<!-- \\classes\\logger\\FileLogger -->
<g id="node5" class="node"><title>\\classes\\logger\\FileLogger</title>
<polygon fill="none" stroke="black" points="538.494,-928 454.494,-928 454.494,-892 538.494,-892 538.494,-928"/>
<text text-anchor="middle" x="496.494" y="-907.2" font-family="Courier,monospace" font-size="11.00">FileLogger</text>
</g>
<!-- \\classes\\logger\\FileLogger&#45;&gt;\\interfaces\\logger\\LoggerInterface -->
<g id="edge9" class="edge"><title>\\classes\\logger\\FileLogger&#45;&gt;\\interfaces\\logger\\LoggerInterface</title>
<path fill="none" stroke="black" stroke-dasharray="1,5" d="M454.347,-910.941C413.038,-911.664 347.579,-912.208 290.994,-910"/>
</g>
<!-- \\classes\\logger\\FileLogger&#45;&gt;\\abstracts\\logger\\AbstractLogger -->
<g id="edge8" class="edge"><title>\\classes\\logger\\FileLogger&#45;&gt;\\abstracts\\logger\\AbstractLogger</title>
<path fill="none" stroke="black" d="M454.41,-898.358C440.052,-893.96 423.922,-888.643 409.494,-883 384.369,-873.173 357.099,-860.437 335.06,-849.594"/>
<polygon fill="none" stroke="black" points="336.47,-846.386 325.956,-845.077 333.359,-852.657 336.47,-846.386"/>
</g>
<!-- \\classes\\exception\\ExceptionManager -->
<g id="node6" class="node"><title>\\classes\\exception\\ExceptionManager</title>
<polygon fill="none" stroke="black" points="558.994,-634 433.994,-634 433.994,-598 558.994,-598 558.994,-634"/>
<text text-anchor="middle" x="496.494" y="-613.2" font-family="Courier,monospace" font-size="11.00">ExceptionManager</text>
</g>
<!-- \\Exception -->
<g id="node22" class="node"><title>\\Exception</title>
<ellipse fill="none" stroke="black" cx="289.994" cy="-180" rx="50.0912" ry="18"/>
<text text-anchor="middle" x="289.994" y="-176.3" font-family="Times New Roman,serif" font-size="14.00" fill="gray">\Exception</text>
</g>
<!-- \\classes\\exception\\ExceptionManager&#45;&gt;\\Exception -->
<g id="edge2" class="edge"><title>\\classes\\exception\\ExceptionManager&#45;&gt;\\Exception</title>
<path fill="none" stroke="black" d="M433.814,-602.675C424.77,-598.535 416.245,-593.109 409.494,-586 305.611,-476.608 292.146,-281.301 290.879,-208.44"/>
<polygon fill="none" stroke="black" points="294.376,-208.177 290.77,-198.215 287.377,-208.252 294.376,-208.177"/>
</g>
<!-- \\classes\\console\\Console -->
<g id="node7" class="node"><title>\\classes\\console\\Console</title>
<polygon fill="none" stroke="black" points="528.494,-554 464.494,-554 464.494,-518 528.494,-518 528.494,-554"/>
<text text-anchor="middle" x="496.494" y="-533.2" font-family="Courier,monospace" font-size="11.00">Console</text>
</g>
<!-- \\classes\\console\\ConsoleColors -->
<g id="node8" class="node"><title>\\classes\\console\\ConsoleColors</title>
<polygon fill="none" stroke="black" points="548.494,-500 444.494,-500 444.494,-464 548.494,-464 548.494,-500"/>
<text text-anchor="middle" x="496.494" y="-479.2" font-family="Courier,monospace" font-size="11.00">ConsoleColors</text>
</g>
<!-- \\classes\\entities\\User -->
<g id="node9" class="node"><title>\\classes\\entities\\User</title>
<polygon fill="none" stroke="black" points="523.494,-794 469.494,-794 469.494,-758 523.494,-758 523.494,-794"/>
<text text-anchor="middle" x="496.494" y="-773.2" font-family="Courier,monospace" font-size="11.00">User</text>
</g>
<!-- \\abstracts\\designPatterns\\Entity -->
<g id="node19" class="node"><title>\\abstracts\\designPatterns\\Entity</title>
<polygon fill="none" stroke="black" points="331.994,-711 247.994,-711 247.994,-675 331.994,-675 331.994,-711"/>
<text text-anchor="start" x="255.994" y="-696.2" font-family="Courier,monospace" font-size="11.00">«abstract»</text>
<text text-anchor="start" x="269.494" y="-684.2" font-family="Courier,monospace" font-size="11.00">Entity</text>
</g>
<!-- \\classes\\entities\\User&#45;&gt;\\abstracts\\designPatterns\\Entity -->
<g id="edge5" class="edge"><title>\\classes\\entities\\User&#45;&gt;\\abstracts\\designPatterns\\Entity</title>
<path fill="none" stroke="black" d="M469.486,-768.133C452.207,-762.615 429.165,-754.691 409.494,-746 387.301,-736.195 383.536,-730.138 361.494,-720 355.173,-717.093 348.443,-714.231 341.745,-711.52"/>
<polygon fill="none" stroke="black" points="342.592,-708.091 332.005,-707.668 340.018,-714.601 342.592,-708.091"/>
</g>
<!-- \\classes\\entitiesCollection\\UserCollection -->
<g id="node10" class="node"><title>\\classes\\entitiesCollection\\UserCollection</title>
<polygon fill="none" stroke="black" points="551.994,-1196 440.994,-1196 440.994,-1160 551.994,-1160 551.994,-1196"/>
<text text-anchor="middle" x="496.494" y="-1175.2" font-family="Courier,monospace" font-size="11.00">UserCollection</text>
</g>
<!-- \\abstracts\\designPatterns\\Collection -->
<g id="node18" class="node"><title>\\abstracts\\designPatterns\\Collection</title>
<polygon fill="none" stroke="black" points="331.994,-765 247.994,-765 247.994,-729 331.994,-729 331.994,-765"/>
<text text-anchor="start" x="255.994" y="-750.2" font-family="Courier,monospace" font-size="11.00">«abstract»</text>
<text text-anchor="start" x="255.994" y="-738.2" font-family="Courier,monospace" font-size="11.00">Collection</text>
</g>
<!-- \\classes\\entitiesCollection\\UserCollection&#45;&gt;\\abstracts\\designPatterns\\Collection -->
<g id="edge6" class="edge"><title>\\classes\\entitiesCollection\\UserCollection&#45;&gt;\\abstracts\\designPatterns\\Collection</title>
<path fill="none" stroke="black" d="M440.796,-1168.84C428.904,-1164.39 417.502,-1157.79 409.494,-1148 309.813,-1026.12 443.107,-931.649 361.494,-797 355.235,-786.674 345.945,-777.9 336.148,-770.721"/>
<polygon fill="none" stroke="black" points="338.089,-767.808 327.855,-765.068 334.146,-773.592 338.089,-767.808"/>
</g>
<!-- \\classes\\ini\\IniManager -->
<g id="node11" class="node"><title>\\classes\\ini\\IniManager</title>
<polygon fill="none" stroke="black" points="538.494,-1116 454.494,-1116 454.494,-1080 538.494,-1080 538.494,-1116"/>
<text text-anchor="middle" x="496.494" y="-1095.2" font-family="Courier,monospace" font-size="11.00">IniManager</text>
</g>
<!-- \\classes\\Benchmark -->
<g id="node12" class="node"><title>\\classes\\Benchmark</title>
<polygon fill="none" stroke="black" points="534.994,-446 457.994,-446 457.994,-410 534.994,-410 534.994,-446"/>
<text text-anchor="middle" x="496.494" y="-425.2" font-family="Courier,monospace" font-size="11.00">Benchmark</text>
</g>
<!-- \\classes\\DataBase -->
<g id="node13" class="node"><title>\\classes\\DataBase</title>
<polygon fill="none" stroke="black" points="531.994,-392 460.994,-392 460.994,-356 531.994,-356 531.994,-392"/>
<text text-anchor="middle" x="496.494" y="-371.2" font-family="Courier,monospace" font-size="11.00">DataBase</text>
</g>
<!-- \\traits\\FiltersTrait -->
<g id="node14" class="node"><title>\\traits\\FiltersTrait</title>
<polygon fill="none" stroke="black" points="545.494,-312 447.494,-312 447.494,-276 545.494,-276 545.494,-312"/>
<text text-anchor="middle" x="496.494" y="-291.2" font-family="Courier,monospace" font-size="11.00">FiltersTrait</text>
</g>
<!-- \\traits\\BeautifullIndentTrait -->
<g id="node15" class="node"><title>\\traits\\BeautifullIndentTrait</title>
<polygon fill="none" stroke="black" points="575.494,-258 417.494,-258 417.494,-222 575.494,-222 575.494,-258"/>
<text text-anchor="middle" x="496.494" y="-237.2" font-family="Courier,monospace" font-size="11.00">BeautifullIndentTrait</text>
</g>
<!-- \\abstracts\\logger\\AbstractLogger&#45;&gt;\\interfaces\\logger\\LoggerInterface -->
<g id="edge7" class="edge"><title>\\abstracts\\logger\\AbstractLogger&#45;&gt;\\interfaces\\logger\\LoggerInterface</title>
<path fill="none" stroke="black" stroke-dasharray="1,5" d="M234.382,-838.366C211.364,-843.157 184.327,-848.784 160.033,-853.84"/>
<polygon fill="none" stroke="black" points="159.242,-850.43 150.165,-855.894 160.668,-857.283 159.242,-850.43"/>
</g>
<!-- \\Iterator -->
<g id="node23" class="node"><title>\\Iterator</title>
<ellipse fill="none" stroke="black" cx="91" cy="-72" rx="39.7935" ry="18"/>
<text text-anchor="middle" x="91" y="-68.3" font-family="Times New Roman,serif" font-size="14.00" fill="gray">\Iterator</text>
</g>
<!-- \\abstracts\\designPatterns\\Collection&#45;&gt;\\Iterator -->
<g id="edge10" class="edge"><title>\\abstracts\\designPatterns\\Collection&#45;&gt;\\Iterator</title>
<path fill="none" stroke="black" stroke-dasharray="1,5" d="M247.818,-739.69C236.641,-735.7 225.661,-729.533 218.494,-720 135.267,-609.305 250.104,-209.03 166,-99 159.26,-90.1823 149.356,-84.2418 138.972,-80.2405"/>
<polygon fill="none" stroke="black" points="139.971,-76.8845 129.378,-77.084 137.783,-83.5339 139.971,-76.8845"/>
</g>
<!-- \\ArrayAccess -->
<g id="node24" class="node"><title>\\ArrayAccess</title>
<ellipse fill="none" stroke="black" cx="91" cy="-18" rx="60.3893" ry="18"/>
<text text-anchor="middle" x="91" y="-14.3" font-family="Times New Roman,serif" font-size="14.00" fill="gray">\ArrayAccess</text>
</g>
<!-- \\abstracts\\designPatterns\\Collection&#45;&gt;\\ArrayAccess -->
<g id="edge11" class="edge"><title>\\abstracts\\designPatterns\\Collection&#45;&gt;\\ArrayAccess</title>
<path fill="none" stroke="black" stroke-dasharray="1,5" d="M247.778,-739.72C236.6,-735.731 225.629,-729.557 218.494,-720 128.483,-599.442 256.965,-164.839 166,-45 162.093,-39.8531 157.108,-35.6863 151.575,-32.3132"/>
<polygon fill="none" stroke="black" points="152.998,-29.1093 142.506,-27.6391 149.791,-35.3315 152.998,-29.1093"/>
</g>
<!-- \\Countable -->
<g id="node25" class="node"><title>\\Countable</title>
<ellipse fill="none" stroke="black" cx="91" cy="-180" rx="50.0912" ry="18"/>
<text text-anchor="middle" x="91" y="-176.3" font-family="Times New Roman,serif" font-size="14.00" fill="gray">\Countable</text>
</g>
<!-- \\abstracts\\designPatterns\\Collection&#45;&gt;\\Countable -->
<g id="edge12" class="edge"><title>\\abstracts\\designPatterns\\Collection&#45;&gt;\\Countable</title>
<path fill="none" stroke="black" stroke-dasharray="1,5" d="M247.924,-738.741C237.022,-734.729 226.164,-728.788 218.494,-720 149.838,-641.337 106.726,-308.416 95.1504,-208.478"/>
<polygon fill="none" stroke="black" points="98.5941,-207.785 93.9819,-198.247 91.6394,-208.58 98.5941,-207.785"/>
</g>
<!-- \\SeekableIterator -->
<g id="node26" class="node"><title>\\SeekableIterator</title>
<ellipse fill="none" stroke="black" cx="91" cy="-126" rx="71.4873" ry="18"/>
<text text-anchor="middle" x="91" y="-122.3" font-family="Times New Roman,serif" font-size="14.00" fill="gray">\SeekableIterator</text>
</g>
<!-- \\abstracts\\designPatterns\\Collection&#45;&gt;\\SeekableIterator -->
<g id="edge13" class="edge"><title>\\abstracts\\designPatterns\\Collection&#45;&gt;\\SeekableIterator</title>
<path fill="none" stroke="black" stroke-dasharray="1,5" d="M247.865,-739.654C236.69,-735.663 225.699,-729.504 218.494,-720 65.5998,-518.328 320.491,-353.451 166,-153 162.976,-149.077 159.327,-145.723 155.29,-142.857"/>
<polygon fill="none" stroke="black" points="156.914,-139.75 146.533,-137.63 153.326,-145.761 156.914,-139.75"/>
</g>
<!-- \\abstracts\\API -->
<g id="node21" class="node"><title>\\abstracts\\API</title>
<polygon fill="none" stroke="black" points="331.994,-603 247.994,-603 247.994,-567 331.994,-567 331.994,-603"/>
<text text-anchor="start" x="255.994" y="-588.2" font-family="Courier,monospace" font-size="11.00">«abstract»</text>
<text text-anchor="start" x="279.494" y="-576.2" font-family="Courier,monospace" font-size="11.00">API</text>
</g>
</g>
</svg>
