<?xml version="1.0" encoding="UTF-8" standalone="no"?>
<!DOCTYPE svg PUBLIC "-//W3C//DTD SVG 1.1//EN"
 "http://www.w3.org/Graphics/SVG/1.1/DTD/svg11.dtd">
<!-- Generated by graphviz version 2.38.0 (20140413.2041)
 -->
<!-- Title: G Pages: 1 -->
<svg width="673pt" height="1622pt"
 viewBox="0.00 0.00 672.68 1622.00" xmlns="http://www.w3.org/2000/svg" xmlns:xlink="http://www.w3.org/1999/xlink">
<g id="graph0" class="graph" transform="scale(1 1) rotate(0) translate(4 1618)">
<title>G</title>
<polygon fill="white" stroke="none" points="-4,4 -4,-1618 668.682,-1618 668.682,4 -4,4"/>
<g id="clust1" class="cluster"><title>cluster_Global</title>
<path fill="none" stroke="gray" d="M20,-206C20,-206 644.682,-206 644.682,-206 650.682,-206 656.682,-212 656.682,-218 656.682,-218 656.682,-1594 656.682,-1594 656.682,-1600 650.682,-1606 644.682,-1606 644.682,-1606 20,-1606 20,-1606 14,-1606 8,-1600 8,-1594 8,-1594 8,-218 8,-218 8,-212 14,-206 20,-206"/>
<text text-anchor="middle" x="332.341" y="-1593.2" font-family="Times New Roman,serif" font-size="11.00" fill="gray">Global</text>
</g>
<g id="clust9" class="cluster"><title>cluster_\abstracts</title>
<path fill="none" stroke="gray" d="M238.088,-787C238.088,-787 350.088,-787 350.088,-787 356.088,-787 362.088,-793 362.088,-799 362.088,-799 362.088,-1081 362.088,-1081 362.088,-1087 356.088,-1093 350.088,-1093 350.088,-1093 238.088,-1093 238.088,-1093 232.088,-1093 226.088,-1087 226.088,-1081 226.088,-1081 226.088,-799 226.088,-799 226.088,-793 232.088,-787 238.088,-787"/>
<text text-anchor="middle" x="294.088" y="-1080.2" font-family="Times New Roman,serif" font-size="11.00" fill="gray">abstracts</text>
</g>
<g id="clust10" class="cluster"><title>cluster_\abstracts\designPatterns</title>
<path fill="none" stroke="gray" d="M246.088,-841C246.088,-841 342.088,-841 342.088,-841 348.088,-841 354.088,-847 354.088,-853 354.088,-853 354.088,-1009 354.088,-1009 354.088,-1015 348.088,-1021 342.088,-1021 342.088,-1021 246.088,-1021 246.088,-1021 240.088,-1021 234.088,-1015 234.088,-1009 234.088,-1009 234.088,-853 234.088,-853 234.088,-847 240.088,-841 246.088,-841"/>
<text text-anchor="middle" x="294.088" y="-1008.2" font-family="Times New Roman,serif" font-size="11.00" fill="gray">designPatterns</text>
</g>
<g id="clust11" class="cluster"><title>cluster_\interfaces</title>
<path fill="none" stroke="gray" d="M28,-1048C28,-1048 138,-1048 138,-1048 144,-1048 150,-1054 150,-1060 150,-1060 150,-1108 150,-1108 150,-1114 144,-1120 138,-1120 138,-1120 28,-1120 28,-1120 22,-1120 16,-1114 16,-1108 16,-1108 16,-1060 16,-1060 16,-1054 22,-1048 28,-1048"/>
<text text-anchor="middle" x="83" y="-1107.2" font-family="Times New Roman,serif" font-size="11.00" fill="gray">interfaces</text>
</g>
<g id="clust2" class="cluster"><title>cluster_\classes</title>
<path fill="none" stroke="gray" d="M429.682,-510C429.682,-510 636.682,-510 636.682,-510 642.682,-510 648.682,-516 648.682,-522 648.682,-522 648.682,-1566 648.682,-1566 648.682,-1572 642.682,-1578 636.682,-1578 636.682,-1578 429.682,-1578 429.682,-1578 423.682,-1578 417.682,-1572 417.682,-1566 417.682,-1566 417.682,-522 417.682,-522 417.682,-516 423.682,-510 429.682,-510"/>
<text text-anchor="middle" x="533.182" y="-1565.2" font-family="Times New Roman,serif" font-size="11.00" fill="gray">classes</text>
</g>
<g id="clust7" class="cluster"><title>cluster_\classes\entitiesCollection</title>
<path fill="none" stroke="gray" d="M481.682,-1478C481.682,-1478 584.682,-1478 584.682,-1478 590.682,-1478 596.682,-1484 596.682,-1490 596.682,-1490 596.682,-1538 596.682,-1538 596.682,-1544 590.682,-1550 584.682,-1550 584.682,-1550 481.682,-1550 481.682,-1550 475.682,-1550 469.682,-1544 469.682,-1538 469.682,-1538 469.682,-1490 469.682,-1490 469.682,-1484 475.682,-1478 481.682,-1478"/>
<text text-anchor="middle" x="533.182" y="-1537.2" font-family="Times New Roman,serif" font-size="11.00" fill="gray">entitiesCollection</text>
</g>
<g id="clust6" class="cluster"><title>cluster_\classes\entities</title>
<path fill="none" stroke="gray" d="M481.682,-1344C481.682,-1344 584.682,-1344 584.682,-1344 590.682,-1344 596.682,-1350 596.682,-1356 596.682,-1356 596.682,-1458 596.682,-1458 596.682,-1464 590.682,-1470 584.682,-1470 584.682,-1470 481.682,-1470 481.682,-1470 475.682,-1470 469.682,-1464 469.682,-1458 469.682,-1458 469.682,-1356 469.682,-1356 469.682,-1350 475.682,-1344 481.682,-1344"/>
<text text-anchor="middle" x="533.182" y="-1457.2" font-family="Times New Roman,serif" font-size="11.00" fill="gray">entities</text>
</g>
<g id="clust3" class="cluster"><title>cluster_\classes\entitiesManager</title>
<path fill="none" stroke="gray" d="M437.682,-1210C437.682,-1210 628.682,-1210 628.682,-1210 634.682,-1210 640.682,-1216 640.682,-1222 640.682,-1222 640.682,-1324 640.682,-1324 640.682,-1330 634.682,-1336 628.682,-1336 628.682,-1336 437.682,-1336 437.682,-1336 431.682,-1336 425.682,-1330 425.682,-1324 425.682,-1324 425.682,-1222 425.682,-1222 425.682,-1216 431.682,-1210 437.682,-1210"/>
<text text-anchor="middle" x="533.182" y="-1323.2" font-family="Times New Roman,serif" font-size="11.00" fill="gray">entitiesManager</text>
</g>
<g id="clust4" class="cluster"><title>cluster_\classes\logger</title>
<path fill="none" stroke="gray" d="M485.182,-1022C485.182,-1022 581.182,-1022 581.182,-1022 587.182,-1022 593.182,-1028 593.182,-1034 593.182,-1034 593.182,-1190 593.182,-1190 593.182,-1196 587.182,-1202 581.182,-1202 581.182,-1202 485.182,-1202 485.182,-1202 479.182,-1202 473.182,-1196 473.182,-1190 473.182,-1190 473.182,-1034 473.182,-1034 473.182,-1028 479.182,-1022 485.182,-1022"/>
<text text-anchor="middle" x="533.182" y="-1189.2" font-family="Times New Roman,serif" font-size="11.00" fill="gray">logger</text>
</g>
<g id="clust5" class="cluster"><title>cluster_\classes\console</title>
<path fill="none" stroke="gray" d="M485.182,-888C485.182,-888 581.182,-888 581.182,-888 587.182,-888 593.182,-894 593.182,-900 593.182,-900 593.182,-1002 593.182,-1002 593.182,-1008 587.182,-1014 581.182,-1014 581.182,-1014 485.182,-1014 485.182,-1014 479.182,-1014 473.182,-1008 473.182,-1002 473.182,-1002 473.182,-900 473.182,-900 473.182,-894 479.182,-888 485.182,-888"/>
<text text-anchor="middle" x="533.182" y="-1001.2" font-family="Times New Roman,serif" font-size="11.00" fill="gray">console</text>
</g>
<g id="clust8" class="cluster"><title>cluster_\traits</title>
<path fill="none" stroke="gray" d="M458.182,-214C458.182,-214 608.182,-214 608.182,-214 614.182,-214 620.182,-220 620.182,-226 620.182,-226 620.182,-490 620.182,-490 620.182,-496 614.182,-502 608.182,-502 608.182,-502 458.182,-502 458.182,-502 452.182,-502 446.182,-496 446.182,-490 446.182,-490 446.182,-226 446.182,-226 446.182,-220 452.182,-214 458.182,-214"/>
<text text-anchor="middle" x="533.182" y="-489.2" font-family="Times New Roman,serif" font-size="11.00" fill="gray">traits</text>
</g>
<!-- \\classes\\entitiesManager\\UserEntityManager -->
<g id="node1" class="node"><title>\\classes\\entitiesManager\\UserEntityManager</title>
<polygon fill="none" stroke="black" points="598.682,-1308 467.682,-1308 467.682,-1272 598.682,-1272 598.682,-1308"/>
<text text-anchor="middle" x="533.182" y="-1287.2" font-family="Courier,monospace" font-size="11.00">UserEntityManager</text>
</g>
<!-- \\abstracts\\designPatterns\\EntityManager -->
<g id="node25" class="node"><title>\\abstracts\\designPatterns\\EntityManager</title>
<polygon fill="none" stroke="black" points="346.088,-885 242.088,-885 242.088,-849 346.088,-849 346.088,-885"/>
<text text-anchor="start" x="260.088" y="-870.2" font-family="Courier,monospace" font-size="11.00">«abstract»</text>
<text text-anchor="start" x="250.088" y="-858.2" font-family="Courier,monospace" font-size="11.00">EntityManager</text>
</g>
<!-- \\classes\\entitiesManager\\UserEntityManager&#45;&gt;\\abstracts\\designPatterns\\EntityManager -->
<g id="edge1" class="edge"><title>\\classes\\entitiesManager\\UserEntityManager&#45;&gt;\\abstracts\\designPatterns\\EntityManager</title>
<path fill="none" stroke="black" d="M467.388,-1288.03C448.98,-1284.27 430.481,-1276.9 417.682,-1263 305.315,-1141.02 464.9,-1024.14 362.088,-894 359.883,-891.209 357.344,-888.706 354.573,-886.459"/>
<polygon fill="none" stroke="black" points="356.468,-883.516 346.231,-880.787 352.533,-889.304 356.468,-883.516"/>
</g>
<!-- \\classes\\entitiesManager\\UserStatisticsEntityManager -->
<g id="node2" class="node"><title>\\classes\\entitiesManager\\UserStatisticsEntityManager</title>
<polygon fill="none" stroke="black" points="632.682,-1254 433.682,-1254 433.682,-1218 632.682,-1218 632.682,-1254"/>
<text text-anchor="middle" x="533.182" y="-1233.2" font-family="Courier,monospace" font-size="11.00">UserStatisticsEntityManager</text>
</g>
<!-- \\classes\\entitiesManager\\UserStatisticsEntityManager&#45;&gt;\\abstracts\\designPatterns\\EntityManager -->
<g id="edge16" class="edge"><title>\\classes\\entitiesManager\\UserStatisticsEntityManager&#45;&gt;\\abstracts\\designPatterns\\EntityManager</title>
<path fill="none" stroke="black" d="M433.633,-1218.87C427.759,-1215.31 422.351,-1211.06 417.682,-1206 322.143,-1102.5 450.876,-1003.34 362.088,-894 359.846,-891.239 357.278,-888.759 354.485,-886.53"/>
<polygon fill="none" stroke="black" points="356.35,-883.566 346.098,-880.894 352.446,-889.377 356.35,-883.566"/>
</g>
<!-- \\classes\\logger\\LogLevel -->
<g id="node3" class="node"><title>\\classes\\logger\\LogLevel</title>
<polygon fill="none" stroke="black" points="568.682,-1174 497.682,-1174 497.682,-1138 568.682,-1138 568.682,-1174"/>
<text text-anchor="middle" x="533.182" y="-1153.2" font-family="Courier,monospace" font-size="11.00">LogLevel</text>
</g>
<!-- \\classes\\logger\\ConsoleLogger -->
<g id="node4" class="node"><title>\\classes\\logger\\ConsoleLogger</title>
<polygon fill="none" stroke="black" points="585.182,-1066 481.182,-1066 481.182,-1030 585.182,-1030 585.182,-1066"/>
<text text-anchor="middle" x="533.182" y="-1045.2" font-family="Courier,monospace" font-size="11.00">ConsoleLogger</text>
</g>
<!-- \\abstracts\\AbstractLogger -->
<g id="node26" class="node"><title>\\abstracts\\AbstractLogger</title>
<polygon fill="none" stroke="black" points="349.588,-1065 238.588,-1065 238.588,-1029 349.588,-1029 349.588,-1065"/>
<text text-anchor="start" x="260.088" y="-1050.2" font-family="Courier,monospace" font-size="11.00">«abstract»</text>
<text text-anchor="start" x="246.588" y="-1038.2" font-family="Courier,monospace" font-size="11.00">AbstractLogger</text>
</g>
<!-- \\classes\\logger\\ConsoleLogger&#45;&gt;\\abstracts\\AbstractLogger -->
<g id="edge4" class="edge"><title>\\classes\\logger\\ConsoleLogger&#45;&gt;\\abstracts\\AbstractLogger</title>
<path fill="none" stroke="black" d="M481.028,-1047.78C445.689,-1047.64 398.386,-1047.44 360.335,-1047.28"/>
<polygon fill="none" stroke="black" points="359.88,-1043.77 349.866,-1047.23 359.851,-1050.77 359.88,-1043.77"/>
</g>
<!-- \\interfaces\\LoggerInterface -->
<g id="node28" class="node"><title>\\interfaces\\LoggerInterface</title>
<polygon fill="none" stroke="black" points="142,-1092 24,-1092 24,-1056 142,-1056 142,-1092"/>
<text text-anchor="middle" x="83" y="-1071.2" font-family="Courier,monospace" font-size="11.00">LoggerInterface</text>
</g>
<!-- \\classes\\logger\\ConsoleLogger&#45;&gt;\\interfaces\\LoggerInterface -->
<g id="edge5" class="edge"><title>\\classes\\logger\\ConsoleLogger&#45;&gt;\\interfaces\\LoggerInterface</title>
<path fill="none" stroke="black" stroke-dasharray="1,5" d="M481.022,-1058.4C461.081,-1062.88 438.142,-1068.58 417.682,-1075 392.329,-1082.96 387.987,-1091.05 362.088,-1097 332.984,-1103.68 324.947,-1102.29 295.088,-1102"/>
<path fill="none" stroke="black" stroke-dasharray="1,5" d="M293.088,-1102C245.822,-1101.54 193.071,-1094.43 152.379,-1087.49"/>
<polygon fill="none" stroke="black" points="152.757,-1084 142.304,-1085.73 151.554,-1090.9 152.757,-1084"/>
</g>
<!-- \\classes\\logger\\FileLogger -->
<g id="node5" class="node"><title>\\classes\\logger\\FileLogger</title>
<polygon fill="none" stroke="black" points="575.182,-1120 491.182,-1120 491.182,-1084 575.182,-1084 575.182,-1120"/>
<text text-anchor="middle" x="533.182" y="-1099.2" font-family="Courier,monospace" font-size="11.00">FileLogger</text>
</g>
<!-- \\classes\\logger\\FileLogger&#45;&gt;\\abstracts\\AbstractLogger -->
<g id="edge10" class="edge"><title>\\classes\\logger\\FileLogger&#45;&gt;\\abstracts\\AbstractLogger</title>
<path fill="none" stroke="black" d="M491.154,-1092.48C454.957,-1084.09 401.59,-1071.71 359.669,-1061.98"/>
<polygon fill="none" stroke="black" points="360.354,-1058.55 349.822,-1059.7 358.772,-1065.37 360.354,-1058.55"/>
</g>
<!-- \\classes\\logger\\FileLogger&#45;&gt;\\interfaces\\LoggerInterface -->
<g id="edge11" class="edge"><title>\\classes\\logger\\FileLogger&#45;&gt;\\interfaces\\LoggerInterface</title>
<path fill="none" stroke="black" stroke-dasharray="1,5" d="M491.062,-1102.24C443.778,-1102.46 363.825,-1102.67 295.088,-1102"/>
</g>
<!-- \\classes\\console\\Console -->
<g id="node6" class="node"><title>\\classes\\console\\Console</title>
<polygon fill="none" stroke="black" points="565.182,-986 501.182,-986 501.182,-950 565.182,-950 565.182,-986"/>
<text text-anchor="middle" x="533.182" y="-965.2" font-family="Courier,monospace" font-size="11.00">Console</text>
</g>
<!-- \\classes\\console\\ConsoleColors -->
<g id="node7" class="node"><title>\\classes\\console\\ConsoleColors</title>
<polygon fill="none" stroke="black" points="585.182,-932 481.182,-932 481.182,-896 585.182,-896 585.182,-932"/>
<text text-anchor="middle" x="533.182" y="-911.2" font-family="Courier,monospace" font-size="11.00">ConsoleColors</text>
</g>
<!-- \\classes\\entities\\UserStatistics -->
<g id="node8" class="node"><title>\\classes\\entities\\UserStatistics</title>
<polygon fill="none" stroke="black" points="588.682,-1442 477.682,-1442 477.682,-1406 588.682,-1406 588.682,-1442"/>
<text text-anchor="middle" x="533.182" y="-1421.2" font-family="Courier,monospace" font-size="11.00">UserStatistics</text>
</g>
<!-- \\abstracts\\designPatterns\\Entity -->
<g id="node24" class="node"><title>\\abstracts\\designPatterns\\Entity</title>
<polygon fill="none" stroke="black" points="336.088,-939 252.088,-939 252.088,-903 336.088,-903 336.088,-939"/>
<text text-anchor="start" x="260.088" y="-924.2" font-family="Courier,monospace" font-size="11.00">«abstract»</text>
<text text-anchor="start" x="273.588" y="-912.2" font-family="Courier,monospace" font-size="11.00">Entity</text>
</g>
<!-- \\classes\\entities\\UserStatistics&#45;&gt;\\abstracts\\designPatterns\\Entity -->
<g id="edge3" class="edge"><title>\\classes\\entities\\UserStatistics&#45;&gt;\\abstracts\\designPatterns\\Entity</title>
<path fill="none" stroke="black" d="M477.574,-1423.99C455.934,-1421.06 432.684,-1413.72 417.682,-1397 283.408,-1247.32 484.65,-1107.41 362.088,-948 357.621,-942.19 351.702,-937.626 345.227,-934.041"/>
<polygon fill="none" stroke="black" points="346.672,-930.853 336.136,-929.735 343.676,-937.179 346.672,-930.853"/>
</g>
<!-- \\classes\\entities\\User -->
<g id="node9" class="node"><title>\\classes\\entities\\User</title>
<polygon fill="none" stroke="black" points="560.182,-1388 506.182,-1388 506.182,-1352 560.182,-1352 560.182,-1388"/>
<text text-anchor="middle" x="533.182" y="-1367.2" font-family="Courier,monospace" font-size="11.00">User</text>
</g>
<!-- \\classes\\entities\\User&#45;&gt;\\abstracts\\designPatterns\\Entity -->
<g id="edge6" class="edge"><title>\\classes\\entities\\User&#45;&gt;\\abstracts\\designPatterns\\Entity</title>
<path fill="none" stroke="black" d="M506.162,-1370.89C479.795,-1370.27 439.825,-1364.86 417.682,-1340 300.636,-1208.61 470.572,-1086.55 362.088,-948 357.724,-942.427 352.028,-937.999 345.799,-934.483"/>
<polygon fill="none" stroke="black" points="346.914,-931.135 336.386,-929.954 343.88,-937.443 346.914,-931.135"/>
</g>
<!-- \\classes\\entitiesCollection\\UserCollection -->
<g id="node10" class="node"><title>\\classes\\entitiesCollection\\UserCollection</title>
<polygon fill="none" stroke="black" points="588.682,-1522 477.682,-1522 477.682,-1486 588.682,-1486 588.682,-1522"/>
<text text-anchor="middle" x="533.182" y="-1501.2" font-family="Courier,monospace" font-size="11.00">UserCollection</text>
</g>
<!-- \\abstracts\\designPatterns\\Collection -->
<g id="node23" class="node"><title>\\abstracts\\designPatterns\\Collection</title>
<polygon fill="none" stroke="black" points="336.088,-993 252.088,-993 252.088,-957 336.088,-957 336.088,-993"/>
<text text-anchor="start" x="260.088" y="-978.2" font-family="Courier,monospace" font-size="11.00">«abstract»</text>
<text text-anchor="start" x="260.088" y="-966.2" font-family="Courier,monospace" font-size="11.00">Collection</text>
</g>
<!-- \\classes\\entitiesCollection\\UserCollection&#45;&gt;\\abstracts\\designPatterns\\Collection -->
<g id="edge8" class="edge"><title>\\classes\\entitiesCollection\\UserCollection&#45;&gt;\\abstracts\\designPatterns\\Collection</title>
<path fill="none" stroke="black" d="M477.401,-1502.51C455.731,-1499 432.506,-1491.06 417.682,-1474 277.704,-1312.88 497.086,-1162.32 362.088,-997 357.717,-991.648 352.018,-987.587 345.787,-984.507"/>
<polygon fill="none" stroke="black" points="346.953,-981.202 336.372,-980.661 344.306,-987.683 346.953,-981.202"/>
</g>
<!-- \\classes\\LoggerManager -->
<g id="node11" class="node"><title>\\classes\\LoggerManager</title>
<polygon fill="none" stroke="black" points="585.182,-878 481.182,-878 481.182,-842 585.182,-842 585.182,-878"/>
<text text-anchor="middle" x="533.182" y="-857.2" font-family="Courier,monospace" font-size="11.00">LoggerManager</text>
</g>
<!-- \\classes\\ExceptionManager -->
<g id="node12" class="node"><title>\\classes\\ExceptionManager</title>
<polygon fill="none" stroke="black" points="595.682,-824 470.682,-824 470.682,-788 595.682,-788 595.682,-824"/>
<text text-anchor="middle" x="533.182" y="-803.2" font-family="Courier,monospace" font-size="11.00">ExceptionManager</text>
</g>
<!-- \\Exception -->
<g id="node29" class="node"><title>\\Exception</title>
<ellipse fill="none" stroke="black" cx="294.088" cy="-180" rx="50.0912" ry="18"/>
<text text-anchor="middle" x="294.088" y="-176.3" font-family="Times New Roman,serif" font-size="14.00" fill="gray">\Exception</text>
</g>
<!-- \\classes\\ExceptionManager&#45;&gt;\\Exception -->
<g id="edge2" class="edge"><title>\\classes\\ExceptionManager&#45;&gt;\\Exception</title>
<path fill="none" stroke="black" d="M470.51,-804.142C451.261,-800.534 431.481,-793.215 417.682,-779 336.551,-695.423 304.426,-314.924 296.909,-208.014"/>
<polygon fill="none" stroke="black" points="300.397,-207.727 296.22,-197.991 293.414,-208.207 300.397,-207.727"/>
</g>
<!-- \\classes\\PDOStatementCustom -->
<g id="node13" class="node"><title>\\classes\\PDOStatementCustom</title>
<polygon fill="none" stroke="black" points="602.182,-770 464.182,-770 464.182,-734 602.182,-734 602.182,-770"/>
<text text-anchor="middle" x="533.182" y="-749.2" font-family="Courier,monospace" font-size="11.00">PDOStatementCustom</text>
</g>
<!-- \\PDOStatement -->
<g id="node30" class="node"><title>\\PDOStatement</title>
<ellipse fill="none" stroke="black" cx="294.088" cy="-126" rx="67.6881" ry="18"/>
<text text-anchor="middle" x="294.088" y="-122.3" font-family="Times New Roman,serif" font-size="14.00" fill="gray">\PDOStatement</text>
</g>
<!-- \\classes\\PDOStatementCustom&#45;&gt;\\PDOStatement -->
<g id="edge7" class="edge"><title>\\classes\\PDOStatementCustom&#45;&gt;\\PDOStatement</title>
<path fill="none" stroke="black" d="M463.948,-749.798C446.536,-745.871 429.439,-738.458 417.682,-725 333.659,-628.823 438.591,-255.26 362.088,-153 359.468,-149.498 356.318,-146.449 352.832,-143.795"/>
<polygon fill="none" stroke="black" points="354.493,-140.703 344.177,-138.29 350.736,-146.61 354.493,-140.703"/>
</g>
<!-- \\classes\\Benchmark -->
<g id="node14" class="node"><title>\\classes\\Benchmark</title>
<polygon fill="none" stroke="black" points="571.682,-716 494.682,-716 494.682,-680 571.682,-680 571.682,-716"/>
<text text-anchor="middle" x="533.182" y="-695.2" font-family="Courier,monospace" font-size="11.00">Benchmark</text>
</g>
<!-- \\classes\\DataBase -->
<g id="node15" class="node"><title>\\classes\\DataBase</title>
<polygon fill="none" stroke="black" points="568.682,-662 497.682,-662 497.682,-626 568.682,-626 568.682,-662"/>
<text text-anchor="middle" x="533.182" y="-641.2" font-family="Courier,monospace" font-size="11.00">DataBase</text>
</g>
<!-- \\classes\\IniManager -->
<g id="node16" class="node"><title>\\classes\\IniManager</title>
<polygon fill="none" stroke="black" points="575.182,-608 491.182,-608 491.182,-572 575.182,-572 575.182,-608"/>
<text text-anchor="middle" x="533.182" y="-587.2" font-family="Courier,monospace" font-size="11.00">IniManager</text>
</g>
<!-- \\classes\\ImagesManager -->
<g id="node17" class="node"><title>\\classes\\ImagesManager</title>
<polygon fill="none" stroke="black" points="585.182,-554 481.182,-554 481.182,-518 585.182,-518 585.182,-554"/>
<text text-anchor="middle" x="533.182" y="-533.2" font-family="Courier,monospace" font-size="11.00">ImagesManager</text>
</g>
<!-- \\traits\\FiltersTrait -->
<g id="node18" class="node"><title>\\traits\\FiltersTrait</title>
<polygon fill="none" stroke="black" points="582.182,-474 484.182,-474 484.182,-438 582.182,-438 582.182,-474"/>
<text text-anchor="middle" x="533.182" y="-453.2" font-family="Courier,monospace" font-size="11.00">FiltersTrait</text>
</g>
<!-- \\traits\\PrettyOutputTrait -->
<g id="node19" class="node"><title>\\traits\\PrettyOutputTrait</title>
<polygon fill="none" stroke="black" points="598.682,-420 467.682,-420 467.682,-384 598.682,-384 598.682,-420"/>
<text text-anchor="middle" x="533.182" y="-399.2" font-family="Courier,monospace" font-size="11.00">PrettyOutputTrait</text>
</g>
<!-- \\traits\\EchoTrait -->
<g id="node20" class="node"><title>\\traits\\EchoTrait</title>
<polygon fill="none" stroke="black" points="571.682,-366 494.682,-366 494.682,-330 571.682,-330 571.682,-366"/>
<text text-anchor="middle" x="533.182" y="-345.2" font-family="Courier,monospace" font-size="11.00">EchoTrait</text>
</g>
<!-- \\traits\\ShortcutsTrait -->
<g id="node21" class="node"><title>\\traits\\ShortcutsTrait</title>
<polygon fill="none" stroke="black" points="588.682,-312 477.682,-312 477.682,-276 588.682,-276 588.682,-312"/>
<text text-anchor="middle" x="533.182" y="-291.2" font-family="Courier,monospace" font-size="11.00">ShortcutsTrait</text>
</g>
<!-- \\traits\\BeautifullIndentTrait -->
<g id="node22" class="node"><title>\\traits\\BeautifullIndentTrait</title>
<polygon fill="none" stroke="black" points="612.182,-258 454.182,-258 454.182,-222 612.182,-222 612.182,-258"/>
<text text-anchor="middle" x="533.182" y="-237.2" font-family="Courier,monospace" font-size="11.00">BeautifullIndentTrait</text>
</g>
<!-- \\Iterator -->
<g id="node31" class="node"><title>\\Iterator</title>
<ellipse fill="none" stroke="black" cx="83" cy="-72" rx="39.7935" ry="18"/>
<text text-anchor="middle" x="83" y="-68.3" font-family="Times New Roman,serif" font-size="14.00" fill="gray">\Iterator</text>
</g>
<!-- \\abstracts\\designPatterns\\Collection&#45;&gt;\\Iterator -->
<g id="edge12" class="edge"><title>\\abstracts\\designPatterns\\Collection&#45;&gt;\\Iterator</title>
<path fill="none" stroke="black" stroke-dasharray="1,5" d="M251.816,-966.433C241.932,-962.434 232.419,-956.576 226.088,-948 113.637,-795.675 268.258,-250.347 154.494,-99 148.411,-90.9073 139.58,-85.2402 130.213,-81.2716"/>
<polygon fill="none" stroke="black" points="131.345,-77.9588 120.75,-77.8422 128.96,-84.54 131.345,-77.9588"/>
</g>
<!-- \\ArrayAccess -->
<g id="node32" class="node"><title>\\ArrayAccess</title>
<ellipse fill="none" stroke="black" cx="83" cy="-18" rx="60.3893" ry="18"/>
<text text-anchor="middle" x="83" y="-14.3" font-family="Times New Roman,serif" font-size="14.00" fill="gray">\ArrayAccess</text>
</g>
<!-- \\abstracts\\designPatterns\\Collection&#45;&gt;\\ArrayAccess -->
<g id="edge13" class="edge"><title>\\abstracts\\designPatterns\\Collection&#45;&gt;\\ArrayAccess</title>
<path fill="none" stroke="black" stroke-dasharray="1,5" d="M251.787,-966.454C241.903,-962.455 232.397,-956.592 226.088,-948 106.94,-785.753 275.041,-206.21 154.494,-45 151.06,-40.4082 146.741,-36.5972 141.94,-33.4344"/>
<polygon fill="none" stroke="black" points="143.308,-30.1914 132.864,-28.4126 139.919,-36.3164 143.308,-30.1914"/>
</g>
<!-- \\Countable -->
<g id="node33" class="node"><title>\\Countable</title>
<ellipse fill="none" stroke="black" cx="83" cy="-180" rx="50.0912" ry="18"/>
<text text-anchor="middle" x="83" y="-176.3" font-family="Times New Roman,serif" font-size="14.00" fill="gray">\Countable</text>
</g>
<!-- \\abstracts\\designPatterns\\Collection&#45;&gt;\\Countable -->
<g id="edge14" class="edge"><title>\\abstracts\\designPatterns\\Collection&#45;&gt;\\Countable</title>
<path fill="none" stroke="black" stroke-dasharray="1,5" d="M252.024,-965.858C242.261,-961.866 232.755,-956.156 226.088,-948 130.179,-830.683 93.4341,-332.815 85.651,-208.311"/>
<polygon fill="none" stroke="black" points="89.1292,-207.847 85.0246,-198.079 82.1423,-208.274 89.1292,-207.847"/>
</g>
<!-- \\SeekableIterator -->
<g id="node34" class="node"><title>\\SeekableIterator</title>
<ellipse fill="none" stroke="black" cx="83" cy="-126" rx="71.4873" ry="18"/>
<text text-anchor="middle" x="83" y="-122.3" font-family="Times New Roman,serif" font-size="14.00" fill="gray">\SeekableIterator</text>
</g>
<!-- \\abstracts\\designPatterns\\Collection&#45;&gt;\\SeekableIterator -->
<g id="edge15" class="edge"><title>\\abstracts\\designPatterns\\Collection&#45;&gt;\\SeekableIterator</title>
<path fill="none" stroke="black" stroke-dasharray="1,5" d="M251.849,-966.408C241.965,-962.41 232.443,-956.558 226.088,-948 120.332,-805.592 261.477,-294.488 154.494,-153 151.826,-149.472 148.636,-146.405 145.109,-143.739"/>
<polygon fill="none" stroke="black" points="146.677,-140.59 136.352,-138.216 142.943,-146.511 146.677,-140.59"/>
</g>
<!-- \\abstracts\\AbstractLogger&#45;&gt;\\interfaces\\LoggerInterface -->
<g id="edge9" class="edge"><title>\\abstracts\\AbstractLogger&#45;&gt;\\interfaces\\LoggerInterface</title>
<path fill="none" stroke="black" stroke-dasharray="1,5" d="M238.425,-1054.06C212.023,-1057.47 180.077,-1061.59 152.108,-1065.21"/>
<polygon fill="none" stroke="black" points="151.471,-1061.76 142.001,-1066.51 152.367,-1068.7 151.471,-1061.76"/>
</g>
<!-- \\abstracts\\API -->
<g id="node27" class="node"><title>\\abstracts\\API</title>
<polygon fill="none" stroke="black" points="336.088,-831 252.088,-831 252.088,-795 336.088,-795 336.088,-831"/>
<text text-anchor="start" x="260.088" y="-816.2" font-family="Courier,monospace" font-size="11.00">«abstract»</text>
<text text-anchor="start" x="283.588" y="-804.2" font-family="Courier,monospace" font-size="11.00">API</text>
</g>
</g>
</svg>
