<?xml version="1.0" encoding="UTF-8" standalone="no"?>
<!DOCTYPE svg PUBLIC "-//W3C//DTD SVG 1.1//EN"
 "http://www.w3.org/Graphics/SVG/1.1/DTD/svg11.dtd">
<!-- Generated by graphviz version 2.38.0 (20140413.2041)
 -->
<!-- Title: G Pages: 1 -->
<svg width="1115pt" height="1568pt"
 viewBox="0.00 0.00 1115.19 1568.00" xmlns="http://www.w3.org/2000/svg" xmlns:xlink="http://www.w3.org/1999/xlink">
<g id="graph0" class="graph" transform="scale(1 1) rotate(0) translate(4 1564)">
<title>G</title>
<polygon fill="white" stroke="none" points="-4,4 -4,-1564 1111.19,-1564 1111.19,4 -4,4"/>
<g id="clust1" class="cluster"><title>cluster_Global</title>
<path fill="none" stroke="gray" d="M20,-206C20,-206 1087.19,-206 1087.19,-206 1093.19,-206 1099.19,-212 1099.19,-218 1099.19,-218 1099.19,-1540 1099.19,-1540 1099.19,-1546 1093.19,-1552 1087.19,-1552 1087.19,-1552 20,-1552 20,-1552 14,-1552 8,-1546 8,-1540 8,-1540 8,-218 8,-218 8,-212 14,-206 20,-206"/>
<text text-anchor="middle" x="553.594" y="-1539.2" font-family="Times New Roman,serif" font-size="11.00" fill="gray">Global</text>
</g>
<g id="clust2" class="cluster"><title>cluster_\classes</title>
<path fill="none" stroke="gray" d="M872.188,-456C872.188,-456 1079.19,-456 1079.19,-456 1085.19,-456 1091.19,-462 1091.19,-468 1091.19,-468 1091.19,-1512 1091.19,-1512 1091.19,-1518 1085.19,-1524 1079.19,-1524 1079.19,-1524 872.188,-1524 872.188,-1524 866.188,-1524 860.188,-1518 860.188,-1512 860.188,-1512 860.188,-468 860.188,-468 860.188,-462 866.188,-456 872.188,-456"/>
<text text-anchor="middle" x="975.688" y="-1511.2" font-family="Times New Roman,serif" font-size="11.00" fill="gray">classes</text>
</g>
<g id="clust4" class="cluster"><title>cluster_\classes\logger</title>
<path fill="none" stroke="gray" d="M927.688,-1316C927.688,-1316 1023.69,-1316 1023.69,-1316 1029.69,-1316 1035.69,-1322 1035.69,-1328 1035.69,-1328 1035.69,-1484 1035.69,-1484 1035.69,-1490 1029.69,-1496 1023.69,-1496 1023.69,-1496 927.688,-1496 927.688,-1496 921.688,-1496 915.688,-1490 915.688,-1484 915.688,-1484 915.688,-1328 915.688,-1328 915.688,-1322 921.688,-1316 927.688,-1316"/>
<text text-anchor="middle" x="975.688" y="-1483.2" font-family="Times New Roman,serif" font-size="11.00" fill="gray">logger</text>
</g>
<g id="clust5" class="cluster"><title>cluster_\classes\console</title>
<path fill="none" stroke="gray" d="M927.688,-1182C927.688,-1182 1023.69,-1182 1023.69,-1182 1029.69,-1182 1035.69,-1188 1035.69,-1194 1035.69,-1194 1035.69,-1296 1035.69,-1296 1035.69,-1302 1029.69,-1308 1023.69,-1308 1023.69,-1308 927.688,-1308 927.688,-1308 921.688,-1308 915.688,-1302 915.688,-1296 915.688,-1296 915.688,-1194 915.688,-1194 915.688,-1188 921.688,-1182 927.688,-1182"/>
<text text-anchor="middle" x="975.688" y="-1295.2" font-family="Times New Roman,serif" font-size="11.00" fill="gray">console</text>
</g>
<g id="clust3" class="cluster"><title>cluster_\classes\entitiesManager</title>
<path fill="none" stroke="gray" d="M880.188,-1048C880.188,-1048 1071.19,-1048 1071.19,-1048 1077.19,-1048 1083.19,-1054 1083.19,-1060 1083.19,-1060 1083.19,-1162 1083.19,-1162 1083.19,-1168 1077.19,-1174 1071.19,-1174 1071.19,-1174 880.188,-1174 880.188,-1174 874.188,-1174 868.188,-1168 868.188,-1162 868.188,-1162 868.188,-1060 868.188,-1060 868.188,-1054 874.188,-1048 880.188,-1048"/>
<text text-anchor="middle" x="975.688" y="-1161.2" font-family="Times New Roman,serif" font-size="11.00" fill="gray">entitiesManager</text>
</g>
<g id="clust7" class="cluster"><title>cluster_\classes\entitiesCollection</title>
<path fill="none" stroke="gray" d="M924.188,-968C924.188,-968 1027.19,-968 1027.19,-968 1033.19,-968 1039.19,-974 1039.19,-980 1039.19,-980 1039.19,-1028 1039.19,-1028 1039.19,-1034 1033.19,-1040 1027.19,-1040 1027.19,-1040 924.188,-1040 924.188,-1040 918.188,-1040 912.188,-1034 912.188,-1028 912.188,-1028 912.188,-980 912.188,-980 912.188,-974 918.188,-968 924.188,-968"/>
<text text-anchor="middle" x="975.688" y="-1027.2" font-family="Times New Roman,serif" font-size="11.00" fill="gray">entitiesCollection</text>
</g>
<g id="clust6" class="cluster"><title>cluster_\classes\entities</title>
<path fill="none" stroke="gray" d="M924.188,-834C924.188,-834 1027.19,-834 1027.19,-834 1033.19,-834 1039.19,-840 1039.19,-846 1039.19,-846 1039.19,-948 1039.19,-948 1039.19,-954 1033.19,-960 1027.19,-960 1027.19,-960 924.188,-960 924.188,-960 918.188,-960 912.188,-954 912.188,-948 912.188,-948 912.188,-846 912.188,-846 912.188,-840 918.188,-834 924.188,-834"/>
<text text-anchor="middle" x="975.688" y="-947.2" font-family="Times New Roman,serif" font-size="11.00" fill="gray">entities</text>
</g>
<g id="clust8" class="cluster"><title>cluster_\traits</title>
<path fill="none" stroke="gray" d="M914.188,-214C914.188,-214 1037.19,-214 1037.19,-214 1043.19,-214 1049.19,-220 1049.19,-226 1049.19,-226 1049.19,-436 1049.19,-436 1049.19,-442 1043.19,-448 1037.19,-448 1037.19,-448 914.188,-448 914.188,-448 908.188,-448 902.188,-442 902.188,-436 902.188,-436 902.188,-226 902.188,-226 902.188,-220 908.188,-214 914.188,-214"/>
<text text-anchor="middle" x="975.688" y="-435.2" font-family="Times New Roman,serif" font-size="11.00" fill="gray">traits</text>
</g>
<g id="clust11" class="cluster"><title>cluster_\interfaces</title>
<path fill="none" stroke="gray" d="M28,-1151C28,-1151 601,-1151 601,-1151 607,-1151 613,-1157 613,-1163 613,-1163 613,-1455 613,-1455 613,-1461 607,-1467 601,-1467 601,-1467 28,-1467 28,-1467 22,-1467 16,-1461 16,-1455 16,-1455 16,-1163 16,-1163 16,-1157 22,-1151 28,-1151"/>
<text text-anchor="middle" x="314.5" y="-1454.2" font-family="Times New Roman,serif" font-size="11.00" fill="gray">interfaces</text>
</g>
<g id="clust12" class="cluster"><title>cluster_\interfaces\http</title>
<path fill="none" stroke="gray" d="M36,-1205C36,-1205 593,-1205 593,-1205 599,-1205 605,-1211 605,-1217 605,-1217 605,-1427 605,-1427 605,-1433 599,-1439 593,-1439 593,-1439 36,-1439 36,-1439 30,-1439 24,-1433 24,-1427 24,-1427 24,-1217 24,-1217 24,-1211 30,-1205 36,-1205"/>
<text text-anchor="middle" x="314.5" y="-1426.2" font-family="Times New Roman,serif" font-size="11.00" fill="gray">http</text>
</g>
<g id="clust9" class="cluster"><title>cluster_\abstracts</title>
<path fill="none" stroke="gray" d="M680.594,-847C680.594,-847 792.594,-847 792.594,-847 798.594,-847 804.594,-853 804.594,-859 804.594,-859 804.594,-1141 804.594,-1141 804.594,-1147 798.594,-1153 792.594,-1153 792.594,-1153 680.594,-1153 680.594,-1153 674.594,-1153 668.594,-1147 668.594,-1141 668.594,-1141 668.594,-859 668.594,-859 668.594,-853 674.594,-847 680.594,-847"/>
<text text-anchor="middle" x="736.594" y="-1140.2" font-family="Times New Roman,serif" font-size="11.00" fill="gray">abstracts</text>
</g>
<g id="clust10" class="cluster"><title>cluster_\abstracts\designPatterns</title>
<path fill="none" stroke="gray" d="M688.594,-901C688.594,-901 784.594,-901 784.594,-901 790.594,-901 796.594,-907 796.594,-913 796.594,-913 796.594,-1069 796.594,-1069 796.594,-1075 790.594,-1081 784.594,-1081 784.594,-1081 688.594,-1081 688.594,-1081 682.594,-1081 676.594,-1075 676.594,-1069 676.594,-1069 676.594,-913 676.594,-913 676.594,-907 682.594,-901 688.594,-901"/>
<text text-anchor="middle" x="736.594" y="-1068.2" font-family="Times New Roman,serif" font-size="11.00" fill="gray">designPatterns</text>
</g>
<!-- \\classes\\entitiesManager\\UserEntityManager -->
<g id="node1" class="node"><title>\\classes\\entitiesManager\\UserEntityManager</title>
<polygon fill="none" stroke="black" points="1041.19,-1146 910.188,-1146 910.188,-1110 1041.19,-1110 1041.19,-1146"/>
<text text-anchor="middle" x="975.688" y="-1125.2" font-family="Courier,monospace" font-size="11.00">UserEntityManager</text>
</g>
<!-- \\abstracts\\designPatterns\\EntityManager -->
<g id="node24" class="node"><title>\\abstracts\\designPatterns\\EntityManager</title>
<polygon fill="none" stroke="black" points="788.594,-1053 684.594,-1053 684.594,-1017 788.594,-1017 788.594,-1053"/>
<text text-anchor="start" x="702.594" y="-1038.2" font-family="Courier,monospace" font-size="11.00">«abstract»</text>
<text text-anchor="start" x="692.594" y="-1026.2" font-family="Courier,monospace" font-size="11.00">EntityManager</text>
</g>
<!-- \\classes\\entitiesManager\\UserEntityManager&#45;&gt;\\abstracts\\designPatterns\\EntityManager -->
<g id="edge1" class="edge"><title>\\classes\\entitiesManager\\UserEntityManager&#45;&gt;\\abstracts\\designPatterns\\EntityManager</title>
<path fill="none" stroke="black" d="M909.996,-1117.93C893.269,-1113.95 875.632,-1108.47 860.188,-1101 831.822,-1087.28 832.347,-1071.92 804.594,-1057 802.579,-1055.92 800.501,-1054.87 798.38,-1053.87"/>
<polygon fill="none" stroke="black" points="799.435,-1050.51 788.869,-1049.74 796.646,-1056.93 799.435,-1050.51"/>
</g>
<!-- \\classes\\entitiesManager\\UserStatisticsEntityManager -->
<g id="node2" class="node"><title>\\classes\\entitiesManager\\UserStatisticsEntityManager</title>
<polygon fill="none" stroke="black" points="1075.19,-1092 876.188,-1092 876.188,-1056 1075.19,-1056 1075.19,-1092"/>
<text text-anchor="middle" x="975.688" y="-1071.2" font-family="Courier,monospace" font-size="11.00">UserStatisticsEntityManager</text>
</g>
<!-- \\classes\\entitiesManager\\UserStatisticsEntityManager&#45;&gt;\\abstracts\\designPatterns\\EntityManager -->
<g id="edge16" class="edge"><title>\\classes\\entitiesManager\\UserStatisticsEntityManager&#45;&gt;\\abstracts\\designPatterns\\EntityManager</title>
<path fill="none" stroke="black" d="M875.856,-1057.74C849.734,-1053.45 822.299,-1048.93 798.817,-1045.07"/>
<polygon fill="none" stroke="black" points="799.104,-1041.57 788.668,-1043.4 797.968,-1048.48 799.104,-1041.57"/>
</g>
<!-- \\classes\\logger\\LogLevel -->
<g id="node3" class="node"><title>\\classes\\logger\\LogLevel</title>
<polygon fill="none" stroke="black" points="1011.19,-1468 940.188,-1468 940.188,-1432 1011.19,-1432 1011.19,-1468"/>
<text text-anchor="middle" x="975.688" y="-1447.2" font-family="Courier,monospace" font-size="11.00">LogLevel</text>
</g>
<!-- \\classes\\logger\\ConsoleLogger -->
<g id="node4" class="node"><title>\\classes\\logger\\ConsoleLogger</title>
<polygon fill="none" stroke="black" points="1027.69,-1360 923.688,-1360 923.688,-1324 1027.69,-1324 1027.69,-1360"/>
<text text-anchor="middle" x="975.688" y="-1339.2" font-family="Courier,monospace" font-size="11.00">ConsoleLogger</text>
</g>
<!-- \\abstracts\\AbstractLogger -->
<g id="node25" class="node"><title>\\abstracts\\AbstractLogger</title>
<polygon fill="none" stroke="black" points="792.094,-1125 681.094,-1125 681.094,-1089 792.094,-1089 792.094,-1125"/>
<text text-anchor="start" x="702.594" y="-1110.2" font-family="Courier,monospace" font-size="11.00">«abstract»</text>
<text text-anchor="start" x="689.094" y="-1098.2" font-family="Courier,monospace" font-size="11.00">AbstractLogger</text>
</g>
<!-- \\classes\\logger\\ConsoleLogger&#45;&gt;\\abstracts\\AbstractLogger -->
<g id="edge4" class="edge"><title>\\classes\\logger\\ConsoleLogger&#45;&gt;\\abstracts\\AbstractLogger</title>
<path fill="none" stroke="black" d="M923.655,-1337.21C902.378,-1333.15 878.429,-1325.7 860.188,-1312 798.812,-1265.92 762.103,-1179.31 746.475,-1134.87"/>
<polygon fill="none" stroke="black" points="749.748,-1133.62 743.205,-1125.29 743.123,-1135.88 749.748,-1133.62"/>
</g>
<!-- \\interfaces\\LoggerInterface -->
<g id="node34" class="node"><title>\\interfaces\\LoggerInterface</title>
<polygon fill="none" stroke="black" points="573.5,-1195 455.5,-1195 455.5,-1159 573.5,-1159 573.5,-1195"/>
<text text-anchor="middle" x="514.5" y="-1174.2" font-family="Courier,monospace" font-size="11.00">LoggerInterface</text>
</g>
<!-- \\classes\\logger\\ConsoleLogger&#45;&gt;\\interfaces\\LoggerInterface -->
<g id="edge5" class="edge"><title>\\classes\\logger\\ConsoleLogger&#45;&gt;\\interfaces\\LoggerInterface</title>
<path fill="none" stroke="black" stroke-dasharray="1,5" d="M923.567,-1353.25C864.32,-1365.35 770.595,-1381.29 737.594,-1369"/>
<path fill="none" stroke="black" stroke-dasharray="1,5" d="M735.594,-1369C648.97,-1336.75 689.761,-1252.49 613,-1201 604.078,-1195.01 593.8,-1190.52 583.337,-1187.15"/>
<polygon fill="none" stroke="black" points="584.289,-1183.78 573.71,-1184.35 582.337,-1190.5 584.289,-1183.78"/>
</g>
<!-- \\classes\\logger\\FileLogger -->
<g id="node5" class="node"><title>\\classes\\logger\\FileLogger</title>
<polygon fill="none" stroke="black" points="1017.69,-1414 933.688,-1414 933.688,-1378 1017.69,-1378 1017.69,-1414"/>
<text text-anchor="middle" x="975.688" y="-1393.2" font-family="Courier,monospace" font-size="11.00">FileLogger</text>
</g>
<!-- \\classes\\logger\\FileLogger&#45;&gt;\\abstracts\\AbstractLogger -->
<g id="edge10" class="edge"><title>\\classes\\logger\\FileLogger&#45;&gt;\\abstracts\\AbstractLogger</title>
<path fill="none" stroke="black" d="M933.48,-1394.96C909.774,-1392.39 880.714,-1385.68 860.188,-1369 784.736,-1307.69 753.293,-1189.28 742.446,-1135.19"/>
<polygon fill="none" stroke="black" points="745.864,-1134.43 740.545,-1125.26 738.989,-1135.74 745.864,-1134.43"/>
</g>
<!-- \\classes\\logger\\FileLogger&#45;&gt;\\interfaces\\LoggerInterface -->
<g id="edge11" class="edge"><title>\\classes\\logger\\FileLogger&#45;&gt;\\interfaces\\LoggerInterface</title>
<path fill="none" stroke="black" stroke-dasharray="1,5" d="M933.455,-1397.23C885.031,-1397.35 803.013,-1393.36 737.594,-1369"/>
</g>
<!-- \\classes\\console\\Console -->
<g id="node6" class="node"><title>\\classes\\console\\Console</title>
<polygon fill="none" stroke="black" points="1007.69,-1280 943.688,-1280 943.688,-1244 1007.69,-1244 1007.69,-1280"/>
<text text-anchor="middle" x="975.688" y="-1259.2" font-family="Courier,monospace" font-size="11.00">Console</text>
</g>
<!-- \\classes\\console\\ConsoleColors -->
<g id="node7" class="node"><title>\\classes\\console\\ConsoleColors</title>
<polygon fill="none" stroke="black" points="1027.69,-1226 923.688,-1226 923.688,-1190 1027.69,-1190 1027.69,-1226"/>
<text text-anchor="middle" x="975.688" y="-1205.2" font-family="Courier,monospace" font-size="11.00">ConsoleColors</text>
</g>
<!-- \\classes\\entities\\UserStatistics -->
<g id="node8" class="node"><title>\\classes\\entities\\UserStatistics</title>
<polygon fill="none" stroke="black" points="1031.19,-932 920.188,-932 920.188,-896 1031.19,-896 1031.19,-932"/>
<text text-anchor="middle" x="975.688" y="-911.2" font-family="Courier,monospace" font-size="11.00">UserStatistics</text>
</g>
<!-- \\abstracts\\designPatterns\\Entity -->
<g id="node23" class="node"><title>\\abstracts\\designPatterns\\Entity</title>
<polygon fill="none" stroke="black" points="778.594,-945 694.594,-945 694.594,-909 778.594,-909 778.594,-945"/>
<text text-anchor="start" x="702.594" y="-930.2" font-family="Courier,monospace" font-size="11.00">«abstract»</text>
<text text-anchor="start" x="716.094" y="-918.2" font-family="Courier,monospace" font-size="11.00">Entity</text>
</g>
<!-- \\classes\\entities\\UserStatistics&#45;&gt;\\abstracts\\designPatterns\\Entity -->
<g id="edge3" class="edge"><title>\\classes\\entities\\UserStatistics&#45;&gt;\\abstracts\\designPatterns\\Entity</title>
<path fill="none" stroke="black" d="M919.996,-916.999C880.451,-919.167 827.395,-922.076 788.701,-924.198"/>
<polygon fill="none" stroke="black" points="788.486,-920.704 778.692,-924.747 788.869,-927.694 788.486,-920.704"/>
</g>
<!-- \\classes\\entities\\User -->
<g id="node9" class="node"><title>\\classes\\entities\\User</title>
<polygon fill="none" stroke="black" points="1002.69,-878 948.688,-878 948.688,-842 1002.69,-842 1002.69,-878"/>
<text text-anchor="middle" x="975.688" y="-857.2" font-family="Courier,monospace" font-size="11.00">User</text>
</g>
<!-- \\classes\\entities\\User&#45;&gt;\\abstracts\\designPatterns\\Entity -->
<g id="edge6" class="edge"><title>\\classes\\entities\\User&#45;&gt;\\abstracts\\designPatterns\\Entity</title>
<path fill="none" stroke="black" d="M948.609,-865.497C925.297,-870.564 890.275,-878.56 860.188,-887 856.44,-888.051 820.566,-899.771 788.586,-910.255"/>
<polygon fill="none" stroke="black" points="787.238,-907.014 778.827,-913.455 789.42,-913.665 787.238,-907.014"/>
</g>
<!-- \\classes\\entitiesCollection\\UserCollection -->
<g id="node10" class="node"><title>\\classes\\entitiesCollection\\UserCollection</title>
<polygon fill="none" stroke="black" points="1031.19,-1012 920.188,-1012 920.188,-976 1031.19,-976 1031.19,-1012"/>
<text text-anchor="middle" x="975.688" y="-991.2" font-family="Courier,monospace" font-size="11.00">UserCollection</text>
</g>
<!-- \\abstracts\\designPatterns\\Collection -->
<g id="node22" class="node"><title>\\abstracts\\designPatterns\\Collection</title>
<polygon fill="none" stroke="black" points="778.594,-999 694.594,-999 694.594,-963 778.594,-963 778.594,-999"/>
<text text-anchor="start" x="702.594" y="-984.2" font-family="Courier,monospace" font-size="11.00">«abstract»</text>
<text text-anchor="start" x="702.594" y="-972.2" font-family="Courier,monospace" font-size="11.00">Collection</text>
</g>
<!-- \\classes\\entitiesCollection\\UserCollection&#45;&gt;\\abstracts\\designPatterns\\Collection -->
<g id="edge8" class="edge"><title>\\classes\\entitiesCollection\\UserCollection&#45;&gt;\\abstracts\\designPatterns\\Collection</title>
<path fill="none" stroke="black" d="M919.996,-991.001C880.451,-988.833 827.395,-985.924 788.701,-983.802"/>
<polygon fill="none" stroke="black" points="788.869,-980.306 778.692,-983.253 788.486,-987.296 788.869,-980.306"/>
</g>
<!-- \\classes\\LoggerManager -->
<g id="node11" class="node"><title>\\classes\\LoggerManager</title>
<polygon fill="none" stroke="black" points="1027.69,-824 923.688,-824 923.688,-788 1027.69,-788 1027.69,-824"/>
<text text-anchor="middle" x="975.688" y="-803.2" font-family="Courier,monospace" font-size="11.00">LoggerManager</text>
</g>
<!-- \\classes\\ExceptionManager -->
<g id="node12" class="node"><title>\\classes\\ExceptionManager</title>
<polygon fill="none" stroke="black" points="1038.19,-770 913.188,-770 913.188,-734 1038.19,-734 1038.19,-770"/>
<text text-anchor="middle" x="975.688" y="-749.2" font-family="Courier,monospace" font-size="11.00">ExceptionManager</text>
</g>
<!-- \\Exception -->
<g id="node35" class="node"><title>\\Exception</title>
<ellipse fill="none" stroke="black" cx="736.594" cy="-180" rx="50.0912" ry="18"/>
<text text-anchor="middle" x="736.594" y="-176.3" font-family="Times New Roman,serif" font-size="14.00" fill="gray">\Exception</text>
</g>
<!-- \\classes\\ExceptionManager&#45;&gt;\\Exception -->
<g id="edge2" class="edge"><title>\\classes\\ExceptionManager&#45;&gt;\\Exception</title>
<path fill="none" stroke="black" d="M913.175,-749.987C893.938,-746.367 874.124,-739.081 860.188,-725 785.972,-650.014 749.355,-308.826 740.035,-208.085"/>
<polygon fill="none" stroke="black" points="743.514,-207.698 739.124,-198.055 736.543,-208.331 743.514,-207.698"/>
</g>
<!-- \\classes\\PDOStatementCustom -->
<g id="node13" class="node"><title>\\classes\\PDOStatementCustom</title>
<polygon fill="none" stroke="black" points="1044.69,-716 906.688,-716 906.688,-680 1044.69,-680 1044.69,-716"/>
<text text-anchor="middle" x="975.688" y="-695.2" font-family="Courier,monospace" font-size="11.00">PDOStatementCustom</text>
</g>
<!-- \\PDOStatement -->
<g id="node36" class="node"><title>\\PDOStatement</title>
<ellipse fill="none" stroke="black" cx="736.594" cy="-126" rx="67.6881" ry="18"/>
<text text-anchor="middle" x="736.594" y="-122.3" font-family="Times New Roman,serif" font-size="14.00" fill="gray">\PDOStatement</text>
</g>
<!-- \\classes\\PDOStatementCustom&#45;&gt;\\PDOStatement -->
<g id="edge7" class="edge"><title>\\classes\\PDOStatementCustom&#45;&gt;\\PDOStatement</title>
<path fill="none" stroke="black" d="M906.542,-695.721C889.131,-691.793 872.013,-684.399 860.188,-671 706.978,-497.393 944.226,-337.704 804.594,-153 801.956,-149.511 798.794,-146.472 795.299,-143.824"/>
<polygon fill="none" stroke="black" points="796.95,-140.727 786.63,-138.33 793.203,-146.639 796.95,-140.727"/>
</g>
<!-- \\classes\\Benchmark -->
<g id="node14" class="node"><title>\\classes\\Benchmark</title>
<polygon fill="none" stroke="black" points="1014.19,-662 937.188,-662 937.188,-626 1014.19,-626 1014.19,-662"/>
<text text-anchor="middle" x="975.688" y="-641.2" font-family="Courier,monospace" font-size="11.00">Benchmark</text>
</g>
<!-- \\classes\\DataBase -->
<g id="node15" class="node"><title>\\classes\\DataBase</title>
<polygon fill="none" stroke="black" points="1011.19,-608 940.188,-608 940.188,-572 1011.19,-572 1011.19,-608"/>
<text text-anchor="middle" x="975.688" y="-587.2" font-family="Courier,monospace" font-size="11.00">DataBase</text>
</g>
<!-- \\classes\\IniManager -->
<g id="node16" class="node"><title>\\classes\\IniManager</title>
<polygon fill="none" stroke="black" points="1017.69,-554 933.688,-554 933.688,-518 1017.69,-518 1017.69,-554"/>
<text text-anchor="middle" x="975.688" y="-533.2" font-family="Courier,monospace" font-size="11.00">IniManager</text>
</g>
<!-- \\classes\\ImagesManager -->
<g id="node17" class="node"><title>\\classes\\ImagesManager</title>
<polygon fill="none" stroke="black" points="1027.69,-500 923.688,-500 923.688,-464 1027.69,-464 1027.69,-500"/>
<text text-anchor="middle" x="975.688" y="-479.2" font-family="Courier,monospace" font-size="11.00">ImagesManager</text>
</g>
<!-- \\traits\\FiltersTrait -->
<g id="node18" class="node"><title>\\traits\\FiltersTrait</title>
<polygon fill="none" stroke="black" points="1024.69,-420 926.688,-420 926.688,-384 1024.69,-384 1024.69,-420"/>
<text text-anchor="middle" x="975.688" y="-399.2" font-family="Courier,monospace" font-size="11.00">FiltersTrait</text>
</g>
<!-- \\traits\\PrettyOutputTrait -->
<g id="node19" class="node"><title>\\traits\\PrettyOutputTrait</title>
<polygon fill="none" stroke="black" points="1041.19,-366 910.188,-366 910.188,-330 1041.19,-330 1041.19,-366"/>
<text text-anchor="middle" x="975.688" y="-345.2" font-family="Courier,monospace" font-size="11.00">PrettyOutputTrait</text>
</g>
<!-- \\traits\\EchoTrait -->
<g id="node20" class="node"><title>\\traits\\EchoTrait</title>
<polygon fill="none" stroke="black" points="1014.19,-312 937.188,-312 937.188,-276 1014.19,-276 1014.19,-312"/>
<text text-anchor="middle" x="975.688" y="-291.2" font-family="Courier,monospace" font-size="11.00">EchoTrait</text>
</g>
<!-- \\traits\\ShortcutsTrait -->
<g id="node21" class="node"><title>\\traits\\ShortcutsTrait</title>
<polygon fill="none" stroke="black" points="1031.19,-258 920.188,-258 920.188,-222 1031.19,-222 1031.19,-258"/>
<text text-anchor="middle" x="975.688" y="-237.2" font-family="Courier,monospace" font-size="11.00">ShortcutsTrait</text>
</g>
<!-- \\Iterator -->
<g id="node37" class="node"><title>\\Iterator</title>
<ellipse fill="none" stroke="black" cx="514.5" cy="-72" rx="39.7935" ry="18"/>
<text text-anchor="middle" x="514.5" y="-68.3" font-family="Times New Roman,serif" font-size="14.00" fill="gray">\Iterator</text>
</g>
<!-- \\abstracts\\designPatterns\\Collection&#45;&gt;\\Iterator -->
<g id="edge12" class="edge"><title>\\abstracts\\designPatterns\\Collection&#45;&gt;\\Iterator</title>
<path fill="none" stroke="black" stroke-dasharray="1,5" d="M694.561,-972.654C684.552,-968.652 674.916,-962.738 668.594,-954 556.986,-799.739 733.135,-246.717 613,-99 601.327,-84.6474 582.755,-77.5346 564.936,-74.1338"/>
<polygon fill="none" stroke="black" points="565.007,-70.6033 554.59,-72.5337 563.938,-77.521 565.007,-70.6033"/>
</g>
<!-- \\ArrayAccess -->
<g id="node38" class="node"><title>\\ArrayAccess</title>
<ellipse fill="none" stroke="black" cx="514.5" cy="-18" rx="60.3893" ry="18"/>
<text text-anchor="middle" x="514.5" y="-14.3" font-family="Times New Roman,serif" font-size="14.00" fill="gray">\ArrayAccess</text>
</g>
<!-- \\abstracts\\designPatterns\\Collection&#45;&gt;\\ArrayAccess -->
<g id="edge13" class="edge"><title>\\abstracts\\designPatterns\\Collection&#45;&gt;\\ArrayAccess</title>
<path fill="none" stroke="black" stroke-dasharray="1,5" d="M694.539,-972.67C684.529,-968.668 674.899,-962.75 668.594,-954 550.282,-789.809 740.389,-202.253 613,-45 605.356,-35.5638 594.729,-29.2552 583.288,-25.0731"/>
<polygon fill="none" stroke="black" points="584.122,-21.6671 573.533,-22.0383 582.042,-28.3511 584.122,-21.6671"/>
</g>
<!-- \\Countable -->
<g id="node39" class="node"><title>\\Countable</title>
<ellipse fill="none" stroke="black" cx="514.5" cy="-180" rx="50.0912" ry="18"/>
<text text-anchor="middle" x="514.5" y="-176.3" font-family="Times New Roman,serif" font-size="14.00" fill="gray">\Countable</text>
</g>
<!-- \\abstracts\\designPatterns\\Collection&#45;&gt;\\Countable -->
<g id="edge14" class="edge"><title>\\abstracts\\designPatterns\\Collection&#45;&gt;\\Countable</title>
<path fill="none" stroke="black" stroke-dasharray="1,5" d="M694.25,-971.659C684.608,-967.675 675.232,-962.018 668.594,-954 570.979,-836.087 527.118,-334.091 517.555,-208.548"/>
<polygon fill="none" stroke="black" points="521.02,-207.941 516.783,-198.231 514.039,-208.464 521.02,-207.941"/>
</g>
<!-- \\SeekableIterator -->
<g id="node40" class="node"><title>\\SeekableIterator</title>
<ellipse fill="none" stroke="black" cx="514.5" cy="-126" rx="71.4873" ry="18"/>
<text text-anchor="middle" x="514.5" y="-122.3" font-family="Times New Roman,serif" font-size="14.00" fill="gray">\SeekableIterator</text>
</g>
<!-- \\abstracts\\designPatterns\\Collection&#45;&gt;\\SeekableIterator -->
<g id="edge15" class="edge"><title>\\abstracts\\designPatterns\\Collection&#45;&gt;\\SeekableIterator</title>
<path fill="none" stroke="black" stroke-dasharray="1,5" d="M694.586,-972.636C684.577,-968.634 674.935,-962.724 668.594,-954 563.689,-809.668 725.882,-291.182 613,-153 607.043,-145.708 599.305,-140.286 590.794,-136.27"/>
<polygon fill="none" stroke="black" points="591.885,-132.937 581.302,-132.443 589.268,-139.429 591.885,-132.937"/>
</g>
<!-- \\abstracts\\AbstractLogger&#45;&gt;\\interfaces\\LoggerInterface -->
<g id="edge9" class="edge"><title>\\abstracts\\AbstractLogger&#45;&gt;\\interfaces\\LoggerInterface</title>
<path fill="none" stroke="black" stroke-dasharray="1,5" d="M680.906,-1124.39C650.908,-1133.93 613.489,-1145.83 581.833,-1155.9"/>
<polygon fill="none" stroke="black" points="580.678,-1152.6 572.209,-1158.96 582.799,-1159.27 580.678,-1152.6"/>
</g>
<!-- \\abstracts\\API -->
<g id="node26" class="node"><title>\\abstracts\\API</title>
<polygon fill="none" stroke="black" points="778.594,-891 694.594,-891 694.594,-855 778.594,-855 778.594,-891"/>
<text text-anchor="start" x="702.594" y="-876.2" font-family="Courier,monospace" font-size="11.00">«abstract»</text>
<text text-anchor="start" x="726.094" y="-864.2" font-family="Courier,monospace" font-size="11.00">API</text>
</g>
<!-- \\interfaces\\http\\MessageInterface -->
<g id="node27" class="node"><title>\\interfaces\\http\\MessageInterface</title>
<polygon fill="none" stroke="black" points="157,-1384 32,-1384 32,-1348 157,-1348 157,-1384"/>
<text text-anchor="middle" x="94.5" y="-1363.2" font-family="Courier,monospace" font-size="11.00">MessageInterface</text>
</g>
<!-- \\interfaces\\http\\RequestInterface -->
<g id="node28" class="node"><title>\\interfaces\\http\\RequestInterface</title>
<polygon fill="none" stroke="black" points="357,-1357 232,-1357 232,-1321 357,-1321 357,-1357"/>
<text text-anchor="middle" x="294.5" y="-1336.2" font-family="Courier,monospace" font-size="11.00">RequestInterface</text>
</g>
<!-- \\interfaces\\http\\RequestInterface&#45;&gt;\\interfaces\\http\\MessageInterface -->
<g id="edge17" class="edge"><title>\\interfaces\\http\\RequestInterface&#45;&gt;\\interfaces\\http\\MessageInterface</title>
<path fill="none" stroke="black" d="M231.937,-1347.39C211.357,-1350.2 188.245,-1353.35 166.975,-1356.25"/>
<polygon fill="none" stroke="black" points="166.46,-1352.79 157.025,-1357.61 167.406,-1359.73 166.46,-1352.79"/>
</g>
<!-- \\interfaces\\http\\ResponseInterface -->
<g id="node29" class="node"><title>\\interfaces\\http\\ResponseInterface</title>
<polygon fill="none" stroke="black" points="360,-1411 229,-1411 229,-1375 360,-1375 360,-1411"/>
<text text-anchor="middle" x="294.5" y="-1390.2" font-family="Courier,monospace" font-size="11.00">ResponseInterface</text>
</g>
<!-- \\interfaces\\http\\ResponseInterface&#45;&gt;\\interfaces\\http\\MessageInterface -->
<g id="edge18" class="edge"><title>\\interfaces\\http\\ResponseInterface&#45;&gt;\\interfaces\\http\\MessageInterface</title>
<path fill="none" stroke="black" d="M228.941,-1384.2C209.247,-1381.51 187.475,-1378.54 167.33,-1375.8"/>
<polygon fill="none" stroke="black" points="167.658,-1372.31 157.277,-1374.42 166.712,-1379.24 167.658,-1372.31"/>
</g>
<!-- \\interfaces\\http\\ServerRequestInterface -->
<g id="node30" class="node"><title>\\interfaces\\http\\ServerRequestInterface</title>
<polygon fill="none" stroke="black" points="597,-1411 432,-1411 432,-1375 597,-1375 597,-1411"/>
<text text-anchor="middle" x="514.5" y="-1390.2" font-family="Courier,monospace" font-size="11.00">ServerRequestInterface</text>
</g>
<!-- \\interfaces\\http\\ServerRequestInterface&#45;&gt;\\interfaces\\http\\RequestInterface -->
<g id="edge19" class="edge"><title>\\interfaces\\http\\ServerRequestInterface&#45;&gt;\\interfaces\\http\\RequestInterface</title>
<path fill="none" stroke="black" d="M440.606,-1374.94C416.887,-1369.07 390.597,-1362.56 366.982,-1356.71"/>
<polygon fill="none" stroke="black" points="367.589,-1353.25 357.041,-1354.24 365.906,-1360.05 367.589,-1353.25"/>
</g>
<!-- \\interfaces\\http\\StreamInterface -->
<g id="node31" class="node"><title>\\interfaces\\http\\StreamInterface</title>
<polygon fill="none" stroke="black" points="573.5,-1357 455.5,-1357 455.5,-1321 573.5,-1321 573.5,-1357"/>
<text text-anchor="middle" x="514.5" y="-1336.2" font-family="Courier,monospace" font-size="11.00">StreamInterface</text>
</g>
<!-- \\interfaces\\http\\UploadedFileInterface -->
<g id="node32" class="node"><title>\\interfaces\\http\\UploadedFileInterface</title>
<polygon fill="none" stroke="black" points="593.5,-1303 435.5,-1303 435.5,-1267 593.5,-1267 593.5,-1303"/>
<text text-anchor="middle" x="514.5" y="-1282.2" font-family="Courier,monospace" font-size="11.00">UploadedFileInterface</text>
</g>
<!-- \\interfaces\\http\\UriInterface -->
<g id="node33" class="node"><title>\\interfaces\\http\\UriInterface</title>
<polygon fill="none" stroke="black" points="563.5,-1249 465.5,-1249 465.5,-1213 563.5,-1213 563.5,-1249"/>
<text text-anchor="middle" x="514.5" y="-1228.2" font-family="Courier,monospace" font-size="11.00">UriInterface</text>
</g>
</g>
</svg>
