<?xml version="1.0" encoding="UTF-8" standalone="no"?>
<!DOCTYPE svg PUBLIC "-//W3C//DTD SVG 1.1//EN"
 "http://www.w3.org/Graphics/SVG/1.1/DTD/svg11.dtd">
<!-- Generated by graphviz version 2.38.0 (20140413.2041)
 -->
<!-- Title: G Pages: 1 -->
<svg width="673pt" height="1568pt"
 viewBox="0.00 0.00 672.68 1568.00" xmlns="http://www.w3.org/2000/svg" xmlns:xlink="http://www.w3.org/1999/xlink">
<g id="graph0" class="graph" transform="scale(1 1) rotate(0) translate(4 1564)">
<title>G</title>
<polygon fill="white" stroke="none" points="-4,4 -4,-1564 668.682,-1564 668.682,4 -4,4"/>
<g id="clust1" class="cluster"><title>cluster_Global</title>
<path fill="none" stroke="gray" d="M20,-206C20,-206 644.682,-206 644.682,-206 650.682,-206 656.682,-212 656.682,-218 656.682,-218 656.682,-1540 656.682,-1540 656.682,-1546 650.682,-1552 644.682,-1552 644.682,-1552 20,-1552 20,-1552 14,-1552 8,-1546 8,-1540 8,-1540 8,-218 8,-218 8,-212 14,-206 20,-206"/>
<text text-anchor="middle" x="332.341" y="-1539.2" font-family="Times New Roman,serif" font-size="11.00" fill="gray">Global</text>
</g>
<g id="clust9" class="cluster"><title>cluster_\abstracts</title>
<path fill="none" stroke="gray" d="M238.088,-733C238.088,-733 350.088,-733 350.088,-733 356.088,-733 362.088,-739 362.088,-745 362.088,-745 362.088,-1027 362.088,-1027 362.088,-1033 356.088,-1039 350.088,-1039 350.088,-1039 238.088,-1039 238.088,-1039 232.088,-1039 226.088,-1033 226.088,-1027 226.088,-1027 226.088,-745 226.088,-745 226.088,-739 232.088,-733 238.088,-733"/>
<text text-anchor="middle" x="294.088" y="-1026.2" font-family="Times New Roman,serif" font-size="11.00" fill="gray">abstracts</text>
</g>
<g id="clust10" class="cluster"><title>cluster_\abstracts\designPatterns</title>
<path fill="none" stroke="gray" d="M246.088,-787C246.088,-787 342.088,-787 342.088,-787 348.088,-787 354.088,-793 354.088,-799 354.088,-799 354.088,-955 354.088,-955 354.088,-961 348.088,-967 342.088,-967 342.088,-967 246.088,-967 246.088,-967 240.088,-967 234.088,-961 234.088,-955 234.088,-955 234.088,-799 234.088,-799 234.088,-793 240.088,-787 246.088,-787"/>
<text text-anchor="middle" x="294.088" y="-954.2" font-family="Times New Roman,serif" font-size="11.00" fill="gray">designPatterns</text>
</g>
<g id="clust11" class="cluster"><title>cluster_\interfaces</title>
<path fill="none" stroke="gray" d="M28,-994C28,-994 138,-994 138,-994 144,-994 150,-1000 150,-1006 150,-1006 150,-1054 150,-1054 150,-1060 144,-1066 138,-1066 138,-1066 28,-1066 28,-1066 22,-1066 16,-1060 16,-1054 16,-1054 16,-1006 16,-1006 16,-1000 22,-994 28,-994"/>
<text text-anchor="middle" x="83" y="-1053.2" font-family="Times New Roman,serif" font-size="11.00" fill="gray">interfaces</text>
</g>
<g id="clust2" class="cluster"><title>cluster_\classes</title>
<path fill="none" stroke="gray" d="M429.682,-456C429.682,-456 636.682,-456 636.682,-456 642.682,-456 648.682,-462 648.682,-468 648.682,-468 648.682,-1512 648.682,-1512 648.682,-1518 642.682,-1524 636.682,-1524 636.682,-1524 429.682,-1524 429.682,-1524 423.682,-1524 417.682,-1518 417.682,-1512 417.682,-1512 417.682,-468 417.682,-468 417.682,-462 423.682,-456 429.682,-456"/>
<text text-anchor="middle" x="533.182" y="-1511.2" font-family="Times New Roman,serif" font-size="11.00" fill="gray">classes</text>
</g>
<g id="clust7" class="cluster"><title>cluster_\classes\entitiesCollection</title>
<path fill="none" stroke="gray" d="M481.682,-1424C481.682,-1424 584.682,-1424 584.682,-1424 590.682,-1424 596.682,-1430 596.682,-1436 596.682,-1436 596.682,-1484 596.682,-1484 596.682,-1490 590.682,-1496 584.682,-1496 584.682,-1496 481.682,-1496 481.682,-1496 475.682,-1496 469.682,-1490 469.682,-1484 469.682,-1484 469.682,-1436 469.682,-1436 469.682,-1430 475.682,-1424 481.682,-1424"/>
<text text-anchor="middle" x="533.182" y="-1483.2" font-family="Times New Roman,serif" font-size="11.00" fill="gray">entitiesCollection</text>
</g>
<g id="clust6" class="cluster"><title>cluster_\classes\entities</title>
<path fill="none" stroke="gray" d="M481.682,-1290C481.682,-1290 584.682,-1290 584.682,-1290 590.682,-1290 596.682,-1296 596.682,-1302 596.682,-1302 596.682,-1404 596.682,-1404 596.682,-1410 590.682,-1416 584.682,-1416 584.682,-1416 481.682,-1416 481.682,-1416 475.682,-1416 469.682,-1410 469.682,-1404 469.682,-1404 469.682,-1302 469.682,-1302 469.682,-1296 475.682,-1290 481.682,-1290"/>
<text text-anchor="middle" x="533.182" y="-1403.2" font-family="Times New Roman,serif" font-size="11.00" fill="gray">entities</text>
</g>
<g id="clust3" class="cluster"><title>cluster_\classes\entitiesManager</title>
<path fill="none" stroke="gray" d="M437.682,-1156C437.682,-1156 628.682,-1156 628.682,-1156 634.682,-1156 640.682,-1162 640.682,-1168 640.682,-1168 640.682,-1270 640.682,-1270 640.682,-1276 634.682,-1282 628.682,-1282 628.682,-1282 437.682,-1282 437.682,-1282 431.682,-1282 425.682,-1276 425.682,-1270 425.682,-1270 425.682,-1168 425.682,-1168 425.682,-1162 431.682,-1156 437.682,-1156"/>
<text text-anchor="middle" x="533.182" y="-1269.2" font-family="Times New Roman,serif" font-size="11.00" fill="gray">entitiesManager</text>
</g>
<g id="clust4" class="cluster"><title>cluster_\classes\logger</title>
<path fill="none" stroke="gray" d="M485.182,-968C485.182,-968 581.182,-968 581.182,-968 587.182,-968 593.182,-974 593.182,-980 593.182,-980 593.182,-1136 593.182,-1136 593.182,-1142 587.182,-1148 581.182,-1148 581.182,-1148 485.182,-1148 485.182,-1148 479.182,-1148 473.182,-1142 473.182,-1136 473.182,-1136 473.182,-980 473.182,-980 473.182,-974 479.182,-968 485.182,-968"/>
<text text-anchor="middle" x="533.182" y="-1135.2" font-family="Times New Roman,serif" font-size="11.00" fill="gray">logger</text>
</g>
<g id="clust5" class="cluster"><title>cluster_\classes\console</title>
<path fill="none" stroke="gray" d="M485.182,-834C485.182,-834 581.182,-834 581.182,-834 587.182,-834 593.182,-840 593.182,-846 593.182,-846 593.182,-948 593.182,-948 593.182,-954 587.182,-960 581.182,-960 581.182,-960 485.182,-960 485.182,-960 479.182,-960 473.182,-954 473.182,-948 473.182,-948 473.182,-846 473.182,-846 473.182,-840 479.182,-834 485.182,-834"/>
<text text-anchor="middle" x="533.182" y="-947.2" font-family="Times New Roman,serif" font-size="11.00" fill="gray">console</text>
</g>
<g id="clust8" class="cluster"><title>cluster_\traits</title>
<path fill="none" stroke="gray" d="M471.682,-214C471.682,-214 594.682,-214 594.682,-214 600.682,-214 606.682,-220 606.682,-226 606.682,-226 606.682,-436 606.682,-436 606.682,-442 600.682,-448 594.682,-448 594.682,-448 471.682,-448 471.682,-448 465.682,-448 459.682,-442 459.682,-436 459.682,-436 459.682,-226 459.682,-226 459.682,-220 465.682,-214 471.682,-214"/>
<text text-anchor="middle" x="533.182" y="-435.2" font-family="Times New Roman,serif" font-size="11.00" fill="gray">traits</text>
</g>
<!-- \\classes\\entitiesManager\\UserEntityManager -->
<g id="node1" class="node"><title>\\classes\\entitiesManager\\UserEntityManager</title>
<polygon fill="none" stroke="black" points="598.682,-1254 467.682,-1254 467.682,-1218 598.682,-1218 598.682,-1254"/>
<text text-anchor="middle" x="533.182" y="-1233.2" font-family="Courier,monospace" font-size="11.00">UserEntityManager</text>
</g>
<!-- \\abstracts\\designPatterns\\EntityManager -->
<g id="node24" class="node"><title>\\abstracts\\designPatterns\\EntityManager</title>
<polygon fill="none" stroke="black" points="346.088,-831 242.088,-831 242.088,-795 346.088,-795 346.088,-831"/>
<text text-anchor="start" x="260.088" y="-816.2" font-family="Courier,monospace" font-size="11.00">«abstract»</text>
<text text-anchor="start" x="250.088" y="-804.2" font-family="Courier,monospace" font-size="11.00">EntityManager</text>
</g>
<!-- \\classes\\entitiesManager\\UserEntityManager&#45;&gt;\\abstracts\\designPatterns\\EntityManager -->
<g id="edge1" class="edge"><title>\\classes\\entitiesManager\\UserEntityManager&#45;&gt;\\abstracts\\designPatterns\\EntityManager</title>
<path fill="none" stroke="black" d="M467.388,-1234.03C448.98,-1230.27 430.481,-1222.9 417.682,-1209 305.315,-1087.02 464.9,-970.139 362.088,-840 359.883,-837.209 357.344,-834.706 354.573,-832.459"/>
<polygon fill="none" stroke="black" points="356.468,-829.516 346.231,-826.787 352.533,-835.304 356.468,-829.516"/>
</g>
<!-- \\classes\\entitiesManager\\UserStatisticsEntityManager -->
<g id="node2" class="node"><title>\\classes\\entitiesManager\\UserStatisticsEntityManager</title>
<polygon fill="none" stroke="black" points="632.682,-1200 433.682,-1200 433.682,-1164 632.682,-1164 632.682,-1200"/>
<text text-anchor="middle" x="533.182" y="-1179.2" font-family="Courier,monospace" font-size="11.00">UserStatisticsEntityManager</text>
</g>
<!-- \\classes\\entitiesManager\\UserStatisticsEntityManager&#45;&gt;\\abstracts\\designPatterns\\EntityManager -->
<g id="edge16" class="edge"><title>\\classes\\entitiesManager\\UserStatisticsEntityManager&#45;&gt;\\abstracts\\designPatterns\\EntityManager</title>
<path fill="none" stroke="black" d="M433.633,-1164.87C427.759,-1161.31 422.351,-1157.06 417.682,-1152 322.143,-1048.5 450.876,-949.342 362.088,-840 359.846,-837.239 357.278,-834.759 354.485,-832.53"/>
<polygon fill="none" stroke="black" points="356.35,-829.566 346.098,-826.894 352.446,-835.377 356.35,-829.566"/>
</g>
<!-- \\classes\\logger\\LogLevel -->
<g id="node3" class="node"><title>\\classes\\logger\\LogLevel</title>
<polygon fill="none" stroke="black" points="568.682,-1120 497.682,-1120 497.682,-1084 568.682,-1084 568.682,-1120"/>
<text text-anchor="middle" x="533.182" y="-1099.2" font-family="Courier,monospace" font-size="11.00">LogLevel</text>
</g>
<!-- \\classes\\logger\\ConsoleLogger -->
<g id="node4" class="node"><title>\\classes\\logger\\ConsoleLogger</title>
<polygon fill="none" stroke="black" points="585.182,-1012 481.182,-1012 481.182,-976 585.182,-976 585.182,-1012"/>
<text text-anchor="middle" x="533.182" y="-991.2" font-family="Courier,monospace" font-size="11.00">ConsoleLogger</text>
</g>
<!-- \\abstracts\\AbstractLogger -->
<g id="node25" class="node"><title>\\abstracts\\AbstractLogger</title>
<polygon fill="none" stroke="black" points="349.588,-1011 238.588,-1011 238.588,-975 349.588,-975 349.588,-1011"/>
<text text-anchor="start" x="260.088" y="-996.2" font-family="Courier,monospace" font-size="11.00">«abstract»</text>
<text text-anchor="start" x="246.588" y="-984.2" font-family="Courier,monospace" font-size="11.00">AbstractLogger</text>
</g>
<!-- \\classes\\logger\\ConsoleLogger&#45;&gt;\\abstracts\\AbstractLogger -->
<g id="edge4" class="edge"><title>\\classes\\logger\\ConsoleLogger&#45;&gt;\\abstracts\\AbstractLogger</title>
<path fill="none" stroke="black" d="M481.028,-993.784C445.689,-993.635 398.386,-993.436 360.335,-993.275"/>
<polygon fill="none" stroke="black" points="359.88,-989.773 349.866,-993.231 359.851,-996.773 359.88,-989.773"/>
</g>
<!-- \\interfaces\\LoggerInterface -->
<g id="node27" class="node"><title>\\interfaces\\LoggerInterface</title>
<polygon fill="none" stroke="black" points="142,-1038 24,-1038 24,-1002 142,-1002 142,-1038"/>
<text text-anchor="middle" x="83" y="-1017.2" font-family="Courier,monospace" font-size="11.00">LoggerInterface</text>
</g>
<!-- \\classes\\logger\\ConsoleLogger&#45;&gt;\\interfaces\\LoggerInterface -->
<g id="edge5" class="edge"><title>\\classes\\logger\\ConsoleLogger&#45;&gt;\\interfaces\\LoggerInterface</title>
<path fill="none" stroke="black" stroke-dasharray="1,5" d="M481.022,-1004.4C461.081,-1008.88 438.142,-1014.58 417.682,-1021 392.329,-1028.96 387.987,-1037.05 362.088,-1043 332.984,-1049.68 324.947,-1048.29 295.088,-1048"/>
<path fill="none" stroke="black" stroke-dasharray="1,5" d="M293.088,-1048C245.822,-1047.54 193.071,-1040.43 152.379,-1033.49"/>
<polygon fill="none" stroke="black" points="152.757,-1030 142.304,-1031.73 151.554,-1036.9 152.757,-1030"/>
</g>
<!-- \\classes\\logger\\FileLogger -->
<g id="node5" class="node"><title>\\classes\\logger\\FileLogger</title>
<polygon fill="none" stroke="black" points="575.182,-1066 491.182,-1066 491.182,-1030 575.182,-1030 575.182,-1066"/>
<text text-anchor="middle" x="533.182" y="-1045.2" font-family="Courier,monospace" font-size="11.00">FileLogger</text>
</g>
<!-- \\classes\\logger\\FileLogger&#45;&gt;\\abstracts\\AbstractLogger -->
<g id="edge10" class="edge"><title>\\classes\\logger\\FileLogger&#45;&gt;\\abstracts\\AbstractLogger</title>
<path fill="none" stroke="black" d="M491.154,-1038.48C454.957,-1030.09 401.59,-1017.71 359.669,-1007.98"/>
<polygon fill="none" stroke="black" points="360.354,-1004.55 349.822,-1005.7 358.772,-1011.37 360.354,-1004.55"/>
</g>
<!-- \\classes\\logger\\FileLogger&#45;&gt;\\interfaces\\LoggerInterface -->
<g id="edge11" class="edge"><title>\\classes\\logger\\FileLogger&#45;&gt;\\interfaces\\LoggerInterface</title>
<path fill="none" stroke="black" stroke-dasharray="1,5" d="M491.062,-1048.24C443.778,-1048.46 363.825,-1048.67 295.088,-1048"/>
</g>
<!-- \\classes\\console\\Console -->
<g id="node6" class="node"><title>\\classes\\console\\Console</title>
<polygon fill="none" stroke="black" points="565.182,-932 501.182,-932 501.182,-896 565.182,-896 565.182,-932"/>
<text text-anchor="middle" x="533.182" y="-911.2" font-family="Courier,monospace" font-size="11.00">Console</text>
</g>
<!-- \\classes\\console\\ConsoleColors -->
<g id="node7" class="node"><title>\\classes\\console\\ConsoleColors</title>
<polygon fill="none" stroke="black" points="585.182,-878 481.182,-878 481.182,-842 585.182,-842 585.182,-878"/>
<text text-anchor="middle" x="533.182" y="-857.2" font-family="Courier,monospace" font-size="11.00">ConsoleColors</text>
</g>
<!-- \\classes\\entities\\UserStatistics -->
<g id="node8" class="node"><title>\\classes\\entities\\UserStatistics</title>
<polygon fill="none" stroke="black" points="588.682,-1388 477.682,-1388 477.682,-1352 588.682,-1352 588.682,-1388"/>
<text text-anchor="middle" x="533.182" y="-1367.2" font-family="Courier,monospace" font-size="11.00">UserStatistics</text>
</g>
<!-- \\abstracts\\designPatterns\\Entity -->
<g id="node23" class="node"><title>\\abstracts\\designPatterns\\Entity</title>
<polygon fill="none" stroke="black" points="336.088,-885 252.088,-885 252.088,-849 336.088,-849 336.088,-885"/>
<text text-anchor="start" x="260.088" y="-870.2" font-family="Courier,monospace" font-size="11.00">«abstract»</text>
<text text-anchor="start" x="273.588" y="-858.2" font-family="Courier,monospace" font-size="11.00">Entity</text>
</g>
<!-- \\classes\\entities\\UserStatistics&#45;&gt;\\abstracts\\designPatterns\\Entity -->
<g id="edge3" class="edge"><title>\\classes\\entities\\UserStatistics&#45;&gt;\\abstracts\\designPatterns\\Entity</title>
<path fill="none" stroke="black" d="M477.574,-1369.99C455.934,-1367.06 432.684,-1359.72 417.682,-1343 283.408,-1193.32 484.65,-1053.41 362.088,-894 357.621,-888.19 351.702,-883.626 345.227,-880.041"/>
<polygon fill="none" stroke="black" points="346.672,-876.853 336.136,-875.735 343.676,-883.179 346.672,-876.853"/>
</g>
<!-- \\classes\\entities\\User -->
<g id="node9" class="node"><title>\\classes\\entities\\User</title>
<polygon fill="none" stroke="black" points="560.182,-1334 506.182,-1334 506.182,-1298 560.182,-1298 560.182,-1334"/>
<text text-anchor="middle" x="533.182" y="-1313.2" font-family="Courier,monospace" font-size="11.00">User</text>
</g>
<!-- \\classes\\entities\\User&#45;&gt;\\abstracts\\designPatterns\\Entity -->
<g id="edge6" class="edge"><title>\\classes\\entities\\User&#45;&gt;\\abstracts\\designPatterns\\Entity</title>
<path fill="none" stroke="black" d="M506.162,-1316.89C479.795,-1316.27 439.825,-1310.86 417.682,-1286 300.636,-1154.61 470.572,-1032.55 362.088,-894 357.724,-888.427 352.028,-883.999 345.799,-880.483"/>
<polygon fill="none" stroke="black" points="346.914,-877.135 336.386,-875.954 343.88,-883.443 346.914,-877.135"/>
</g>
<!-- \\classes\\entitiesCollection\\UserCollection -->
<g id="node10" class="node"><title>\\classes\\entitiesCollection\\UserCollection</title>
<polygon fill="none" stroke="black" points="588.682,-1468 477.682,-1468 477.682,-1432 588.682,-1432 588.682,-1468"/>
<text text-anchor="middle" x="533.182" y="-1447.2" font-family="Courier,monospace" font-size="11.00">UserCollection</text>
</g>
<!-- \\abstracts\\designPatterns\\Collection -->
<g id="node22" class="node"><title>\\abstracts\\designPatterns\\Collection</title>
<polygon fill="none" stroke="black" points="336.088,-939 252.088,-939 252.088,-903 336.088,-903 336.088,-939"/>
<text text-anchor="start" x="260.088" y="-924.2" font-family="Courier,monospace" font-size="11.00">«abstract»</text>
<text text-anchor="start" x="260.088" y="-912.2" font-family="Courier,monospace" font-size="11.00">Collection</text>
</g>
<!-- \\classes\\entitiesCollection\\UserCollection&#45;&gt;\\abstracts\\designPatterns\\Collection -->
<g id="edge8" class="edge"><title>\\classes\\entitiesCollection\\UserCollection&#45;&gt;\\abstracts\\designPatterns\\Collection</title>
<path fill="none" stroke="black" d="M477.401,-1448.51C455.731,-1445 432.506,-1437.06 417.682,-1420 277.704,-1258.88 497.086,-1108.32 362.088,-943 357.717,-937.648 352.018,-933.587 345.787,-930.507"/>
<polygon fill="none" stroke="black" points="346.953,-927.202 336.372,-926.661 344.306,-933.683 346.953,-927.202"/>
</g>
<!-- \\classes\\LoggerManager -->
<g id="node11" class="node"><title>\\classes\\LoggerManager</title>
<polygon fill="none" stroke="black" points="585.182,-824 481.182,-824 481.182,-788 585.182,-788 585.182,-824"/>
<text text-anchor="middle" x="533.182" y="-803.2" font-family="Courier,monospace" font-size="11.00">LoggerManager</text>
</g>
<!-- \\classes\\ExceptionManager -->
<g id="node12" class="node"><title>\\classes\\ExceptionManager</title>
<polygon fill="none" stroke="black" points="595.682,-770 470.682,-770 470.682,-734 595.682,-734 595.682,-770"/>
<text text-anchor="middle" x="533.182" y="-749.2" font-family="Courier,monospace" font-size="11.00">ExceptionManager</text>
</g>
<!-- \\Exception -->
<g id="node28" class="node"><title>\\Exception</title>
<ellipse fill="none" stroke="black" cx="294.088" cy="-180" rx="50.0912" ry="18"/>
<text text-anchor="middle" x="294.088" y="-176.3" font-family="Times New Roman,serif" font-size="14.00" fill="gray">\Exception</text>
</g>
<!-- \\classes\\ExceptionManager&#45;&gt;\\Exception -->
<g id="edge2" class="edge"><title>\\classes\\ExceptionManager&#45;&gt;\\Exception</title>
<path fill="none" stroke="black" d="M470.668,-749.987C451.432,-746.367 431.618,-739.081 417.682,-725 343.465,-650.014 306.849,-308.826 297.529,-208.085"/>
<polygon fill="none" stroke="black" points="301.008,-207.698 296.618,-198.055 294.037,-208.331 301.008,-207.698"/>
</g>
<!-- \\classes\\PDOStatementCustom -->
<g id="node13" class="node"><title>\\classes\\PDOStatementCustom</title>
<polygon fill="none" stroke="black" points="602.182,-716 464.182,-716 464.182,-680 602.182,-680 602.182,-716"/>
<text text-anchor="middle" x="533.182" y="-695.2" font-family="Courier,monospace" font-size="11.00">PDOStatementCustom</text>
</g>
<!-- \\PDOStatement -->
<g id="node29" class="node"><title>\\PDOStatement</title>
<ellipse fill="none" stroke="black" cx="294.088" cy="-126" rx="67.6881" ry="18"/>
<text text-anchor="middle" x="294.088" y="-122.3" font-family="Times New Roman,serif" font-size="14.00" fill="gray">\PDOStatement</text>
</g>
<!-- \\classes\\PDOStatementCustom&#45;&gt;\\PDOStatement -->
<g id="edge7" class="edge"><title>\\classes\\PDOStatementCustom&#45;&gt;\\PDOStatement</title>
<path fill="none" stroke="black" d="M464.036,-695.721C446.624,-691.793 429.506,-684.399 417.682,-671 264.472,-497.393 501.72,-337.704 362.088,-153 359.45,-149.511 356.288,-146.472 352.793,-143.824"/>
<polygon fill="none" stroke="black" points="354.444,-140.727 344.123,-138.33 350.697,-146.639 354.444,-140.727"/>
</g>
<!-- \\classes\\Benchmark -->
<g id="node14" class="node"><title>\\classes\\Benchmark</title>
<polygon fill="none" stroke="black" points="571.682,-662 494.682,-662 494.682,-626 571.682,-626 571.682,-662"/>
<text text-anchor="middle" x="533.182" y="-641.2" font-family="Courier,monospace" font-size="11.00">Benchmark</text>
</g>
<!-- \\classes\\DataBase -->
<g id="node15" class="node"><title>\\classes\\DataBase</title>
<polygon fill="none" stroke="black" points="568.682,-608 497.682,-608 497.682,-572 568.682,-572 568.682,-608"/>
<text text-anchor="middle" x="533.182" y="-587.2" font-family="Courier,monospace" font-size="11.00">DataBase</text>
</g>
<!-- \\classes\\IniManager -->
<g id="node16" class="node"><title>\\classes\\IniManager</title>
<polygon fill="none" stroke="black" points="575.182,-554 491.182,-554 491.182,-518 575.182,-518 575.182,-554"/>
<text text-anchor="middle" x="533.182" y="-533.2" font-family="Courier,monospace" font-size="11.00">IniManager</text>
</g>
<!-- \\classes\\ImagesManager -->
<g id="node17" class="node"><title>\\classes\\ImagesManager</title>
<polygon fill="none" stroke="black" points="585.182,-500 481.182,-500 481.182,-464 585.182,-464 585.182,-500"/>
<text text-anchor="middle" x="533.182" y="-479.2" font-family="Courier,monospace" font-size="11.00">ImagesManager</text>
</g>
<!-- \\traits\\FiltersTrait -->
<g id="node18" class="node"><title>\\traits\\FiltersTrait</title>
<polygon fill="none" stroke="black" points="582.182,-420 484.182,-420 484.182,-384 582.182,-384 582.182,-420"/>
<text text-anchor="middle" x="533.182" y="-399.2" font-family="Courier,monospace" font-size="11.00">FiltersTrait</text>
</g>
<!-- \\traits\\PrettyOutputTrait -->
<g id="node19" class="node"><title>\\traits\\PrettyOutputTrait</title>
<polygon fill="none" stroke="black" points="598.682,-366 467.682,-366 467.682,-330 598.682,-330 598.682,-366"/>
<text text-anchor="middle" x="533.182" y="-345.2" font-family="Courier,monospace" font-size="11.00">PrettyOutputTrait</text>
</g>
<!-- \\traits\\EchoTrait -->
<g id="node20" class="node"><title>\\traits\\EchoTrait</title>
<polygon fill="none" stroke="black" points="571.682,-312 494.682,-312 494.682,-276 571.682,-276 571.682,-312"/>
<text text-anchor="middle" x="533.182" y="-291.2" font-family="Courier,monospace" font-size="11.00">EchoTrait</text>
</g>
<!-- \\traits\\ShortcutsTrait -->
<g id="node21" class="node"><title>\\traits\\ShortcutsTrait</title>
<polygon fill="none" stroke="black" points="588.682,-258 477.682,-258 477.682,-222 588.682,-222 588.682,-258"/>
<text text-anchor="middle" x="533.182" y="-237.2" font-family="Courier,monospace" font-size="11.00">ShortcutsTrait</text>
</g>
<!-- \\Iterator -->
<g id="node30" class="node"><title>\\Iterator</title>
<ellipse fill="none" stroke="black" cx="83" cy="-72" rx="39.7935" ry="18"/>
<text text-anchor="middle" x="83" y="-68.3" font-family="Times New Roman,serif" font-size="14.00" fill="gray">\Iterator</text>
</g>
<!-- \\abstracts\\designPatterns\\Collection&#45;&gt;\\Iterator -->
<g id="edge12" class="edge"><title>\\abstracts\\designPatterns\\Collection&#45;&gt;\\Iterator</title>
<path fill="none" stroke="black" stroke-dasharray="1,5" d="M251.849,-912.408C241.965,-908.41 232.443,-902.558 226.088,-894 120.332,-751.592 261.477,-240.488 154.494,-99 148.388,-90.9247 139.548,-85.2644 130.18,-81.2969"/>
<polygon fill="none" stroke="black" points="131.312,-77.9844 120.718,-77.867 128.926,-84.5654 131.312,-77.9844"/>
</g>
<!-- \\ArrayAccess -->
<g id="node31" class="node"><title>\\ArrayAccess</title>
<ellipse fill="none" stroke="black" cx="83" cy="-18" rx="60.3893" ry="18"/>
<text text-anchor="middle" x="83" y="-14.3" font-family="Times New Roman,serif" font-size="14.00" fill="gray">\ArrayAccess</text>
</g>
<!-- \\abstracts\\designPatterns\\Collection&#45;&gt;\\ArrayAccess -->
<g id="edge13" class="edge"><title>\\abstracts\\designPatterns\\Collection&#45;&gt;\\ArrayAccess</title>
<path fill="none" stroke="black" stroke-dasharray="1,5" d="M251.816,-912.433C241.932,-908.434 232.419,-902.576 226.088,-894 113.637,-741.675 268.258,-196.347 154.494,-45 151.049,-40.4168 146.722,-36.6115 141.916,-33.4522"/>
<polygon fill="none" stroke="black" points="143.28,-30.207 132.835,-28.4344 139.895,-36.3341 143.28,-30.207"/>
</g>
<!-- \\Countable -->
<g id="node32" class="node"><title>\\Countable</title>
<ellipse fill="none" stroke="black" cx="83" cy="-180" rx="50.0912" ry="18"/>
<text text-anchor="middle" x="83" y="-176.3" font-family="Times New Roman,serif" font-size="14.00" fill="gray">\Countable</text>
</g>
<!-- \\abstracts\\designPatterns\\Collection&#45;&gt;\\Countable -->
<g id="edge14" class="edge"><title>\\abstracts\\designPatterns\\Collection&#45;&gt;\\Countable</title>
<path fill="none" stroke="black" stroke-dasharray="1,5" d="M251.75,-911.654C242.108,-907.67 232.73,-902.014 226.088,-894 136.437,-785.836 95.3409,-327.093 86.0768,-208.223"/>
<polygon fill="none" stroke="black" points="89.5554,-207.808 85.3017,-198.105 82.5758,-208.343 89.5554,-207.808"/>
</g>
<!-- \\SeekableIterator -->
<g id="node33" class="node"><title>\\SeekableIterator</title>
<ellipse fill="none" stroke="black" cx="83" cy="-126" rx="71.4873" ry="18"/>
<text text-anchor="middle" x="83" y="-122.3" font-family="Times New Roman,serif" font-size="14.00" fill="gray">\SeekableIterator</text>
</g>
<!-- \\abstracts\\designPatterns\\Collection&#45;&gt;\\SeekableIterator -->
<g id="edge15" class="edge"><title>\\abstracts\\designPatterns\\Collection&#45;&gt;\\SeekableIterator</title>
<path fill="none" stroke="black" stroke-dasharray="1,5" d="M251.886,-912.381C242.002,-908.382 232.471,-902.537 226.088,-894 27.96,-629.013 354.906,-416.264 154.494,-153 151.815,-149.481 148.617,-146.42 145.083,-143.758"/>
<polygon fill="none" stroke="black" points="146.644,-140.605 136.316,-138.243 142.917,-146.53 146.644,-140.605"/>
</g>
<!-- \\abstracts\\AbstractLogger&#45;&gt;\\interfaces\\LoggerInterface -->
<g id="edge9" class="edge"><title>\\abstracts\\AbstractLogger&#45;&gt;\\interfaces\\LoggerInterface</title>
<path fill="none" stroke="black" stroke-dasharray="1,5" d="M238.425,-1000.06C212.023,-1003.47 180.077,-1007.59 152.108,-1011.21"/>
<polygon fill="none" stroke="black" points="151.471,-1007.76 142.001,-1012.51 152.367,-1014.7 151.471,-1007.76"/>
</g>
<!-- \\abstracts\\API -->
<g id="node26" class="node"><title>\\abstracts\\API</title>
<polygon fill="none" stroke="black" points="336.088,-777 252.088,-777 252.088,-741 336.088,-741 336.088,-777"/>
<text text-anchor="start" x="260.088" y="-762.2" font-family="Courier,monospace" font-size="11.00">«abstract»</text>
<text text-anchor="start" x="283.588" y="-750.2" font-family="Courier,monospace" font-size="11.00">API</text>
</g>
</g>
</svg>
