<?xml version="1.0" encoding="UTF-8" standalone="no"?>
<!DOCTYPE svg PUBLIC "-//W3C//DTD SVG 1.1//EN"
 "http://www.w3.org/Graphics/SVG/1.1/DTD/svg11.dtd">
<!-- Generated by graphviz version 2.38.0 (20140413.2041)
 -->
<!-- Title: G Pages: 1 -->
<svg width="673pt" height="1568pt"
 viewBox="0.00 0.00 672.68 1568.00" xmlns="http://www.w3.org/2000/svg" xmlns:xlink="http://www.w3.org/1999/xlink">
<g id="graph0" class="graph" transform="scale(1 1) rotate(0) translate(4 1564)">
<title>G</title>
<polygon fill="white" stroke="none" points="-4,4 -4,-1564 668.682,-1564 668.682,4 -4,4"/>
<g id="clust1" class="cluster"><title>cluster_Global</title>
<path fill="none" stroke="gray" d="M20,-206C20,-206 644.682,-206 644.682,-206 650.682,-206 656.682,-212 656.682,-218 656.682,-218 656.682,-1540 656.682,-1540 656.682,-1546 650.682,-1552 644.682,-1552 644.682,-1552 20,-1552 20,-1552 14,-1552 8,-1546 8,-1540 8,-1540 8,-218 8,-218 8,-212 14,-206 20,-206"/>
<text text-anchor="middle" x="332.341" y="-1539.2" font-family="Times New Roman,serif" font-size="11.00" fill="gray">Global</text>
</g>
<g id="clust2" class="cluster"><title>cluster_\classes</title>
<path fill="none" stroke="gray" d="M429.682,-456C429.682,-456 636.682,-456 636.682,-456 642.682,-456 648.682,-462 648.682,-468 648.682,-468 648.682,-1512 648.682,-1512 648.682,-1518 642.682,-1524 636.682,-1524 636.682,-1524 429.682,-1524 429.682,-1524 423.682,-1524 417.682,-1518 417.682,-1512 417.682,-1512 417.682,-468 417.682,-468 417.682,-462 423.682,-456 429.682,-456"/>
<text text-anchor="middle" x="533.182" y="-1511.2" font-family="Times New Roman,serif" font-size="11.00" fill="gray">classes</text>
</g>
<g id="clust4" class="cluster"><title>cluster_\classes\logger</title>
<path fill="none" stroke="gray" d="M485.182,-1316C485.182,-1316 581.182,-1316 581.182,-1316 587.182,-1316 593.182,-1322 593.182,-1328 593.182,-1328 593.182,-1484 593.182,-1484 593.182,-1490 587.182,-1496 581.182,-1496 581.182,-1496 485.182,-1496 485.182,-1496 479.182,-1496 473.182,-1490 473.182,-1484 473.182,-1484 473.182,-1328 473.182,-1328 473.182,-1322 479.182,-1316 485.182,-1316"/>
<text text-anchor="middle" x="533.182" y="-1483.2" font-family="Times New Roman,serif" font-size="11.00" fill="gray">logger</text>
</g>
<g id="clust5" class="cluster"><title>cluster_\classes\console</title>
<path fill="none" stroke="gray" d="M485.182,-1182C485.182,-1182 581.182,-1182 581.182,-1182 587.182,-1182 593.182,-1188 593.182,-1194 593.182,-1194 593.182,-1296 593.182,-1296 593.182,-1302 587.182,-1308 581.182,-1308 581.182,-1308 485.182,-1308 485.182,-1308 479.182,-1308 473.182,-1302 473.182,-1296 473.182,-1296 473.182,-1194 473.182,-1194 473.182,-1188 479.182,-1182 485.182,-1182"/>
<text text-anchor="middle" x="533.182" y="-1295.2" font-family="Times New Roman,serif" font-size="11.00" fill="gray">console</text>
</g>
<g id="clust3" class="cluster"><title>cluster_\classes\entitiesManager</title>
<path fill="none" stroke="gray" d="M437.682,-1048C437.682,-1048 628.682,-1048 628.682,-1048 634.682,-1048 640.682,-1054 640.682,-1060 640.682,-1060 640.682,-1162 640.682,-1162 640.682,-1168 634.682,-1174 628.682,-1174 628.682,-1174 437.682,-1174 437.682,-1174 431.682,-1174 425.682,-1168 425.682,-1162 425.682,-1162 425.682,-1060 425.682,-1060 425.682,-1054 431.682,-1048 437.682,-1048"/>
<text text-anchor="middle" x="533.182" y="-1161.2" font-family="Times New Roman,serif" font-size="11.00" fill="gray">entitiesManager</text>
</g>
<g id="clust7" class="cluster"><title>cluster_\classes\entitiesCollection</title>
<path fill="none" stroke="gray" d="M481.682,-968C481.682,-968 584.682,-968 584.682,-968 590.682,-968 596.682,-974 596.682,-980 596.682,-980 596.682,-1028 596.682,-1028 596.682,-1034 590.682,-1040 584.682,-1040 584.682,-1040 481.682,-1040 481.682,-1040 475.682,-1040 469.682,-1034 469.682,-1028 469.682,-1028 469.682,-980 469.682,-980 469.682,-974 475.682,-968 481.682,-968"/>
<text text-anchor="middle" x="533.182" y="-1027.2" font-family="Times New Roman,serif" font-size="11.00" fill="gray">entitiesCollection</text>
</g>
<g id="clust6" class="cluster"><title>cluster_\classes\entities</title>
<path fill="none" stroke="gray" d="M481.682,-834C481.682,-834 584.682,-834 584.682,-834 590.682,-834 596.682,-840 596.682,-846 596.682,-846 596.682,-948 596.682,-948 596.682,-954 590.682,-960 584.682,-960 584.682,-960 481.682,-960 481.682,-960 475.682,-960 469.682,-954 469.682,-948 469.682,-948 469.682,-846 469.682,-846 469.682,-840 475.682,-834 481.682,-834"/>
<text text-anchor="middle" x="533.182" y="-947.2" font-family="Times New Roman,serif" font-size="11.00" fill="gray">entities</text>
</g>
<g id="clust8" class="cluster"><title>cluster_\traits</title>
<path fill="none" stroke="gray" d="M471.682,-214C471.682,-214 594.682,-214 594.682,-214 600.682,-214 606.682,-220 606.682,-226 606.682,-226 606.682,-436 606.682,-436 606.682,-442 600.682,-448 594.682,-448 594.682,-448 471.682,-448 471.682,-448 465.682,-448 459.682,-442 459.682,-436 459.682,-436 459.682,-226 459.682,-226 459.682,-220 465.682,-214 471.682,-214"/>
<text text-anchor="middle" x="533.182" y="-435.2" font-family="Times New Roman,serif" font-size="11.00" fill="gray">traits</text>
</g>
<g id="clust11" class="cluster"><title>cluster_\interfaces</title>
<path fill="none" stroke="gray" d="M28,-1205C28,-1205 138,-1205 138,-1205 144,-1205 150,-1211 150,-1217 150,-1217 150,-1265 150,-1265 150,-1271 144,-1277 138,-1277 138,-1277 28,-1277 28,-1277 22,-1277 16,-1271 16,-1265 16,-1265 16,-1217 16,-1217 16,-1211 22,-1205 28,-1205"/>
<text text-anchor="middle" x="83" y="-1264.2" font-family="Times New Roman,serif" font-size="11.00" fill="gray">interfaces</text>
</g>
<g id="clust9" class="cluster"><title>cluster_\abstracts</title>
<path fill="none" stroke="gray" d="M238.088,-847C238.088,-847 350.088,-847 350.088,-847 356.088,-847 362.088,-853 362.088,-859 362.088,-859 362.088,-1141 362.088,-1141 362.088,-1147 356.088,-1153 350.088,-1153 350.088,-1153 238.088,-1153 238.088,-1153 232.088,-1153 226.088,-1147 226.088,-1141 226.088,-1141 226.088,-859 226.088,-859 226.088,-853 232.088,-847 238.088,-847"/>
<text text-anchor="middle" x="294.088" y="-1140.2" font-family="Times New Roman,serif" font-size="11.00" fill="gray">abstracts</text>
</g>
<g id="clust10" class="cluster"><title>cluster_\abstracts\designPatterns</title>
<path fill="none" stroke="gray" d="M246.088,-901C246.088,-901 342.088,-901 342.088,-901 348.088,-901 354.088,-907 354.088,-913 354.088,-913 354.088,-1069 354.088,-1069 354.088,-1075 348.088,-1081 342.088,-1081 342.088,-1081 246.088,-1081 246.088,-1081 240.088,-1081 234.088,-1075 234.088,-1069 234.088,-1069 234.088,-913 234.088,-913 234.088,-907 240.088,-901 246.088,-901"/>
<text text-anchor="middle" x="294.088" y="-1068.2" font-family="Times New Roman,serif" font-size="11.00" fill="gray">designPatterns</text>
</g>
<!-- \\classes\\entitiesManager\\UserEntityManager -->
<g id="node1" class="node"><title>\\classes\\entitiesManager\\UserEntityManager</title>
<polygon fill="none" stroke="black" points="598.682,-1146 467.682,-1146 467.682,-1110 598.682,-1110 598.682,-1146"/>
<text text-anchor="middle" x="533.182" y="-1125.2" font-family="Courier,monospace" font-size="11.00">UserEntityManager</text>
</g>
<!-- \\abstracts\\designPatterns\\EntityManager -->
<g id="node24" class="node"><title>\\abstracts\\designPatterns\\EntityManager</title>
<polygon fill="none" stroke="black" points="346.088,-1053 242.088,-1053 242.088,-1017 346.088,-1017 346.088,-1053"/>
<text text-anchor="start" x="260.088" y="-1038.2" font-family="Courier,monospace" font-size="11.00">«abstract»</text>
<text text-anchor="start" x="250.088" y="-1026.2" font-family="Courier,monospace" font-size="11.00">EntityManager</text>
</g>
<!-- \\classes\\entitiesManager\\UserEntityManager&#45;&gt;\\abstracts\\designPatterns\\EntityManager -->
<g id="edge1" class="edge"><title>\\classes\\entitiesManager\\UserEntityManager&#45;&gt;\\abstracts\\designPatterns\\EntityManager</title>
<path fill="none" stroke="black" d="M467.49,-1117.93C450.762,-1113.95 433.126,-1108.47 417.682,-1101 389.315,-1087.28 389.84,-1071.92 362.088,-1057 360.073,-1055.92 357.995,-1054.87 355.874,-1053.87"/>
<polygon fill="none" stroke="black" points="356.929,-1050.51 346.362,-1049.74 354.139,-1056.93 356.929,-1050.51"/>
</g>
<!-- \\classes\\entitiesManager\\UserStatisticsEntityManager -->
<g id="node2" class="node"><title>\\classes\\entitiesManager\\UserStatisticsEntityManager</title>
<polygon fill="none" stroke="black" points="632.682,-1092 433.682,-1092 433.682,-1056 632.682,-1056 632.682,-1092"/>
<text text-anchor="middle" x="533.182" y="-1071.2" font-family="Courier,monospace" font-size="11.00">UserStatisticsEntityManager</text>
</g>
<!-- \\classes\\entitiesManager\\UserStatisticsEntityManager&#45;&gt;\\abstracts\\designPatterns\\EntityManager -->
<g id="edge16" class="edge"><title>\\classes\\entitiesManager\\UserStatisticsEntityManager&#45;&gt;\\abstracts\\designPatterns\\EntityManager</title>
<path fill="none" stroke="black" d="M433.349,-1057.74C407.228,-1053.45 379.793,-1048.93 356.31,-1045.07"/>
<polygon fill="none" stroke="black" points="356.597,-1041.57 346.162,-1043.4 355.461,-1048.48 356.597,-1041.57"/>
</g>
<!-- \\classes\\logger\\LogLevel -->
<g id="node3" class="node"><title>\\classes\\logger\\LogLevel</title>
<polygon fill="none" stroke="black" points="568.682,-1468 497.682,-1468 497.682,-1432 568.682,-1432 568.682,-1468"/>
<text text-anchor="middle" x="533.182" y="-1447.2" font-family="Courier,monospace" font-size="11.00">LogLevel</text>
</g>
<!-- \\classes\\logger\\ConsoleLogger -->
<g id="node4" class="node"><title>\\classes\\logger\\ConsoleLogger</title>
<polygon fill="none" stroke="black" points="585.182,-1360 481.182,-1360 481.182,-1324 585.182,-1324 585.182,-1360"/>
<text text-anchor="middle" x="533.182" y="-1339.2" font-family="Courier,monospace" font-size="11.00">ConsoleLogger</text>
</g>
<!-- \\abstracts\\AbstractLogger -->
<g id="node25" class="node"><title>\\abstracts\\AbstractLogger</title>
<polygon fill="none" stroke="black" points="349.588,-1125 238.588,-1125 238.588,-1089 349.588,-1089 349.588,-1125"/>
<text text-anchor="start" x="260.088" y="-1110.2" font-family="Courier,monospace" font-size="11.00">«abstract»</text>
<text text-anchor="start" x="246.588" y="-1098.2" font-family="Courier,monospace" font-size="11.00">AbstractLogger</text>
</g>
<!-- \\classes\\logger\\ConsoleLogger&#45;&gt;\\abstracts\\AbstractLogger -->
<g id="edge4" class="edge"><title>\\classes\\logger\\ConsoleLogger&#45;&gt;\\abstracts\\AbstractLogger</title>
<path fill="none" stroke="black" d="M481.149,-1337.21C459.871,-1333.15 435.922,-1325.7 417.682,-1312 356.305,-1265.92 319.597,-1179.31 303.969,-1134.87"/>
<polygon fill="none" stroke="black" points="307.242,-1133.62 300.699,-1125.29 300.617,-1135.88 307.242,-1133.62"/>
</g>
<!-- \\interfaces\\LoggerInterface -->
<g id="node27" class="node"><title>\\interfaces\\LoggerInterface</title>
<polygon fill="none" stroke="black" points="142,-1249 24,-1249 24,-1213 142,-1213 142,-1249"/>
<text text-anchor="middle" x="83" y="-1228.2" font-family="Courier,monospace" font-size="11.00">LoggerInterface</text>
</g>
<!-- \\classes\\logger\\ConsoleLogger&#45;&gt;\\interfaces\\LoggerInterface -->
<g id="edge5" class="edge"><title>\\classes\\logger\\ConsoleLogger&#45;&gt;\\interfaces\\LoggerInterface</title>
<path fill="none" stroke="black" stroke-dasharray="1,5" d="M481.053,-1352.55C422.041,-1363.89 328.787,-1379.04 295.088,-1369"/>
<path fill="none" stroke="black" stroke-dasharray="1,5" d="M293.088,-1369C219.148,-1346.98 147.289,-1289.22 110.126,-1255.82"/>
<polygon fill="none" stroke="black" points="112.483,-1253.23 102.734,-1249.08 107.769,-1258.41 112.483,-1253.23"/>
</g>
<!-- \\classes\\logger\\FileLogger -->
<g id="node5" class="node"><title>\\classes\\logger\\FileLogger</title>
<polygon fill="none" stroke="black" points="575.182,-1414 491.182,-1414 491.182,-1378 575.182,-1378 575.182,-1414"/>
<text text-anchor="middle" x="533.182" y="-1393.2" font-family="Courier,monospace" font-size="11.00">FileLogger</text>
</g>
<!-- \\classes\\logger\\FileLogger&#45;&gt;\\abstracts\\AbstractLogger -->
<g id="edge10" class="edge"><title>\\classes\\logger\\FileLogger&#45;&gt;\\abstracts\\AbstractLogger</title>
<path fill="none" stroke="black" d="M490.974,-1394.96C467.267,-1392.39 438.208,-1385.68 417.682,-1369 342.229,-1307.69 310.786,-1189.28 299.94,-1135.19"/>
<polygon fill="none" stroke="black" points="303.358,-1134.43 298.039,-1125.26 296.483,-1135.74 303.358,-1134.43"/>
</g>
<!-- \\classes\\logger\\FileLogger&#45;&gt;\\interfaces\\LoggerInterface -->
<g id="edge11" class="edge"><title>\\classes\\logger\\FileLogger&#45;&gt;\\interfaces\\LoggerInterface</title>
<path fill="none" stroke="black" stroke-dasharray="1,5" d="M491.04,-1395.67C443.054,-1394.29 361.791,-1388.87 295.088,-1369"/>
</g>
<!-- \\classes\\console\\Console -->
<g id="node6" class="node"><title>\\classes\\console\\Console</title>
<polygon fill="none" stroke="black" points="565.182,-1280 501.182,-1280 501.182,-1244 565.182,-1244 565.182,-1280"/>
<text text-anchor="middle" x="533.182" y="-1259.2" font-family="Courier,monospace" font-size="11.00">Console</text>
</g>
<!-- \\classes\\console\\ConsoleColors -->
<g id="node7" class="node"><title>\\classes\\console\\ConsoleColors</title>
<polygon fill="none" stroke="black" points="585.182,-1226 481.182,-1226 481.182,-1190 585.182,-1190 585.182,-1226"/>
<text text-anchor="middle" x="533.182" y="-1205.2" font-family="Courier,monospace" font-size="11.00">ConsoleColors</text>
</g>
<!-- \\classes\\entities\\UserStatistics -->
<g id="node8" class="node"><title>\\classes\\entities\\UserStatistics</title>
<polygon fill="none" stroke="black" points="588.682,-932 477.682,-932 477.682,-896 588.682,-896 588.682,-932"/>
<text text-anchor="middle" x="533.182" y="-911.2" font-family="Courier,monospace" font-size="11.00">UserStatistics</text>
</g>
<!-- \\abstracts\\designPatterns\\Entity -->
<g id="node23" class="node"><title>\\abstracts\\designPatterns\\Entity</title>
<polygon fill="none" stroke="black" points="336.088,-945 252.088,-945 252.088,-909 336.088,-909 336.088,-945"/>
<text text-anchor="start" x="260.088" y="-930.2" font-family="Courier,monospace" font-size="11.00">«abstract»</text>
<text text-anchor="start" x="273.588" y="-918.2" font-family="Courier,monospace" font-size="11.00">Entity</text>
</g>
<!-- \\classes\\entities\\UserStatistics&#45;&gt;\\abstracts\\designPatterns\\Entity -->
<g id="edge3" class="edge"><title>\\classes\\entities\\UserStatistics&#45;&gt;\\abstracts\\designPatterns\\Entity</title>
<path fill="none" stroke="black" d="M477.49,-916.999C437.945,-919.167 384.888,-922.076 346.195,-924.198"/>
<polygon fill="none" stroke="black" points="345.979,-920.704 336.186,-924.747 346.363,-927.694 345.979,-920.704"/>
</g>
<!-- \\classes\\entities\\User -->
<g id="node9" class="node"><title>\\classes\\entities\\User</title>
<polygon fill="none" stroke="black" points="560.182,-878 506.182,-878 506.182,-842 560.182,-842 560.182,-878"/>
<text text-anchor="middle" x="533.182" y="-857.2" font-family="Courier,monospace" font-size="11.00">User</text>
</g>
<!-- \\classes\\entities\\User&#45;&gt;\\abstracts\\designPatterns\\Entity -->
<g id="edge6" class="edge"><title>\\classes\\entities\\User&#45;&gt;\\abstracts\\designPatterns\\Entity</title>
<path fill="none" stroke="black" d="M506.102,-865.497C482.791,-870.564 447.769,-878.56 417.682,-887 413.933,-888.051 378.059,-899.771 346.08,-910.255"/>
<polygon fill="none" stroke="black" points="344.732,-907.014 336.321,-913.455 346.913,-913.665 344.732,-907.014"/>
</g>
<!-- \\classes\\entitiesCollection\\UserCollection -->
<g id="node10" class="node"><title>\\classes\\entitiesCollection\\UserCollection</title>
<polygon fill="none" stroke="black" points="588.682,-1012 477.682,-1012 477.682,-976 588.682,-976 588.682,-1012"/>
<text text-anchor="middle" x="533.182" y="-991.2" font-family="Courier,monospace" font-size="11.00">UserCollection</text>
</g>
<!-- \\abstracts\\designPatterns\\Collection -->
<g id="node22" class="node"><title>\\abstracts\\designPatterns\\Collection</title>
<polygon fill="none" stroke="black" points="336.088,-999 252.088,-999 252.088,-963 336.088,-963 336.088,-999"/>
<text text-anchor="start" x="260.088" y="-984.2" font-family="Courier,monospace" font-size="11.00">«abstract»</text>
<text text-anchor="start" x="260.088" y="-972.2" font-family="Courier,monospace" font-size="11.00">Collection</text>
</g>
<!-- \\classes\\entitiesCollection\\UserCollection&#45;&gt;\\abstracts\\designPatterns\\Collection -->
<g id="edge8" class="edge"><title>\\classes\\entitiesCollection\\UserCollection&#45;&gt;\\abstracts\\designPatterns\\Collection</title>
<path fill="none" stroke="black" d="M477.49,-991.001C437.945,-988.833 384.888,-985.924 346.195,-983.802"/>
<polygon fill="none" stroke="black" points="346.363,-980.306 336.186,-983.253 345.979,-987.296 346.363,-980.306"/>
</g>
<!-- \\classes\\LoggerManager -->
<g id="node11" class="node"><title>\\classes\\LoggerManager</title>
<polygon fill="none" stroke="black" points="585.182,-824 481.182,-824 481.182,-788 585.182,-788 585.182,-824"/>
<text text-anchor="middle" x="533.182" y="-803.2" font-family="Courier,monospace" font-size="11.00">LoggerManager</text>
</g>
<!-- \\classes\\ExceptionManager -->
<g id="node12" class="node"><title>\\classes\\ExceptionManager</title>
<polygon fill="none" stroke="black" points="595.682,-770 470.682,-770 470.682,-734 595.682,-734 595.682,-770"/>
<text text-anchor="middle" x="533.182" y="-749.2" font-family="Courier,monospace" font-size="11.00">ExceptionManager</text>
</g>
<!-- \\Exception -->
<g id="node28" class="node"><title>\\Exception</title>
<ellipse fill="none" stroke="black" cx="294.088" cy="-180" rx="50.0912" ry="18"/>
<text text-anchor="middle" x="294.088" y="-176.3" font-family="Times New Roman,serif" font-size="14.00" fill="gray">\Exception</text>
</g>
<!-- \\classes\\ExceptionManager&#45;&gt;\\Exception -->
<g id="edge2" class="edge"><title>\\classes\\ExceptionManager&#45;&gt;\\Exception</title>
<path fill="none" stroke="black" d="M470.668,-749.987C451.432,-746.367 431.618,-739.081 417.682,-725 343.465,-650.014 306.849,-308.826 297.529,-208.085"/>
<polygon fill="none" stroke="black" points="301.008,-207.698 296.618,-198.055 294.037,-208.331 301.008,-207.698"/>
</g>
<!-- \\classes\\PDOStatementCustom -->
<g id="node13" class="node"><title>\\classes\\PDOStatementCustom</title>
<polygon fill="none" stroke="black" points="602.182,-716 464.182,-716 464.182,-680 602.182,-680 602.182,-716"/>
<text text-anchor="middle" x="533.182" y="-695.2" font-family="Courier,monospace" font-size="11.00">PDOStatementCustom</text>
</g>
<!-- \\PDOStatement -->
<g id="node29" class="node"><title>\\PDOStatement</title>
<ellipse fill="none" stroke="black" cx="294.088" cy="-126" rx="67.6881" ry="18"/>
<text text-anchor="middle" x="294.088" y="-122.3" font-family="Times New Roman,serif" font-size="14.00" fill="gray">\PDOStatement</text>
</g>
<!-- \\classes\\PDOStatementCustom&#45;&gt;\\PDOStatement -->
<g id="edge7" class="edge"><title>\\classes\\PDOStatementCustom&#45;&gt;\\PDOStatement</title>
<path fill="none" stroke="black" d="M464.036,-695.721C446.624,-691.793 429.506,-684.399 417.682,-671 264.472,-497.393 501.72,-337.704 362.088,-153 359.45,-149.511 356.288,-146.472 352.793,-143.824"/>
<polygon fill="none" stroke="black" points="354.444,-140.727 344.123,-138.33 350.697,-146.639 354.444,-140.727"/>
</g>
<!-- \\classes\\Benchmark -->
<g id="node14" class="node"><title>\\classes\\Benchmark</title>
<polygon fill="none" stroke="black" points="571.682,-662 494.682,-662 494.682,-626 571.682,-626 571.682,-662"/>
<text text-anchor="middle" x="533.182" y="-641.2" font-family="Courier,monospace" font-size="11.00">Benchmark</text>
</g>
<!-- \\classes\\DataBase -->
<g id="node15" class="node"><title>\\classes\\DataBase</title>
<polygon fill="none" stroke="black" points="568.682,-608 497.682,-608 497.682,-572 568.682,-572 568.682,-608"/>
<text text-anchor="middle" x="533.182" y="-587.2" font-family="Courier,monospace" font-size="11.00">DataBase</text>
</g>
<!-- \\classes\\IniManager -->
<g id="node16" class="node"><title>\\classes\\IniManager</title>
<polygon fill="none" stroke="black" points="575.182,-554 491.182,-554 491.182,-518 575.182,-518 575.182,-554"/>
<text text-anchor="middle" x="533.182" y="-533.2" font-family="Courier,monospace" font-size="11.00">IniManager</text>
</g>
<!-- \\classes\\ImagesManager -->
<g id="node17" class="node"><title>\\classes\\ImagesManager</title>
<polygon fill="none" stroke="black" points="585.182,-500 481.182,-500 481.182,-464 585.182,-464 585.182,-500"/>
<text text-anchor="middle" x="533.182" y="-479.2" font-family="Courier,monospace" font-size="11.00">ImagesManager</text>
</g>
<!-- \\traits\\FiltersTrait -->
<g id="node18" class="node"><title>\\traits\\FiltersTrait</title>
<polygon fill="none" stroke="black" points="582.182,-420 484.182,-420 484.182,-384 582.182,-384 582.182,-420"/>
<text text-anchor="middle" x="533.182" y="-399.2" font-family="Courier,monospace" font-size="11.00">FiltersTrait</text>
</g>
<!-- \\traits\\PrettyOutputTrait -->
<g id="node19" class="node"><title>\\traits\\PrettyOutputTrait</title>
<polygon fill="none" stroke="black" points="598.682,-366 467.682,-366 467.682,-330 598.682,-330 598.682,-366"/>
<text text-anchor="middle" x="533.182" y="-345.2" font-family="Courier,monospace" font-size="11.00">PrettyOutputTrait</text>
</g>
<!-- \\traits\\EchoTrait -->
<g id="node20" class="node"><title>\\traits\\EchoTrait</title>
<polygon fill="none" stroke="black" points="571.682,-312 494.682,-312 494.682,-276 571.682,-276 571.682,-312"/>
<text text-anchor="middle" x="533.182" y="-291.2" font-family="Courier,monospace" font-size="11.00">EchoTrait</text>
</g>
<!-- \\traits\\ShortcutsTrait -->
<g id="node21" class="node"><title>\\traits\\ShortcutsTrait</title>
<polygon fill="none" stroke="black" points="588.682,-258 477.682,-258 477.682,-222 588.682,-222 588.682,-258"/>
<text text-anchor="middle" x="533.182" y="-237.2" font-family="Courier,monospace" font-size="11.00">ShortcutsTrait</text>
</g>
<!-- \\Iterator -->
<g id="node30" class="node"><title>\\Iterator</title>
<ellipse fill="none" stroke="black" cx="83" cy="-72" rx="39.7935" ry="18"/>
<text text-anchor="middle" x="83" y="-68.3" font-family="Times New Roman,serif" font-size="14.00" fill="gray">\Iterator</text>
</g>
<!-- \\abstracts\\designPatterns\\Collection&#45;&gt;\\Iterator -->
<g id="edge12" class="edge"><title>\\abstracts\\designPatterns\\Collection&#45;&gt;\\Iterator</title>
<path fill="none" stroke="black" stroke-dasharray="1,5" d="M251.813,-972.435C241.929,-968.436 232.416,-962.578 226.088,-954 112.893,-800.572 269.011,-251.443 154.494,-99 148.413,-90.9056 139.583,-85.2377 130.217,-81.269"/>
<polygon fill="none" stroke="black" points="131.348,-77.9562 120.754,-77.8397 128.963,-84.5374 131.348,-77.9562"/>
</g>
<!-- \\ArrayAccess -->
<g id="node31" class="node"><title>\\ArrayAccess</title>
<ellipse fill="none" stroke="black" cx="83" cy="-18" rx="60.3893" ry="18"/>
<text text-anchor="middle" x="83" y="-14.3" font-family="Times New Roman,serif" font-size="14.00" fill="gray">\ArrayAccess</text>
</g>
<!-- \\abstracts\\designPatterns\\Collection&#45;&gt;\\ArrayAccess -->
<g id="edge13" class="edge"><title>\\abstracts\\designPatterns\\Collection&#45;&gt;\\ArrayAccess</title>
<path fill="none" stroke="black" stroke-dasharray="1,5" d="M251.784,-972.456C241.9,-968.457 232.395,-962.594 226.088,-954 106.195,-790.651 275.795,-207.306 154.494,-45 151.061,-40.4073 146.743,-36.5958 141.942,-33.4326"/>
<polygon fill="none" stroke="black" points="143.311,-30.1898 132.867,-28.4103 139.922,-36.3146 143.311,-30.1898"/>
</g>
<!-- \\Countable -->
<g id="node32" class="node"><title>\\Countable</title>
<ellipse fill="none" stroke="black" cx="83" cy="-180" rx="50.0912" ry="18"/>
<text text-anchor="middle" x="83" y="-176.3" font-family="Times New Roman,serif" font-size="14.00" fill="gray">\Countable</text>
</g>
<!-- \\abstracts\\designPatterns\\Collection&#45;&gt;\\Countable -->
<g id="edge14" class="edge"><title>\\abstracts\\designPatterns\\Collection&#45;&gt;\\Countable</title>
<path fill="none" stroke="black" stroke-dasharray="1,5" d="M252.016,-971.865C242.253,-967.873 232.75,-962.16 226.088,-954 129.536,-835.729 93.271,-334 85.6199,-208.531"/>
<polygon fill="none" stroke="black" points="89.0942,-207.993 85.0045,-198.219 82.1066,-208.41 89.0942,-207.993"/>
</g>
<!-- \\SeekableIterator -->
<g id="node33" class="node"><title>\\SeekableIterator</title>
<ellipse fill="none" stroke="black" cx="83" cy="-126" rx="71.4873" ry="18"/>
<text text-anchor="middle" x="83" y="-122.3" font-family="Times New Roman,serif" font-size="14.00" fill="gray">\SeekableIterator</text>
</g>
<!-- \\abstracts\\designPatterns\\Collection&#45;&gt;\\SeekableIterator -->
<g id="edge15" class="edge"><title>\\abstracts\\designPatterns\\Collection&#45;&gt;\\SeekableIterator</title>
<path fill="none" stroke="black" stroke-dasharray="1,5" d="M251.845,-972.411C241.961,-968.412 232.44,-962.56 226.088,-954 119.588,-810.491 262.231,-295.583 154.494,-153 151.827,-149.471 148.638,-146.403 145.112,-143.736"/>
<polygon fill="none" stroke="black" points="146.681,-140.588 136.356,-138.213 142.946,-146.509 146.681,-140.588"/>
</g>
<!-- \\abstracts\\AbstractLogger&#45;&gt;\\interfaces\\LoggerInterface -->
<g id="edge9" class="edge"><title>\\abstracts\\AbstractLogger&#45;&gt;\\interfaces\\LoggerInterface</title>
<path fill="none" stroke="black" stroke-dasharray="1,5" d="M262.685,-1125.03C225.83,-1146.89 163.65,-1183.76 123.22,-1207.74"/>
<polygon fill="none" stroke="black" points="121.256,-1204.84 114.44,-1212.95 124.826,-1210.86 121.256,-1204.84"/>
</g>
<!-- \\abstracts\\API -->
<g id="node26" class="node"><title>\\abstracts\\API</title>
<polygon fill="none" stroke="black" points="336.088,-891 252.088,-891 252.088,-855 336.088,-855 336.088,-891"/>
<text text-anchor="start" x="260.088" y="-876.2" font-family="Courier,monospace" font-size="11.00">«abstract»</text>
<text text-anchor="start" x="283.588" y="-864.2" font-family="Courier,monospace" font-size="11.00">API</text>
</g>
</g>
</svg>
