<?xml version="1.0" encoding="UTF-8" standalone="no"?>
<!DOCTYPE svg PUBLIC "-//W3C//DTD SVG 1.1//EN"
 "http://www.w3.org/Graphics/SVG/1.1/DTD/svg11.dtd">
<!-- Generated by graphviz version 2.38.0 (20140413.2041)
 -->
<!-- Title: G Pages: 1 -->
<svg width="623pt" height="1306pt"
 viewBox="0.00 0.00 623.49 1306.00" xmlns="http://www.w3.org/2000/svg" xmlns:xlink="http://www.w3.org/1999/xlink">
<g id="graph0" class="graph" transform="scale(1 1) rotate(0) translate(4 1302)">
<title>G</title>
<polygon fill="white" stroke="none" points="-4,4 -4,-1302 619.494,-1302 619.494,4 -4,4"/>
<g id="clust1" class="cluster"><title>cluster_Global</title>
<path fill="none" stroke="gray" d="M20,-206C20,-206 595.494,-206 595.494,-206 601.494,-206 607.494,-212 607.494,-218 607.494,-218 607.494,-1278 607.494,-1278 607.494,-1284 601.494,-1290 595.494,-1290 595.494,-1290 20,-1290 20,-1290 14,-1290 8,-1284 8,-1278 8,-1278 8,-218 8,-218 8,-212 14,-206 20,-206"/>
<text text-anchor="middle" x="307.747" y="-1277.2" font-family="Times New Roman,serif" font-size="11.00" fill="gray">Global</text>
</g>
<g id="clust2" class="cluster"><title>cluster_\utilities</title>
<path fill="none" stroke="gray" d="M28,-214C28,-214 587.494,-214 587.494,-214 593.494,-214 599.494,-220 599.494,-226 599.494,-226 599.494,-1250 599.494,-1250 599.494,-1256 593.494,-1262 587.494,-1262 587.494,-1262 28,-1262 28,-1262 22,-1262 16,-1256 16,-1250 16,-1250 16,-226 16,-226 16,-220 22,-214 28,-214"/>
<text text-anchor="middle" x="307.747" y="-1249.2" font-family="Times New Roman,serif" font-size="11.00" fill="gray">utilities</text>
</g>
<g id="clust3" class="cluster"><title>cluster_\utilities\abstracts</title>
<path fill="none" stroke="gray" d="M238.494,-401C238.494,-401 357.494,-401 357.494,-401 363.494,-401 369.494,-407 369.494,-413 369.494,-413 369.494,-685 369.494,-685 369.494,-691 363.494,-697 357.494,-697 357.494,-697 238.494,-697 238.494,-697 232.494,-697 226.494,-691 226.494,-685 226.494,-685 226.494,-413 226.494,-413 226.494,-407 232.494,-401 238.494,-401"/>
<text text-anchor="middle" x="297.994" y="-684.2" font-family="Times New Roman,serif" font-size="11.00" fill="gray">abstracts</text>
</g>
<g id="clust4" class="cluster"><title>cluster_\utilities\abstracts\designPatterns</title>
<path fill="none" stroke="gray" d="M249.994,-409C249.994,-409 345.994,-409 345.994,-409 351.994,-409 357.994,-415 357.994,-421 357.994,-421 357.994,-577 357.994,-577 357.994,-583 351.994,-589 345.994,-589 345.994,-589 249.994,-589 249.994,-589 243.994,-589 237.994,-583 237.994,-577 237.994,-577 237.994,-421 237.994,-421 237.994,-415 243.994,-409 249.994,-409"/>
<text text-anchor="middle" x="297.994" y="-576.2" font-family="Times New Roman,serif" font-size="11.00" fill="gray">designPatterns</text>
</g>
<g id="clust5" class="cluster"><title>cluster_\utilities\abstracts\logger</title>
<path fill="none" stroke="gray" d="M246.494,-597C246.494,-597 349.494,-597 349.494,-597 355.494,-597 361.494,-603 361.494,-609 361.494,-609 361.494,-657 361.494,-657 361.494,-663 355.494,-669 349.494,-669 349.494,-669 246.494,-669 246.494,-669 240.494,-669 234.494,-663 234.494,-657 234.494,-657 234.494,-609 234.494,-609 234.494,-603 240.494,-597 246.494,-597"/>
<text text-anchor="middle" x="297.994" y="-656.2" font-family="Times New Roman,serif" font-size="11.00" fill="gray">logger</text>
</g>
<g id="clust6" class="cluster"><title>cluster_\utilities\classes</title>
<path fill="none" stroke="gray" d="M434.994,-356C434.994,-356 573.994,-356 573.994,-356 579.994,-356 585.994,-362 585.994,-368 585.994,-368 585.994,-1222 585.994,-1222 585.994,-1228 579.994,-1234 573.994,-1234 573.994,-1234 434.994,-1234 434.994,-1234 428.994,-1234 422.994,-1228 422.994,-1222 422.994,-1222 422.994,-368 422.994,-368 422.994,-362 428.994,-356 434.994,-356"/>
<text text-anchor="middle" x="504.494" y="-1221.2" font-family="Times New Roman,serif" font-size="11.00" fill="gray">classes</text>
</g>
<g id="clust8" class="cluster"><title>cluster_\utilities\classes\entitiesCollection</title>
<path fill="none" stroke="gray" d="M452.994,-1134C452.994,-1134 555.994,-1134 555.994,-1134 561.994,-1134 567.994,-1140 567.994,-1146 567.994,-1146 567.994,-1194 567.994,-1194 567.994,-1200 561.994,-1206 555.994,-1206 555.994,-1206 452.994,-1206 452.994,-1206 446.994,-1206 440.994,-1200 440.994,-1194 440.994,-1194 440.994,-1146 440.994,-1146 440.994,-1140 446.994,-1134 452.994,-1134"/>
<text text-anchor="middle" x="504.494" y="-1193.2" font-family="Times New Roman,serif" font-size="11.00" fill="gray">entitiesCollection</text>
</g>
<g id="clust9" class="cluster"><title>cluster_\utilities\classes\entitiesManager</title>
<path fill="none" stroke="gray" d="M442.994,-1054C442.994,-1054 565.994,-1054 565.994,-1054 571.994,-1054 577.994,-1060 577.994,-1066 577.994,-1066 577.994,-1114 577.994,-1114 577.994,-1120 571.994,-1126 565.994,-1126 565.994,-1126 442.994,-1126 442.994,-1126 436.994,-1126 430.994,-1120 430.994,-1114 430.994,-1114 430.994,-1066 430.994,-1066 430.994,-1060 436.994,-1054 442.994,-1054"/>
<text text-anchor="middle" x="504.494" y="-1113.2" font-family="Times New Roman,serif" font-size="11.00" fill="gray">entitiesManager</text>
</g>
<g id="clust7" class="cluster"><title>cluster_\utilities\classes\entities</title>
<path fill="none" stroke="gray" d="M481.494,-974C481.494,-974 527.494,-974 527.494,-974 533.494,-974 539.494,-980 539.494,-986 539.494,-986 539.494,-1034 539.494,-1034 539.494,-1040 533.494,-1046 527.494,-1046 527.494,-1046 481.494,-1046 481.494,-1046 475.494,-1046 469.494,-1040 469.494,-1034 469.494,-1034 469.494,-986 469.494,-986 469.494,-980 475.494,-974 481.494,-974"/>
<text text-anchor="middle" x="504.494" y="-1033.2" font-family="Times New Roman,serif" font-size="11.00" fill="gray">entities</text>
</g>
<g id="clust10" class="cluster"><title>cluster_\utilities\classes\exception</title>
<path fill="none" stroke="gray" d="M445.994,-894C445.994,-894 562.994,-894 562.994,-894 568.994,-894 574.994,-900 574.994,-906 574.994,-906 574.994,-954 574.994,-954 574.994,-960 568.994,-966 562.994,-966 562.994,-966 445.994,-966 445.994,-966 439.994,-966 433.994,-960 433.994,-954 433.994,-954 433.994,-906 433.994,-906 433.994,-900 439.994,-894 445.994,-894"/>
<text text-anchor="middle" x="504.494" y="-953.2" font-family="Times New Roman,serif" font-size="11.00" fill="gray">exception</text>
</g>
<g id="clust11" class="cluster"><title>cluster_\utilities\classes\ini</title>
<path fill="none" stroke="gray" d="M466.494,-814C466.494,-814 542.494,-814 542.494,-814 548.494,-814 554.494,-820 554.494,-826 554.494,-826 554.494,-874 554.494,-874 554.494,-880 548.494,-886 542.494,-886 542.494,-886 466.494,-886 466.494,-886 460.494,-886 454.494,-880 454.494,-874 454.494,-874 454.494,-826 454.494,-826 454.494,-820 460.494,-814 466.494,-814"/>
<text text-anchor="middle" x="504.494" y="-873.2" font-family="Times New Roman,serif" font-size="11.00" fill="gray">ini</text>
</g>
<g id="clust12" class="cluster"><title>cluster_\utilities\classes\logger</title>
<path fill="none" stroke="gray" d="M456.494,-518C456.494,-518 552.494,-518 552.494,-518 558.494,-518 564.494,-524 564.494,-530 564.494,-530 564.494,-794 564.494,-794 564.494,-800 558.494,-806 552.494,-806 552.494,-806 456.494,-806 456.494,-806 450.494,-806 444.494,-800 444.494,-794 444.494,-794 444.494,-530 444.494,-530 444.494,-524 450.494,-518 456.494,-518"/>
<text text-anchor="middle" x="504.494" y="-793.2" font-family="Times New Roman,serif" font-size="11.00" fill="gray">logger</text>
</g>
<g id="clust13" class="cluster"><title>cluster_\utilities\interfaces</title>
<path fill="none" stroke="gray" d="M36,-630C36,-630 162,-630 162,-630 168,-630 174,-636 174,-642 174,-642 174,-726 174,-726 174,-732 168,-738 162,-738 162,-738 36,-738 36,-738 30,-738 24,-732 24,-726 24,-726 24,-642 24,-642 24,-636 30,-630 36,-630"/>
<text text-anchor="middle" x="99" y="-725.2" font-family="Times New Roman,serif" font-size="11.00" fill="gray">interfaces</text>
</g>
<g id="clust14" class="cluster"><title>cluster_\utilities\interfaces\logger</title>
<path fill="none" stroke="gray" d="M44,-638C44,-638 154,-638 154,-638 160,-638 166,-644 166,-650 166,-650 166,-698 166,-698 166,-704 160,-710 154,-710 154,-710 44,-710 44,-710 38,-710 32,-704 32,-698 32,-698 32,-650 32,-650 32,-644 38,-638 44,-638"/>
<text text-anchor="middle" x="99" y="-697.2" font-family="Times New Roman,serif" font-size="11.00" fill="gray">logger</text>
</g>
<g id="clust15" class="cluster"><title>cluster_\utilities\traits</title>
<path fill="none" stroke="gray" d="M429.494,-222C429.494,-222 579.494,-222 579.494,-222 585.494,-222 591.494,-228 591.494,-234 591.494,-234 591.494,-336 591.494,-336 591.494,-342 585.494,-348 579.494,-348 579.494,-348 429.494,-348 429.494,-348 423.494,-348 417.494,-342 417.494,-336 417.494,-336 417.494,-234 417.494,-234 417.494,-228 423.494,-222 429.494,-222"/>
<text text-anchor="middle" x="504.494" y="-335.2" font-family="Times New Roman,serif" font-size="11.00" fill="gray">traits</text>
</g>
<!-- \\utilities\\abstracts\\designPatterns\\Collection -->
<g id="node1" class="node"><title>\\utilities\\abstracts\\designPatterns\\Collection</title>
<polygon fill="none" stroke="black" points="339.994,-561 255.994,-561 255.994,-525 339.994,-525 339.994,-561"/>
<text text-anchor="start" x="263.994" y="-546.2" font-family="Courier,monospace" font-size="11.00">«abstract»</text>
<text text-anchor="start" x="263.994" y="-534.2" font-family="Courier,monospace" font-size="11.00">Collection</text>
</g>
<!-- \\Iterator -->
<g id="node21" class="node"><title>\\Iterator</title>
<ellipse fill="none" stroke="black" cx="99" cy="-18" rx="39.7935" ry="18"/>
<text text-anchor="middle" x="99" y="-14.3" font-family="Times New Roman,serif" font-size="14.00" fill="gray">\Iterator</text>
</g>
<!-- \\utilities\\abstracts\\designPatterns\\Collection&#45;&gt;\\Iterator -->
<g id="edge1" class="edge"><title>\\utilities\\abstracts\\designPatterns\\Collection&#45;&gt;\\Iterator</title>
<path fill="none" stroke="black" stroke-dasharray="1,5" d="M255.975,-535.57C244.804,-531.576 233.788,-525.437 226.494,-516 97.6827,-349.349 304.131,-210.622 174,-45 167.143,-36.2729 157.197,-30.3656 146.809,-26.3673"/>
<polygon fill="none" stroke="black" points="147.814,-23.0134 137.221,-23.2059 145.622,-29.6614 147.814,-23.0134"/>
</g>
<!-- \\ArrayAccess -->
<g id="node22" class="node"><title>\\ArrayAccess</title>
<ellipse fill="none" stroke="black" cx="99" cy="-180" rx="60.3893" ry="18"/>
<text text-anchor="middle" x="99" y="-176.3" font-family="Times New Roman,serif" font-size="14.00" fill="gray">\ArrayAccess</text>
</g>
<!-- \\utilities\\abstracts\\designPatterns\\Collection&#45;&gt;\\ArrayAccess -->
<g id="edge2" class="edge"><title>\\utilities\\abstracts\\designPatterns\\Collection&#45;&gt;\\ArrayAccess</title>
<path fill="none" stroke="black" stroke-dasharray="1,5" d="M255.898,-533.807C245.251,-529.794 234.534,-524.086 226.494,-516 138.418,-427.422 110.721,-271.616 102.844,-208.123"/>
<polygon fill="none" stroke="black" points="106.306,-207.587 101.669,-198.061 99.3531,-208.4 106.306,-207.587"/>
</g>
<!-- \\Countable -->
<g id="node23" class="node"><title>\\Countable</title>
<ellipse fill="none" stroke="black" cx="99" cy="-126" rx="50.0912" ry="18"/>
<text text-anchor="middle" x="99" y="-122.3" font-family="Times New Roman,serif" font-size="14.00" fill="gray">\Countable</text>
</g>
<!-- \\utilities\\abstracts\\designPatterns\\Collection&#45;&gt;\\Countable -->
<g id="edge3" class="edge"><title>\\utilities\\abstracts\\designPatterns\\Collection&#45;&gt;\\Countable</title>
<path fill="none" stroke="black" stroke-dasharray="1,5" d="M255.798,-535.288C244.759,-531.287 233.859,-525.214 226.494,-516 124.713,-388.668 276.789,-279.52 174,-153 168.608,-146.363 161.435,-141.357 153.672,-137.582"/>
<polygon fill="none" stroke="black" points="154.937,-134.317 144.361,-133.691 152.238,-140.776 154.937,-134.317"/>
</g>
<!-- \\SeekableIterator -->
<g id="node24" class="node"><title>\\SeekableIterator</title>
<ellipse fill="none" stroke="black" cx="99" cy="-72" rx="71.4873" ry="18"/>
<text text-anchor="middle" x="99" y="-68.3" font-family="Times New Roman,serif" font-size="14.00" fill="gray">\SeekableIterator</text>
</g>
<!-- \\utilities\\abstracts\\designPatterns\\Collection&#45;&gt;\\SeekableIterator -->
<g id="edge4" class="edge"><title>\\utilities\\abstracts\\designPatterns\\Collection&#45;&gt;\\SeekableIterator</title>
<path fill="none" stroke="black" stroke-dasharray="1,5" d="M255.691,-535.373C244.648,-531.374 233.774,-525.281 226.494,-516 111.209,-369.023 290.449,-245.056 174,-99 170.862,-95.0636 167.096,-91.701 162.947,-88.8286"/>
<polygon fill="none" stroke="black" points="164.376,-85.6099 153.975,-83.5942 160.849,-91.6563 164.376,-85.6099"/>
</g>
<!-- \\utilities\\abstracts\\designPatterns\\Entity -->
<g id="node2" class="node"><title>\\utilities\\abstracts\\designPatterns\\Entity</title>
<polygon fill="none" stroke="black" points="339.994,-453 255.994,-453 255.994,-417 339.994,-417 339.994,-453"/>
<text text-anchor="start" x="263.994" y="-438.2" font-family="Courier,monospace" font-size="11.00">«abstract»</text>
<text text-anchor="start" x="277.494" y="-426.2" font-family="Courier,monospace" font-size="11.00">Entity</text>
</g>
<!-- \\utilities\\abstracts\\designPatterns\\EntityManager -->
<g id="node3" class="node"><title>\\utilities\\abstracts\\designPatterns\\EntityManager</title>
<polygon fill="none" stroke="black" points="349.994,-507 245.994,-507 245.994,-471 349.994,-471 349.994,-507"/>
<text text-anchor="start" x="263.994" y="-492.2" font-family="Courier,monospace" font-size="11.00">«abstract»</text>
<text text-anchor="start" x="253.994" y="-480.2" font-family="Courier,monospace" font-size="11.00">EntityManager</text>
</g>
<!-- \\utilities\\abstracts\\logger\\AbstractLogger -->
<g id="node4" class="node"><title>\\utilities\\abstracts\\logger\\AbstractLogger</title>
<polygon fill="none" stroke="black" points="353.494,-641 242.494,-641 242.494,-605 353.494,-605 353.494,-641"/>
<text text-anchor="start" x="263.994" y="-626.2" font-family="Courier,monospace" font-size="11.00">«abstract»</text>
<text text-anchor="start" x="250.494" y="-614.2" font-family="Courier,monospace" font-size="11.00">AbstractLogger</text>
</g>
<!-- \\utilities\\interfaces\\logger\\LoggerInterface -->
<g id="node18" class="node"><title>\\utilities\\interfaces\\logger\\LoggerInterface</title>
<polygon fill="none" stroke="black" points="158,-682 40,-682 40,-646 158,-646 158,-682"/>
<text text-anchor="middle" x="99" y="-661.2" font-family="Courier,monospace" font-size="11.00">LoggerInterface</text>
</g>
<!-- \\utilities\\abstracts\\logger\\AbstractLogger&#45;&gt;\\utilities\\interfaces\\logger\\LoggerInterface -->
<g id="edge5" class="edge"><title>\\utilities\\abstracts\\logger\\AbstractLogger&#45;&gt;\\utilities\\interfaces\\logger\\LoggerInterface</title>
<path fill="none" stroke="black" stroke-dasharray="1,5" d="M242.382,-634.366C219.364,-639.157 192.327,-644.784 168.033,-649.84"/>
<polygon fill="none" stroke="black" points="167.242,-646.43 158.165,-651.894 168.668,-653.283 167.242,-646.43"/>
</g>
<!-- \\utilities\\classes\\entities\\User -->
<g id="node5" class="node"><title>\\utilities\\classes\\entities\\User</title>
<polygon fill="none" stroke="black" points="531.494,-1018 477.494,-1018 477.494,-982 531.494,-982 531.494,-1018"/>
<text text-anchor="middle" x="504.494" y="-997.2" font-family="Courier,monospace" font-size="11.00">User</text>
</g>
<!-- \\utilities\\classes\\entities\\User&#45;&gt;\\utilities\\abstracts\\designPatterns\\Entity -->
<g id="edge6" class="edge"><title>\\utilities\\classes\\entities\\User&#45;&gt;\\utilities\\abstracts\\designPatterns\\Entity</title>
<path fill="none" stroke="black" d="M477.392,-998.209C457.703,-995.374 431.734,-988.172 417.494,-970 277.611,-791.496 506.673,-642.59 369.494,-462 364.308,-455.174 357.171,-450.073 349.417,-446.262"/>
<polygon fill="none" stroke="black" points="350.686,-442.999 340.111,-442.354 347.976,-449.453 350.686,-442.999"/>
</g>
<!-- \\utilities\\classes\\entitiesCollection\\UserCollection -->
<g id="node6" class="node"><title>\\utilities\\classes\\entitiesCollection\\UserCollection</title>
<polygon fill="none" stroke="black" points="559.994,-1178 448.994,-1178 448.994,-1142 559.994,-1142 559.994,-1178"/>
<text text-anchor="middle" x="504.494" y="-1157.2" font-family="Courier,monospace" font-size="11.00">UserCollection</text>
</g>
<!-- \\utilities\\classes\\entitiesCollection\\UserCollection&#45;&gt;\\utilities\\abstracts\\designPatterns\\Collection -->
<g id="edge7" class="edge"><title>\\utilities\\classes\\entitiesCollection\\UserCollection&#45;&gt;\\utilities\\abstracts\\designPatterns\\Collection</title>
<path fill="none" stroke="black" d="M448.914,-1151.27C436.87,-1146.81 425.369,-1140.1 417.494,-1130 343.833,-1035.51 429.183,-696.882 369.494,-593 363.596,-582.736 354.638,-574.05 345.066,-566.943"/>
<polygon fill="none" stroke="black" points="346.784,-563.877 336.558,-561.105 342.823,-569.649 346.784,-563.877"/>
</g>
<!-- \\utilities\\classes\\entitiesManager\\UserEntityManager -->
<g id="node7" class="node"><title>\\utilities\\classes\\entitiesManager\\UserEntityManager</title>
<polygon fill="none" stroke="black" points="569.994,-1098 438.994,-1098 438.994,-1062 569.994,-1062 569.994,-1098"/>
<text text-anchor="middle" x="504.494" y="-1077.2" font-family="Courier,monospace" font-size="11.00">UserEntityManager</text>
</g>
<!-- \\utilities\\classes\\entitiesManager\\UserEntityManager&#45;&gt;\\utilities\\abstracts\\designPatterns\\EntityManager -->
<g id="edge8" class="edge"><title>\\utilities\\classes\\entitiesManager\\UserEntityManager&#45;&gt;\\utilities\\abstracts\\designPatterns\\EntityManager</title>
<path fill="none" stroke="black" d="M438.859,-1066.9C430.633,-1062.73 423.134,-1057.23 417.494,-1050 344.218,-956.052 441.347,-611.04 369.494,-516 366.537,-512.089 362.939,-508.745 358.951,-505.885"/>
<polygon fill="none" stroke="black" points="360.667,-502.833 350.295,-500.668 357.053,-508.828 360.667,-502.833"/>
</g>
<!-- \\utilities\\classes\\exception\\ExceptionManager -->
<g id="node8" class="node"><title>\\utilities\\classes\\exception\\ExceptionManager</title>
<polygon fill="none" stroke="black" points="566.994,-938 441.994,-938 441.994,-902 566.994,-902 566.994,-938"/>
<text text-anchor="middle" x="504.494" y="-917.2" font-family="Courier,monospace" font-size="11.00">ExceptionManager</text>
</g>
<!-- \\Exception -->
<g id="node25" class="node"><title>\\Exception</title>
<ellipse fill="none" stroke="black" cx="297.994" cy="-180" rx="50.0912" ry="18"/>
<text text-anchor="middle" x="297.994" y="-176.3" font-family="Times New Roman,serif" font-size="14.00" fill="gray">\Exception</text>
</g>
<!-- \\utilities\\classes\\exception\\ExceptionManager&#45;&gt;\\Exception -->
<g id="edge9" class="edge"><title>\\utilities\\classes\\exception\\ExceptionManager&#45;&gt;\\Exception</title>
<path fill="none" stroke="black" d="M441.928,-908.307C432.525,-903.985 423.851,-898.076 417.494,-890 350.501,-804.901 391.132,-511.121 369.494,-405 354.647,-332.188 325.406,-249.501 309.651,-207.557"/>
<polygon fill="none" stroke="black" points="312.861,-206.151 306.044,-198.041 306.315,-208.632 312.861,-206.151"/>
</g>
<!-- \\utilities\\classes\\ini\\IniManager -->
<g id="node9" class="node"><title>\\utilities\\classes\\ini\\IniManager</title>
<polygon fill="none" stroke="black" points="546.494,-858 462.494,-858 462.494,-822 546.494,-822 546.494,-858"/>
<text text-anchor="middle" x="504.494" y="-837.2" font-family="Courier,monospace" font-size="11.00">IniManager</text>
</g>
<!-- \\utilities\\classes\\logger\\ConsoleColors -->
<g id="node10" class="node"><title>\\utilities\\classes\\logger\\ConsoleColors</title>
<polygon fill="none" stroke="black" points="556.494,-778 452.494,-778 452.494,-742 556.494,-742 556.494,-778"/>
<text text-anchor="middle" x="504.494" y="-757.2" font-family="Courier,monospace" font-size="11.00">ConsoleColors</text>
</g>
<!-- \\utilities\\classes\\logger\\ConsoleLogger -->
<g id="node11" class="node"><title>\\utilities\\classes\\logger\\ConsoleLogger</title>
<polygon fill="none" stroke="black" points="556.494,-670 452.494,-670 452.494,-634 556.494,-634 556.494,-670"/>
<text text-anchor="middle" x="504.494" y="-649.2" font-family="Courier,monospace" font-size="11.00">ConsoleLogger</text>
</g>
<!-- \\utilities\\classes\\logger\\ConsoleLogger&#45;&gt;\\utilities\\abstracts\\logger\\AbstractLogger -->
<g id="edge10" class="edge"><title>\\utilities\\classes\\logger\\ConsoleLogger&#45;&gt;\\utilities\\abstracts\\logger\\AbstractLogger</title>
<path fill="none" stroke="black" d="M452.417,-644.757C425.537,-640.945 392.3,-636.232 363.642,-632.168"/>
<polygon fill="none" stroke="black" points="364.106,-628.699 353.714,-630.76 363.124,-635.629 364.106,-628.699"/>
</g>
<!-- \\utilities\\classes\\logger\\ConsoleLogger&#45;&gt;\\utilities\\interfaces\\logger\\LoggerInterface -->
<g id="edge11" class="edge"><title>\\utilities\\classes\\logger\\ConsoleLogger&#45;&gt;\\utilities\\interfaces\\logger\\LoggerInterface</title>
<path fill="none" stroke="black" stroke-dasharray="1,5" d="M452.084,-667.259C396.671,-683.436 314.313,-706.598 298.994,-706"/>
<path fill="none" stroke="black" stroke-dasharray="1,5" d="M296.994,-706C253.531,-704.304 205.797,-694.341 168.204,-684.545"/>
<polygon fill="none" stroke="black" points="168.943,-681.12 158.379,-681.928 167.142,-687.884 168.943,-681.12"/>
</g>
<!-- \\utilities\\classes\\logger\\FileLogger -->
<g id="node12" class="node"><title>\\utilities\\classes\\logger\\FileLogger</title>
<polygon fill="none" stroke="black" points="546.494,-724 462.494,-724 462.494,-688 546.494,-688 546.494,-724"/>
<text text-anchor="middle" x="504.494" y="-703.2" font-family="Courier,monospace" font-size="11.00">FileLogger</text>
</g>
<!-- \\utilities\\classes\\logger\\FileLogger&#45;&gt;\\utilities\\abstracts\\logger\\AbstractLogger -->
<g id="edge12" class="edge"><title>\\utilities\\classes\\logger\\FileLogger&#45;&gt;\\utilities\\abstracts\\logger\\AbstractLogger</title>
<path fill="none" stroke="black" d="M462.41,-694.358C448.052,-689.96 431.922,-684.643 417.494,-679 392.369,-669.173 365.099,-656.437 343.06,-645.594"/>
<polygon fill="none" stroke="black" points="344.47,-642.386 333.956,-641.077 341.359,-648.657 344.47,-642.386"/>
</g>
<!-- \\utilities\\classes\\logger\\FileLogger&#45;&gt;\\utilities\\interfaces\\logger\\LoggerInterface -->
<g id="edge13" class="edge"><title>\\utilities\\classes\\logger\\FileLogger&#45;&gt;\\utilities\\interfaces\\logger\\LoggerInterface</title>
<path fill="none" stroke="black" stroke-dasharray="1,5" d="M462.347,-706.941C421.038,-707.664 355.579,-708.208 298.994,-706"/>
</g>
<!-- \\utilities\\classes\\logger\\LoggerManager -->
<g id="node13" class="node"><title>\\utilities\\classes\\logger\\LoggerManager</title>
<polygon fill="none" stroke="black" points="556.494,-616 452.494,-616 452.494,-580 556.494,-580 556.494,-616"/>
<text text-anchor="middle" x="504.494" y="-595.2" font-family="Courier,monospace" font-size="11.00">LoggerManager</text>
</g>
<!-- \\utilities\\classes\\logger\\LogLevel -->
<g id="node14" class="node"><title>\\utilities\\classes\\logger\\LogLevel</title>
<polygon fill="none" stroke="black" points="539.994,-562 468.994,-562 468.994,-526 539.994,-526 539.994,-562"/>
<text text-anchor="middle" x="504.494" y="-541.2" font-family="Courier,monospace" font-size="11.00">LogLevel</text>
</g>
<!-- \\utilities\\classes\\Benchmark -->
<g id="node15" class="node"><title>\\utilities\\classes\\Benchmark</title>
<polygon fill="none" stroke="black" points="542.994,-508 465.994,-508 465.994,-472 542.994,-472 542.994,-508"/>
<text text-anchor="middle" x="504.494" y="-487.2" font-family="Courier,monospace" font-size="11.00">Benchmark</text>
</g>
<!-- \\utilities\\classes\\Console -->
<g id="node16" class="node"><title>\\utilities\\classes\\Console</title>
<polygon fill="none" stroke="black" points="536.494,-454 472.494,-454 472.494,-418 536.494,-418 536.494,-454"/>
<text text-anchor="middle" x="504.494" y="-433.2" font-family="Courier,monospace" font-size="11.00">Console</text>
</g>
<!-- \\utilities\\classes\\DataBase -->
<g id="node17" class="node"><title>\\utilities\\classes\\DataBase</title>
<polygon fill="none" stroke="black" points="539.994,-400 468.994,-400 468.994,-364 539.994,-364 539.994,-400"/>
<text text-anchor="middle" x="504.494" y="-379.2" font-family="Courier,monospace" font-size="11.00">DataBase</text>
</g>
<!-- \\utilities\\traits\\BeautifullIndentTrait -->
<g id="node19" class="node"><title>\\utilities\\traits\\BeautifullIndentTrait</title>
<polygon fill="none" stroke="black" points="583.494,-320 425.494,-320 425.494,-284 583.494,-284 583.494,-320"/>
<text text-anchor="middle" x="504.494" y="-299.2" font-family="Courier,monospace" font-size="11.00">BeautifullIndentTrait</text>
</g>
<!-- \\utilities\\traits\\FiltersTrait -->
<g id="node20" class="node"><title>\\utilities\\traits\\FiltersTrait</title>
<polygon fill="none" stroke="black" points="553.494,-266 455.494,-266 455.494,-230 553.494,-230 553.494,-266"/>
<text text-anchor="middle" x="504.494" y="-245.2" font-family="Courier,monospace" font-size="11.00">FiltersTrait</text>
</g>
</g>
</svg>
